<svg width="46" height="41" viewBox="0 0 46 41" fill="none" xmlns="http://www.w3.org/2000/svg">
<path d="M26.5931 20.8073V20.4761C24.9855 17.2714 22.7581 14.4174 20.1918 12.6836H9.90719C4.54214 16.3169 0.726562 24.9276 0.726562 31.0642C0.726562 39.0321 7.14719 39.7821 15.0592 39.7821C19.7657 39.7821 23.9299 39.5093 26.535 37.6294C26.2154 37.2495 26.0411 36.8307 26.0411 36.4118V31.6779C26.0411 32.1357 26.2445 32.5643 26.6028 32.9636V32.9149C26.2445 32.5156 26.0411 32.0772 26.0411 31.6292V26.8855C26.0411 27.3433 26.2445 27.7719 26.6028 28.1712V28.1225C26.2445 27.7232 26.0411 27.2848 26.0411 26.8368V22.1028C26.0314 21.645 26.2445 21.2164 26.5931 20.8073Z" fill="#FF9D9C"/>
<path d="M35.6574 25.9704C40.9684 25.9704 45.2739 24.2391 45.2739 22.1034C45.2739 19.9677 40.9684 18.2363 35.6574 18.2363C30.3464 18.2363 26.041 19.9677 26.041 22.1034C26.041 24.2391 30.3464 25.9704 35.6574 25.9704Z" fill="#E9F4BC"/>
<path d="M15.0578 34.3279C19.4756 34.3279 23.0569 30.7257 23.0569 26.2821C23.0569 21.8385 19.4756 18.2363 15.0578 18.2363C10.6399 18.2363 7.05859 21.8385 7.05859 26.2821C7.05859 30.7257 10.6399 34.3279 15.0578 34.3279Z" fill="#E9F4BC"/>
<path d="M20.83 8.78809H9.28645C8.22119 8.78809 7.34961 9.66474 7.34961 10.7362C7.34961 11.8077 8.22119 12.6843 9.28645 12.6843H20.83C21.8953 12.6843 22.7669 11.8077 22.7669 10.7362C22.7669 9.66474 21.905 8.78809 20.83 8.78809Z" fill="white"/>
<path d="M35.6574 25.9608C30.3505 25.9608 26.041 24.227 26.041 22.0938V26.8277C26.041 28.9609 30.3505 30.6947 35.6574 30.6947C40.9644 30.6947 45.2739 28.9609 45.2739 26.8277V22.0938C45.2739 24.2367 40.9644 25.9608 35.6574 25.9608Z" fill="#FDE4A1"/>
<path d="M35.6574 30.7528C30.3505 30.7528 26.041 29.0189 26.041 26.8857V31.6197C26.041 33.7529 30.3505 35.4867 35.6574 35.4867C40.9644 35.4867 45.2739 33.7529 45.2739 31.6197V26.8857C45.2739 29.0189 40.9644 30.7528 35.6574 30.7528Z" fill="#FDE4A1"/>
<path d="M35.6574 35.535C30.3505 35.535 26.041 33.8012 26.041 31.668V36.4019C26.041 38.5351 30.3505 40.269 35.6574 40.269C40.9644 40.269 45.2739 38.5351 45.2739 36.4019V31.668C45.2739 33.8109 40.9644 35.535 35.6574 35.535Z" fill="#FDE4A1"/>
<path d="M19.5044 8.78744L22.4096 1.2774C17.7321 -1.06036 11.8441 4.96911 7.70898 1.2774L10.6142 8.78744H19.5044Z" fill="#FF9D9C"/>
<path d="M15.7843 31.658V31.1807C17.0045 30.8593 17.9149 29.7488 17.9149 28.4144C17.9149 26.8266 16.6365 25.5409 15.058 25.5409C14.2833 25.5409 13.6538 24.9077 13.6538 24.1285C13.6538 23.3492 14.2833 22.7161 15.058 22.7161C15.8327 22.7161 16.4622 23.3492 16.4622 24.1285C16.4622 24.5278 16.7915 24.859 17.1885 24.859C17.5856 24.859 17.9149 24.5278 17.9149 24.1285C17.9149 22.8038 17.0045 21.6933 15.7843 21.3621V20.8848C15.7843 20.4855 15.4551 20.1543 15.058 20.1543C14.661 20.1543 14.3317 20.4855 14.3317 20.8848V21.3621C13.1115 21.6836 12.2012 22.794 12.2012 24.1285C12.2012 25.7162 13.4795 27.002 15.058 27.002C15.8327 27.002 16.4622 27.6351 16.4622 28.4144C16.4622 29.1936 15.8327 29.8268 15.058 29.8268C14.2833 29.8268 13.6538 29.1936 13.6538 28.4144C13.6538 28.015 13.3245 27.6838 12.9275 27.6838C12.5304 27.6838 12.2012 28.015 12.2012 28.4144C12.2012 29.7391 13.1115 30.8495 14.3317 31.1807V31.658C14.3317 32.0574 14.661 32.3886 15.058 32.3886C15.4551 32.3886 15.7843 32.0574 15.7843 31.658Z" fill="#505050"/>
<path d="M23.7851 26.2822C23.7851 21.4411 19.8727 17.5156 15.0693 17.5156C10.2659 17.5156 6.35352 21.4508 6.35352 26.2822C6.35352 31.1233 10.2659 35.0585 15.0693 35.0585C19.8727 35.0585 23.7851 31.1136 23.7851 26.2822ZM7.79646 26.2822C7.79646 22.2496 11.06 18.9767 15.0596 18.9767C19.0592 18.9767 22.3228 22.2593 22.3228 26.2822C22.3228 30.3148 19.0592 33.5974 15.0596 33.5974C11.06 33.5974 7.79646 30.3051 7.79646 26.2822Z" fill="#505050"/>
<path d="M46 22.1031C46 19.1225 40.6737 17.5056 35.6573 17.5056C32.3356 17.5056 28.888 18.2166 26.9318 19.5608C25.5373 16.9309 23.8522 14.7489 21.9832 13.1515C22.8838 12.7229 23.5036 11.8073 23.5036 10.7455C23.5036 9.26496 22.3124 8.06686 20.8404 8.06686H20.5789L23.0968 1.55037C23.2324 1.1997 23.0775 0.800336 22.7385 0.634745C20.3078 -0.582836 17.7027 0.196416 15.1945 0.936705C12.4636 1.74518 10.1103 2.44651 8.20253 0.741892C7.94105 0.508116 7.57305 0.488635 7.29221 0.673708C7.01137 0.85878 6.90484 1.21918 7.03074 1.54063L9.54863 8.05712H9.28716C7.81516 8.05712 6.624 9.25522 6.624 10.7358C6.624 11.7975 7.25347 12.7132 8.14442 13.1417C6.03326 14.973 4.11579 17.564 2.64379 20.6031C0.978105 24.0707 0.00968421 27.8793 0 31.0548V31.1425C0 31.5418 0.319579 31.873 0.716632 31.873H0.726316C1.12337 31.8633 1.45263 31.5418 1.45263 31.1327C1.44295 31.1035 1.44295 31.084 1.44295 31.0548C1.42358 25.5805 4.97768 16.9893 10.1297 13.4047H19.9688C22.1575 14.9438 24.2396 17.4861 25.8278 20.5739C25.4985 21.0317 25.3145 21.5382 25.3145 22.0934C25.3145 22.0934 25.3145 26.8468 25.3145 26.8566C25.3145 26.8663 25.3145 26.8663 25.3145 26.8761V31.61C25.3145 31.6198 25.3145 31.6587 25.3145 31.6587V36.3927C25.3145 36.7433 25.392 37.0648 25.5276 37.3765C23.0291 38.8181 19.0198 39.0421 15.3592 39.0421H14.8072C8.26063 39.0421 3.59284 38.3018 2.09179 34.6491C1.93684 34.2887 1.49137 34.1134 1.13305 34.2692C0.765053 34.4251 0.600421 34.8536 0.755368 35.2238C1.74316 37.4544 3.57347 38.9155 6.34316 39.6948C8.96758 40.4253 12.2215 40.5032 15.0686 40.5032C19.3878 40.4935 23.4939 40.3084 26.4185 38.5454C28.2392 40.1428 32.0257 41 35.6573 41C40.6737 41 46 39.3928 46 36.4024V22.1031ZM9.14189 2.95302C11.1853 3.64461 13.4223 2.9725 15.6013 2.32962C17.7027 1.70622 19.6977 1.11204 21.4796 1.68674L19.0198 8.06686H11.1175L9.14189 2.95302ZM9.28716 9.51822H10.6139H19.5137H20.8404C21.5086 9.51822 22.0509 10.0637 22.0509 10.7358C22.0509 11.4079 21.5086 11.9534 20.8404 11.9534H20.2013C20.2013 11.9534 20.2013 11.9534 20.1916 11.9534H9.90695C9.90695 11.9534 9.90695 11.9534 9.89726 11.9534H9.28716C8.61895 11.9534 8.07663 11.4079 8.07663 10.7358C8.07663 10.0637 8.61895 9.51822 9.28716 9.51822ZM35.6573 29.9736C30.5731 29.9736 26.7672 28.3177 26.7672 26.8371V24.5286C28.6943 25.941 32.2484 26.691 35.6573 26.691C39.0661 26.691 42.6202 25.941 44.5474 24.5286V26.8371C44.5474 28.3177 40.7415 29.9736 35.6573 29.9736ZM44.5474 31.6198C44.5474 33.1003 40.7415 34.7562 35.6573 34.7562C30.5731 34.7562 26.7672 33.1003 26.7672 31.6198V29.321C28.6943 30.7334 32.2484 31.4834 35.6573 31.4834C39.0661 31.4834 42.6202 30.7431 44.5474 29.321V31.6198ZM44.5474 22.1031C44.5474 23.5837 40.7415 25.2396 35.6573 25.2396C30.5731 25.2396 26.7672 23.5837 26.7672 22.1031C26.7672 20.6226 30.5731 18.9666 35.6573 18.9666C40.7415 18.9666 44.5474 20.6226 44.5474 22.1031ZM44.5474 36.4122C44.5474 37.8927 40.7415 39.5486 35.6573 39.5486C31.5221 39.5486 28.2392 38.4577 27.1545 37.2596C27.1448 37.2401 27.1448 37.2304 27.1352 37.2109C27.1255 37.1914 27.1061 37.1817 27.0867 37.1719C26.8834 36.9187 26.7672 36.6654 26.7672 36.4219V34.1231C28.6943 35.5355 32.2484 36.2855 35.6573 36.2855C39.0661 36.2855 42.6202 35.5452 44.5474 34.1231V36.4122Z" fill="#505050"/>
<path d="M0.995875 33.8017C1.39293 33.7335 1.66409 33.3634 1.5963 32.964C1.52851 32.5646 1.15082 32.2919 0.75377 32.3601C0.356717 32.4282 0.0952433 32.8081 0.163033 33.2075C0.163033 33.2172 0.163033 33.2172 0.163033 33.227C0.230822 33.5679 0.521349 33.8114 0.879664 33.8114C0.918401 33.8114 0.957138 33.8114 0.995875 33.8017Z" fill="#505050"/>
<path d="M35.8314 7.79297C31.5548 7.79297 28.084 11.284 28.084 15.5855C28.084 19.887 31.5548 23.378 35.8314 23.378C40.1079 23.378 43.5787 19.887 43.5787 15.5855C43.5787 11.284 40.1079 7.79297 35.8314 7.79297ZM34.2819 19.4817L30.4082 15.5855L31.5006 14.4867L34.2819 17.2765L40.1621 11.3619L41.2545 12.4685L34.2819 19.4817Z" fill="#00A30B"/>
</svg>
