<svg width="44" height="38" viewBox="0 0 44 38" fill="none" xmlns="http://www.w3.org/2000/svg">
<path d="M3.17871 6.85752L11.771 12.3764L20.3346 0.826133C20.5238 0.570625 20.7737 0.362358 21.0633 0.218662C21.353 0.074967 21.6741 0 21.9999 0C22.3257 0 22.6467 0.074967 22.9364 0.218662C23.226 0.362358 23.4759 0.570625 23.6651 0.826133L32.2288 12.3764L40.821 6.85752C41.1462 6.64908 41.5265 6.53468 41.917 6.52784C42.3076 6.521 42.6919 6.62201 43.0248 6.81893C43.3576 7.01586 43.625 7.30046 43.7953 7.63911C43.9656 7.97776 44.0317 8.35631 43.9858 8.73002L40.6246 36.2596C40.566 36.739 40.3268 37.1811 39.9523 37.5019C39.5779 37.8227 39.0942 37.9999 38.5932 38H5.40656C4.90549 37.9999 4.42186 37.8227 4.04741 37.5019C3.67296 37.1811 3.43373 36.739 3.37511 36.2596L0.0138942 8.72804C-0.0315221 8.3545 0.0349354 7.97623 0.205421 7.63789C0.375907 7.29956 0.643304 7.01528 0.976046 6.81862C1.30879 6.62195 1.69298 6.52112 2.08328 6.52801C2.47357 6.53491 2.85368 6.64924 3.17871 6.85752ZM21.9999 26.1737C23.085 26.1737 24.1257 25.7584 24.893 25.0191C25.6604 24.2798 26.0914 23.2772 26.0914 22.2317C26.0914 21.1862 25.6604 20.1835 24.893 19.4442C24.1257 18.7049 23.085 18.2896 21.9999 18.2896C20.9147 18.2896 19.874 18.7049 19.1067 19.4442C18.3394 20.1835 17.9083 21.1862 17.9083 22.2317C17.9083 23.2772 18.3394 24.2798 19.1067 25.0191C19.874 25.7584 20.9147 26.1737 21.9999 26.1737Z" fill="#29CC1E"/>
</svg>
