<svg width="34" height="34" viewBox="0 0 34 34" fill="none" xmlns="http://www.w3.org/2000/svg">
<path d="M29.4966 6.85503L29.4966 6.85504C31.8201 9.71233 33.0994 13.3164 33.0994 17.0007C33.0994 20.685 31.8196 24.288 29.4961 27.1453L29.496 27.1453L29.123 27.6039L29.0531 27.6899L28.9747 27.6116L23.2897 21.9311L23.231 21.8725L23.2778 21.8039L23.527 21.4392L29.4966 6.85503ZM29.4966 6.85503L29.1235 6.39637L29.0536 6.31044M29.4966 6.85503L29.0536 6.31044M29.0536 6.31044L28.9752 6.38873M29.0536 6.31044L28.9752 6.38873M28.9752 6.38873L23.2897 12.0692L23.231 12.1278M28.9752 6.38873L23.231 12.1278M23.231 12.1278L23.2778 12.1964M23.231 12.1278L23.2778 12.1964M23.2778 12.1964L23.527 12.561M23.2778 12.1964L23.527 12.561M23.527 12.561C24.4209 13.8729 24.8936 15.4079 24.8936 17.0002M23.527 12.561L24.8936 17.0002M24.8936 17.0002C24.8936 18.5924 24.4214 20.1273 23.527 21.4392L24.8936 17.0002ZM24.8594 12.2928L28.9439 8.21153C30.811 10.7473 31.8325 13.8413 31.8325 17.0007C31.8325 20.1601 30.811 23.2525 28.9439 25.7888L24.8594 21.7075C25.7125 20.2871 26.1612 18.6704 26.1612 17.0002C26.1612 15.3299 25.7125 13.7132 24.8594 12.2928Z" fill="#23A8FC" stroke="#23A8FC" stroke-width="0.2"/>
<path d="M9.12812 17.9669L9.14355 18.0483L9.22574 18.4818C9.22574 18.4818 9.22574 18.4818 9.22574 18.4819C9.93254 22.2009 13.1973 24.9002 16.9881 24.9002C18.5816 24.9002 20.1178 24.4283 21.4307 23.5347L9.12812 17.9669ZM9.12812 17.9669H9.0453H1H0.889223L0.900522 18.0771L0.960836 18.6654L0.960839 18.6654C1.8073 26.8946 8.69797 33.1001 16.9881 33.1001C20.6753 33.1001 24.2812 31.8213 27.1407 29.4996L27.1407 29.4996L27.5998 29.1268L27.6859 29.0569L27.6074 28.9784L21.9224 23.2974L21.8637 23.2388L21.7953 23.2856L21.4309 23.5346L9.12812 17.9669ZM16.9881 31.8334C9.58547 31.8334 3.39501 26.4652 2.31021 19.2335H8.09366C9.10634 23.2814 12.7661 26.1668 16.9881 26.1668C18.6597 26.1668 20.2777 25.7185 21.6993 24.866L25.7838 28.9472C23.246 30.8128 20.1495 31.8334 16.9881 31.8334Z" fill="#23A8FC" stroke="#23A8FC" stroke-width="0.2"/>
<path d="M21.7959 10.7145L21.8643 10.7612L21.9229 10.7026L27.6079 5.02163L27.6864 4.9432L27.6003 4.87326L27.1413 4.50047L27.1412 4.50045C24.2812 2.1788 20.6753 0.9 16.9881 0.9C8.69797 0.9 1.8073 7.10546 0.960839 15.3347L0.960836 15.3347L0.900522 15.923L0.889223 16.0332H1H9.0453H9.12812L9.14355 15.9518L9.22574 15.5182C9.22574 15.5182 9.22574 15.5182 9.22574 15.5182C9.93254 11.7991 13.1973 9.09991 16.9881 9.09991C18.5811 9.09991 20.1174 9.57178 21.4309 10.4655L21.7959 10.7145ZM21.5316 9.03748C21.7447 8.93542 21.8919 8.71787 21.8919 8.46605C21.8919 8.11635 21.6079 7.83272 21.2582 7.83272C20.9084 7.83272 20.6244 8.11635 20.6244 8.46605C20.6244 8.51036 20.6294 8.55294 20.6386 8.59362C19.9228 8.28207 19.1712 8.06339 18.397 7.94399C18.3026 7.88114 18.1886 7.83272 18.0556 7.83272C17.9745 7.83272 17.8984 7.84858 17.8284 7.87571C17.5512 7.85061 17.2711 7.83326 16.9881 7.83326C16.4036 7.83326 15.8323 7.89414 15.2764 8.00044C15.1653 7.89834 15.0187 7.83326 14.8531 7.83326C14.5763 7.83326 14.3529 8.01278 14.2663 8.25426C11.4227 9.13997 9.13889 11.3743 8.23776 14.2793C8.02487 14.3544 7.85972 14.5358 7.82227 14.7665H5.87138C5.82336 14.4643 5.56124 14.2332 5.24549 14.2332C4.92974 14.2332 4.66762 14.4643 4.6196 14.7665H2.66871C2.63935 14.5852 2.53152 14.4324 2.38436 14.338C2.61549 13.0519 3.00932 11.8283 3.54276 10.6876C3.57378 10.6947 3.60797 10.6999 3.64422 10.6999C3.99401 10.6999 4.27798 10.4163 4.27798 10.0666C4.27798 9.89069 4.20264 9.73918 4.09017 9.62829C4.26914 9.31485 4.45967 9.00889 4.66034 8.71067C4.7559 8.93953 4.98202 9.10044 5.24549 9.10044C5.59528 9.10044 5.87925 8.81682 5.87925 8.46712C5.87925 8.13442 5.62222 7.86153 5.29603 7.83578C6.03257 6.89728 6.87931 6.0529 7.81643 5.31924C7.84321 5.64433 8.11596 5.89995 8.44802 5.89995C8.79781 5.89995 9.08178 5.61632 9.08178 5.26662C9.08178 5.00389 8.92149 4.77845 8.69343 4.68257C8.99222 4.48206 9.29854 4.29234 9.61215 4.11363C9.72304 4.22502 9.8737 4.29996 10.0493 4.29996C10.3991 4.29996 10.683 4.01634 10.683 3.66664C10.683 3.63019 10.6777 3.59567 10.6706 3.56431C11.8166 3.02887 13.0415 2.63578 14.3227 2.4053C14.4339 2.58074 14.6273 2.69998 14.8531 2.69998C15.1414 2.69998 15.3725 2.50599 15.4495 2.24831C15.9563 2.19616 16.469 2.16665 16.9881 2.16665C17.0994 2.16665 17.207 2.17254 17.3176 2.17859C17.3569 2.18073 17.3965 2.1829 17.4369 2.18484C17.4922 2.47679 17.7453 2.69998 18.0556 2.69998C18.3356 2.69998 18.5611 2.51673 18.6448 2.27039C19.9437 2.41691 21.2155 2.73135 22.4261 3.20759C22.3035 3.322 22.2257 3.48415 22.2257 3.66664C22.2257 4.01634 22.5096 4.29996 22.8594 4.29996C23.2039 4.29996 23.4845 4.02494 23.493 3.68263C24.2939 4.07118 25.0633 4.52415 25.7837 5.05284L21.6992 9.13414C21.6436 9.10109 21.5877 9.06895 21.5316 9.03748Z" fill="#23A8FC" stroke="#23A8FC" stroke-width="0.2"/>
<path d="M13.2515 4.19996C13.5463 4.19996 13.7853 3.96118 13.7853 3.66663C13.7853 3.37208 13.5463 3.1333 13.2515 3.1333C12.9567 3.1333 12.7178 3.37208 12.7178 3.66663C12.7178 3.96118 12.9567 4.19996 13.2515 4.19996Z" fill="#23A8FC"/>
<path d="M16.4556 4.19996C16.7504 4.19996 16.9894 3.96118 16.9894 3.66663C16.9894 3.37208 16.7504 3.1333 16.4556 3.1333C16.1608 3.1333 15.9219 3.37208 15.9219 3.66663C15.9219 3.96118 16.1608 4.19996 16.4556 4.19996Z" fill="#23A8FC"/>
<path d="M19.6578 4.19996C19.9526 4.19996 20.1915 3.96118 20.1915 3.66663C20.1915 3.37208 19.9526 3.1333 19.6578 3.1333C19.363 3.1333 19.124 3.37208 19.124 3.66663C19.124 3.96118 19.363 4.19996 19.6578 4.19996Z" fill="#23A8FC"/>
<path d="M13.2515 7.40015C13.5463 7.40015 13.7853 7.16137 13.7853 6.86682C13.7853 6.57227 13.5463 6.3335 13.2515 6.3335C12.9567 6.3335 12.7178 6.57227 12.7178 6.86682C12.7178 7.16137 12.9567 7.40015 13.2515 7.40015Z" fill="#23A8FC"/>
<path d="M14.8531 5.79956C15.1479 5.79956 15.3868 5.56079 15.3868 5.26624C15.3868 4.97169 15.1479 4.73291 14.8531 4.73291C14.5583 4.73291 14.3193 4.97169 14.3193 5.26624C14.3193 5.56079 14.5583 5.79956 14.8531 5.79956Z" fill="#23A8FC"/>
<path d="M16.4556 7.40015C16.7504 7.40015 16.9894 7.16137 16.9894 6.86682C16.9894 6.57227 16.7504 6.3335 16.4556 6.3335C16.1608 6.3335 15.9219 6.57227 15.9219 6.86682C15.9219 7.16137 16.1608 7.40015 16.4556 7.40015Z" fill="#23A8FC"/>
<path d="M10.0494 7.40015C10.3442 7.40015 10.5831 7.16137 10.5831 6.86682C10.5831 6.57227 10.3442 6.3335 10.0494 6.3335C9.75459 6.3335 9.51562 6.57227 9.51562 6.86682C9.51562 7.16137 9.75459 7.40015 10.0494 7.40015Z" fill="#23A8FC"/>
<path d="M11.65 5.79956C11.9448 5.79956 12.1837 5.56079 12.1837 5.26624C12.1837 4.97169 11.9448 4.73291 11.65 4.73291C11.3552 4.73291 11.1162 4.97169 11.1162 5.26624C11.1162 5.56079 11.3552 5.79956 11.65 5.79956Z" fill="#23A8FC"/>
<path d="M11.65 8.99976C11.9448 8.99976 12.1837 8.76098 12.1837 8.46643C12.1837 8.17188 11.9448 7.93311 11.65 7.93311C11.3552 7.93311 11.1162 8.17188 11.1162 8.46643C11.1162 8.76098 11.3552 8.99976 11.65 8.99976Z" fill="#23A8FC"/>
<path d="M6.84626 7.40015C7.14104 7.40015 7.38001 7.16137 7.38001 6.86682C7.38001 6.57227 7.14104 6.3335 6.84626 6.3335C6.55147 6.3335 6.3125 6.57227 6.3125 6.86682C6.3125 7.16137 6.55147 7.40015 6.84626 7.40015Z" fill="#23A8FC"/>
<path d="M8.44879 8.99976C8.74358 8.99976 8.98255 8.76098 8.98255 8.46643C8.98255 8.17188 8.74358 7.93311 8.44879 7.93311C8.15401 7.93311 7.91504 8.17188 7.91504 8.46643C7.91504 8.76098 8.15401 8.99976 8.44879 8.99976Z" fill="#23A8FC"/>
<path d="M18.0543 5.79956C18.349 5.79956 18.588 5.56079 18.588 5.26624C18.588 4.97169 18.349 4.73291 18.0543 4.73291C17.7595 4.73291 17.5205 4.97169 17.5205 5.26624C17.5205 5.56079 17.7595 5.79956 18.0543 5.79956Z" fill="#23A8FC"/>
<path d="M19.6578 7.40015C19.9526 7.40015 20.1915 7.16137 20.1915 6.86682C20.1915 6.57227 19.9526 6.3335 19.6578 6.3335C19.363 6.3335 19.124 6.57227 19.124 6.86682C19.124 7.16137 19.363 7.40015 19.6578 7.40015Z" fill="#23A8FC"/>
<path d="M22.8609 7.40015C23.1557 7.40015 23.3947 7.16137 23.3947 6.86682C23.3947 6.57227 23.1557 6.3335 22.8609 6.3335C22.5661 6.3335 22.3271 6.57227 22.3271 6.86682C22.3271 7.16137 22.5661 7.40015 22.8609 7.40015Z" fill="#23A8FC"/>
<path d="M10.0494 10.5999C10.3442 10.5999 10.5831 10.3611 10.5831 10.0665C10.5831 9.77198 10.3442 9.5332 10.0494 9.5332C9.75459 9.5332 9.51562 9.77198 9.51562 10.0665C9.51562 10.3611 9.75459 10.5999 10.0494 10.5999Z" fill="#23A8FC"/>
<path d="M6.84626 10.5999C7.14104 10.5999 7.38001 10.3611 7.38001 10.0665C7.38001 9.77198 7.14104 9.5332 6.84626 9.5332C6.55147 9.5332 6.3125 9.77198 6.3125 10.0665C6.3125 10.3611 6.55147 10.5999 6.84626 10.5999Z" fill="#23A8FC"/>
<path d="M21.2574 5.79956C21.5522 5.79956 21.7911 5.56079 21.7911 5.26624C21.7911 4.97169 21.5522 4.73291 21.2574 4.73291C20.9626 4.73291 20.7236 4.97169 20.7236 5.26624C20.7236 5.56079 20.9626 5.79956 21.2574 5.79956Z" fill="#23A8FC"/>
<path d="M24.4595 5.79956C24.7543 5.79956 24.9933 5.56079 24.9933 5.26624C24.9933 4.97169 24.7543 4.73291 24.4595 4.73291C24.1648 4.73291 23.9258 4.97169 23.9258 5.26624C23.9258 5.56079 24.1648 5.79956 24.4595 5.79956Z" fill="#23A8FC"/>
<path d="M3.64411 13.8005C3.93889 13.8005 4.17786 13.5618 4.17786 13.2672C4.17786 12.9727 3.93889 12.7339 3.64411 12.7339C3.34932 12.7339 3.11035 12.9727 3.11035 13.2672C3.11035 13.5618 3.34932 13.8005 3.64411 13.8005Z" fill="#23A8FC"/>
<path d="M6.84626 13.8005C7.14104 13.8005 7.38001 13.5618 7.38001 13.2672C7.38001 12.9727 7.14104 12.7339 6.84626 12.7339C6.55147 12.7339 6.3125 12.9727 6.3125 13.2672C6.3125 13.5618 6.55147 13.8005 6.84626 13.8005Z" fill="#23A8FC"/>
<path d="M5.24762 12.1995C5.54241 12.1995 5.78138 11.9607 5.78138 11.6661C5.78138 11.3716 5.54241 11.1328 5.24762 11.1328C4.95284 11.1328 4.71387 11.3716 4.71387 11.6661C4.71387 11.9607 4.95284 12.1995 5.24762 12.1995Z" fill="#23A8FC"/>
<path d="M8.44879 12.1995C8.74358 12.1995 8.98255 11.9607 8.98255 11.6661C8.98255 11.3716 8.74358 11.1328 8.44879 11.1328C8.15401 11.1328 7.91504 11.3716 7.91504 11.6661C7.91504 11.9607 8.15401 12.1995 8.44879 12.1995Z" fill="#23A8FC"/>
</svg>
