<svg width="29" height="25" viewBox="0 0 29 25" fill="none" xmlns="http://www.w3.org/2000/svg">
<path d="M23.5735 1.71423V0H19.6618V1.71423H8.71787V0H4.80615V1.71423H0V24.9999H28.3783V1.71423H23.5735ZM20.9511 1.26562H22.2827V3.42983H20.9511V1.26562ZM6.09689 1.26562H7.42851V3.42983H6.09689V1.26562ZM27.0889 23.7357H1.29075V7.13157H27.0889V23.7357ZM27.0889 5.86593H1.29075V2.97987H4.80615V4.6941H8.71787V2.97987H19.6618V4.6941H23.5735V2.97987H27.0889V5.86593Z" fill="#00A30B"/>
<path d="M6.4771 12.0365C6.4771 11.4778 6.45633 10.8756 6.41476 10.2367H6.44316L7.97016 14.5474H8.73018L10.3091 10.2421H10.3375C10.3299 10.3318 10.3168 10.5806 10.3043 10.9911C10.2897 11.4044 10.2835 11.7388 10.2835 11.9944V14.5474H11.1121V9.38428H9.89553L8.39071 13.4911H8.36922L6.90874 9.38428H5.69629V14.5474H6.4771V12.0365Z" fill="#00A30B"/>
<path d="M14.7089 14.6196C15.4925 14.6196 16.0987 14.3857 16.5283 13.9208C16.9557 13.4545 17.1699 12.7993 17.1699 11.9592C17.1699 11.1177 16.9571 10.4638 16.5296 10.0002C16.1022 9.5353 15.4973 9.3042 14.7152 9.3042C13.9212 9.3042 13.3101 9.53258 12.8805 9.98935C12.4531 10.4461 12.2383 11.1 12.2383 11.951C12.2383 12.8047 12.4517 13.4613 12.8785 13.9249C13.3039 14.3871 13.9135 14.6196 14.7089 14.6196ZM13.5477 10.5195C13.8103 10.1933 14.2004 10.0288 14.7152 10.0288C15.2264 10.0288 15.611 10.1933 15.8694 10.5195C16.1258 10.8458 16.256 11.327 16.256 11.9592C16.256 12.6008 16.1258 13.0861 15.8645 13.411C15.6047 13.7346 15.2188 13.8977 14.7089 13.8977C14.1941 13.8977 13.8075 13.7346 13.545 13.4056C13.2831 13.078 13.1535 12.5954 13.1535 11.9592C13.1535 11.327 13.2845 10.8458 13.5477 10.5195Z" fill="#00A30B"/>
<path d="M19.0806 11.8653C19.0806 11.5009 19.0633 11.1013 19.0307 10.6635L19.0127 10.4338H19.0411L21.6288 14.5474H22.6833V9.38428H21.8949V12.0895C21.8949 12.2812 21.9025 12.5463 21.9171 12.8875C21.9309 13.226 21.9413 13.4245 21.9455 13.4775H21.9233L19.3439 9.38428H18.2998V14.5474H19.0806V11.8653Z" fill="#00A30B"/>
<path d="M10.9622 18.3364C11.4195 17.9721 11.6883 17.7559 11.7701 17.6866C11.8504 17.6186 11.9183 17.5574 11.9724 17.499C11.953 17.7328 11.944 18.0482 11.944 18.4465V21.7798H12.7892V16.6167H12.0846L10.5361 17.8103L10.9622 18.3364Z" fill="#00A30B"/>
<path d="M17.6553 17.3549V16.6167H14.9207L14.7177 19.1385L15.0967 19.3587C15.2214 19.3288 15.3655 19.3043 15.5318 19.2812C15.6981 19.2581 15.8374 19.2472 15.9503 19.2472C16.7512 19.2472 17.1516 19.5572 17.1516 20.1716C17.1516 20.4952 17.0519 20.7412 16.853 20.9071C16.6549 21.0743 16.3632 21.1586 15.9822 21.1586C15.766 21.1586 15.5318 21.1287 15.2796 21.0688C15.0281 21.0104 14.805 20.9275 14.6104 20.8201V21.5705C14.9457 21.7567 15.4085 21.8492 15.996 21.8492C16.6438 21.8492 17.144 21.6942 17.4953 21.3856C17.8472 21.0756 18.0225 20.646 18.0225 20.0942C18.0225 19.6197 17.868 19.2445 17.559 18.9699C17.2486 18.6926 16.8288 18.5553 16.2988 18.5553C16.1242 18.5553 15.9752 18.5661 15.8554 18.5825C15.7334 18.6029 15.6302 18.6178 15.5464 18.6327L15.6648 17.3549H17.6553Z" fill="#00A30B"/>
</svg>
