<svg width="78" height="78" viewBox="0 0 78 78" fill="none" xmlns="http://www.w3.org/2000/svg">
<g filter="url(#filter0_d_52_1752)">
<circle cx="39" cy="35" r="35" fill="#A3006D" fill-opacity="0.6" shape-rendering="crispEdges"/>
</g>
<g clip-path="url(#clip0_52_1752)">
<path d="M39 19C30.164 19 23 26.164 23 35C23 43.836 30.164 51 39 51C47.836 51 55 43.836 55 35C55 26.164 47.836 19 39 19ZM37 35H41C43.206 35 45 36.794 45 39V41C45 43.206 43.206 45 41 45V47H39V45H37C34.794 45 33 43.206 33 41H35C35 42.102 35.896 43 37 43H39H41C42.104 43 43 42.102 43 41V39C43 37.898 42.104 37 41 37H37C34.794 37 33 35.206 33 33V31C33 28.794 34.794 27 37 27H39V25H41V27C43.206 27 45 28.794 45 31H43C43 29.898 42.104 29 41 29H37C35.896 29 35 29.898 35 31V33C35 34.102 35.896 35 37 35Z" fill="white"/>
</g>
<defs>
<filter id="filter0_d_52_1752" x="0" y="0" width="78" height="78" filterUnits="userSpaceOnUse" color-interpolation-filters="sRGB">
<feFlood flood-opacity="0" result="BackgroundImageFix"/>
<feColorMatrix in="SourceAlpha" type="matrix" values="0 0 0 0 0 0 0 0 0 0 0 0 0 0 0 0 0 0 127 0" result="hardAlpha"/>
<feOffset dy="4"/>
<feGaussianBlur stdDeviation="2"/>
<feComposite in2="hardAlpha" operator="out"/>
<feColorMatrix type="matrix" values="0 0 0 0 0 0 0 0 0 0 0 0 0 0 0 0 0 0 0.25 0"/>
<feBlend mode="normal" in2="BackgroundImageFix" result="effect1_dropShadow_52_1752"/>
<feBlend mode="normal" in="SourceGraphic" in2="effect1_dropShadow_52_1752" result="shape"/>
</filter>
<clipPath id="clip0_52_1752">
<rect width="32" height="32" fill="white" transform="translate(23 19)"/>
</clipPath>
</defs>
</svg>
