<svg width="78" height="78" viewBox="0 0 78 78" fill="none" xmlns="http://www.w3.org/2000/svg">
<g filter="url(#filter0_d_52_1745)">
<circle cx="39" cy="35" r="35" fill="#23A8FC" fill-opacity="0.6" shape-rendering="crispEdges"/>
</g>
<path d="M52.7143 35C51.3211 35 50.6606 35.9817 50.4286 37.0183C49.5931 40.7486 46.048 46.4286 39 46.4286C32.688 46.4286 27.5714 41.3109 27.5714 35C27.5714 28.6891 32.688 23.5714 39 23.5714C41.56 23.5714 43.9086 24.432 45.8114 25.8571H43.5714C42.3097 25.8571 41.2857 26.8811 41.2857 28.1429C41.2857 29.4046 42.3097 30.4286 43.5714 30.4286H50.4286C51.6903 30.4286 52.7143 29.4046 52.7143 28.1429V21.2857C52.7143 20.024 51.6903 19 50.4286 19C49.1669 19 48.1429 20.024 48.1429 21.2857V21.8777C45.552 20.0651 42.4023 19 39 19C30.1634 19 23 26.1634 23 35C23 43.8366 30.1634 51 39 51C50.4046 51 55 40.1429 55 37.4286C55 35.768 53.7863 35 52.7143 35Z" fill="white"/>
<defs>
<filter id="filter0_d_52_1745" x="0" y="0" width="78" height="78" filterUnits="userSpaceOnUse" color-interpolation-filters="sRGB">
<feFlood flood-opacity="0" result="BackgroundImageFix"/>
<feColorMatrix in="SourceAlpha" type="matrix" values="0 0 0 0 0 0 0 0 0 0 0 0 0 0 0 0 0 0 127 0" result="hardAlpha"/>
<feOffset dy="4"/>
<feGaussianBlur stdDeviation="2"/>
<feComposite in2="hardAlpha" operator="out"/>
<feColorMatrix type="matrix" values="0 0 0 0 0 0 0 0 0 0 0 0 0 0 0 0 0 0 0.25 0"/>
<feBlend mode="normal" in2="BackgroundImageFix" result="effect1_dropShadow_52_1745"/>
<feBlend mode="normal" in="SourceGraphic" in2="effect1_dropShadow_52_1745" result="shape"/>
</filter>
</defs>
</svg>
