<svg width="78" height="78" viewBox="0 0 78 78" fill="none" xmlns="http://www.w3.org/2000/svg">
<g filter="url(#filter0_d_52_1753)">
<circle cx="39" cy="35" r="35" fill="#FD2E2E" fill-opacity="0.6" shape-rendering="crispEdges"/>
</g>
<path d="M39.0334 16.9999C29.0897 16.9999 21 25.0896 21 35.0332C21 44.9768 29.0897 53.0666 39.0334 53.0666C48.977 53.0666 57.0667 44.9768 57.0667 35.0332C57.0667 25.0896 48.977 16.9999 39.0334 16.9999ZM55.9028 35.0332C55.9028 36.4659 55.7228 37.8572 55.385 39.1862L48.8198 37.4271C49.0077 36.6595 49.108 35.8579 49.108 35.0331C49.108 34.2085 49.0078 33.4068 48.8198 32.6392L55.385 30.8802C55.7227 32.2094 55.9028 33.6005 55.9028 35.0332ZM22.1639 35.0332C22.1639 33.6005 22.344 32.2093 22.6818 30.8803L29.2468 32.6393C29.059 33.407 28.9586 34.2086 28.9586 35.0333C28.9586 35.8581 29.059 36.6597 29.2468 37.4273L22.6818 39.1865C22.344 37.8572 22.1639 36.4659 22.1639 35.0332ZM47.0522 32.788C47.0534 32.792 47.0545 32.796 47.0556 32.8C47.0825 32.8966 47.1079 32.9939 47.1314 33.0919C47.2808 33.7153 47.3621 34.3648 47.3621 35.0333C47.3621 35.702 47.2808 36.3516 47.1313 36.975C47.1079 37.0727 47.0826 37.1697 47.0558 37.266C47.0545 37.2707 47.0532 37.2753 47.0518 37.28C46.9427 37.6691 46.8061 38.0467 46.644 38.4107L46.6438 38.411C46.5215 38.6854 46.3848 38.9522 46.2346 39.2102C46.2342 39.2108 46.2338 39.2113 46.2335 39.212C45.8321 39.9008 45.3348 40.5271 44.76 41.0726C43.8202 41.9642 42.6738 42.6394 41.4002 43.0177C41.2309 43.0681 41.0591 43.1124 40.8856 43.1522C40.861 43.1577 40.8366 43.1637 40.8118 43.1693C40.7381 43.1854 40.664 43.2001 40.5895 43.2144C40.5415 43.2235 40.4933 43.232 40.445 43.2404C40.3804 43.2514 40.3158 43.2629 40.2507 43.2726C40.1428 43.2885 40.0341 43.3024 39.9248 43.3141C39.8809 43.3188 39.8365 43.3222 39.7922 43.3263C39.706 43.3342 39.6197 43.3409 39.5327 43.3461C39.4922 43.3485 39.4518 43.351 39.4112 43.3528C39.2858 43.3585 39.16 43.3624 39.0334 43.3624C38.9066 43.3624 38.7808 43.3585 38.6554 43.3528C38.6148 43.3509 38.5745 43.3485 38.5341 43.3461C38.4472 43.3409 38.3606 43.3342 38.2745 43.3263C38.2303 43.3222 38.1858 43.3188 38.1418 43.3141C38.0326 43.3024 37.9239 43.2885 37.8159 43.2726C37.7508 43.2629 37.6862 43.2514 37.6215 43.2403C37.5733 43.232 37.5252 43.2235 37.4773 43.2144C37.4027 43.2002 37.3282 43.1854 37.2544 43.1691C37.2303 43.1638 37.2067 43.158 37.1828 43.1525C37.0085 43.1126 36.8359 43.0681 36.6658 43.0175C35.3922 42.6392 34.2459 41.9638 33.3061 41.0719C33.0189 40.7992 32.7511 40.5066 32.5049 40.1961C32.5046 40.1957 32.5042 40.1952 32.5039 40.1948C32.2582 39.8846 32.034 39.5564 31.8337 39.2127C31.8329 39.2113 31.8322 39.21 31.8314 39.2085C31.6818 38.9517 31.5456 38.6859 31.4237 38.4125C31.4233 38.4116 31.4228 38.4107 31.4225 38.4099C31.3818 38.3187 31.3428 38.2266 31.3054 38.1337C31.3052 38.1332 31.305 38.1325 31.3047 38.1319C31.1934 37.8551 31.0966 37.5709 31.015 37.2803C31.0136 37.2754 31.0123 37.2707 31.0109 37.266C30.9841 37.1697 30.9588 37.0728 30.9355 36.9751C30.7859 36.3517 30.7046 35.7021 30.7046 35.0334C30.7046 34.3648 30.786 33.7152 30.9355 33.0918C30.9588 32.9941 30.984 32.8972 31.0109 32.8009C31.0123 32.7962 31.0136 32.7914 31.015 32.7866C31.0965 32.4961 31.1932 32.212 31.3045 31.9353C31.3048 31.9345 31.3051 31.9337 31.3054 31.933C31.3427 31.8402 31.3817 31.7484 31.4223 31.6573C31.4228 31.6562 31.4232 31.6551 31.4237 31.654C31.5454 31.3808 31.6816 31.1155 31.831 30.8587C31.832 30.8571 31.8328 30.8554 31.8338 30.8539C32.0339 30.5105 32.2579 30.1828 32.5034 29.8727C32.5039 29.8719 32.5046 29.8711 32.5052 29.8704C32.7513 29.56 33.0189 29.2674 33.3059 28.9951C34.2464 28.1026 35.3937 27.4269 36.6685 27.0486C36.8367 26.9987 37.0075 26.9546 37.1799 26.9152C37.205 26.9094 37.23 26.9032 37.2551 26.8978C37.3285 26.8817 37.4025 26.867 37.4766 26.8528C37.525 26.8436 37.5736 26.835 37.6222 26.8267C37.6866 26.8155 37.7508 26.8042 37.8157 26.7946C37.9238 26.7787 38.0325 26.7647 38.1419 26.753C38.1858 26.7482 38.2301 26.7449 38.2742 26.7409C38.3605 26.733 38.447 26.7262 38.534 26.721C38.5744 26.7186 38.6147 26.7161 38.6553 26.7143C38.7807 26.7086 38.9065 26.7047 39.0333 26.7047C39.16 26.7047 39.2858 26.7087 39.4112 26.7143C39.4518 26.7161 39.4921 26.7186 39.5325 26.721C39.6195 26.7261 39.7061 26.733 39.7923 26.7409C39.8365 26.7449 39.8808 26.7483 39.9246 26.753C40.034 26.7647 40.1428 26.7787 40.2508 26.7946C40.3157 26.8042 40.3799 26.8155 40.4443 26.8267C40.4929 26.835 40.5415 26.8436 40.5898 26.8528C40.6641 26.867 40.7379 26.8817 40.8115 26.8978C40.8366 26.9033 40.8615 26.9094 40.8865 26.9152C41.059 26.9546 41.2297 26.9988 41.3979 27.0486C42.6725 27.4268 43.8193 28.1022 44.7597 28.9944C45.0473 29.2673 45.3154 29.5603 45.5618 29.8712L45.562 29.8713C45.8082 30.182 46.0326 30.5106 46.2332 30.8547C46.2337 30.8556 46.2342 30.8565 46.2347 30.8573C46.3847 31.115 46.5214 31.3815 46.6436 31.6558C46.6437 31.656 46.6438 31.6562 46.6438 31.6564C46.6847 31.748 46.7239 31.8404 46.7614 31.9337C46.8734 32.2113 46.9705 32.4965 47.0522 32.788ZM45.9959 27.7583C44.842 26.6536 43.4267 25.8203 41.8534 25.3607L43.6125 18.7956C46.3533 19.5695 48.8123 21.0209 50.7982 22.9559L45.9959 27.7583ZM36.2134 25.3607C34.6399 25.8202 33.2246 26.6537 32.0708 27.7584L27.2684 22.9561C29.2544 21.021 31.7134 19.5696 34.4543 18.7956L36.2134 25.3607ZM32.0707 42.308C33.2245 43.4128 34.6398 44.2462 36.2133 44.7057L34.4542 51.2709C31.7133 50.4969 29.2543 49.0454 27.2683 47.1103L32.0707 42.308ZM41.8534 44.7057C43.4267 44.2464 44.842 43.4129 45.9959 42.3082L50.7982 47.1105C48.8123 49.0455 46.3532 50.4969 43.6123 51.2709L41.8534 44.7057Z" fill="white"/>
<defs>
<filter id="filter0_d_52_1753" x="0" y="0" width="78" height="78" filterUnits="userSpaceOnUse" color-interpolation-filters="sRGB">
<feFlood flood-opacity="0" result="BackgroundImageFix"/>
<feColorMatrix in="SourceAlpha" type="matrix" values="0 0 0 0 0 0 0 0 0 0 0 0 0 0 0 0 0 0 127 0" result="hardAlpha"/>
<feOffset dy="4"/>
<feGaussianBlur stdDeviation="2"/>
<feComposite in2="hardAlpha" operator="out"/>
<feColorMatrix type="matrix" values="0 0 0 0 0 0 0 0 0 0 0 0 0 0 0 0 0 0 0.25 0"/>
<feBlend mode="normal" in2="BackgroundImageFix" result="effect1_dropShadow_52_1753"/>
<feBlend mode="normal" in="SourceGraphic" in2="effect1_dropShadow_52_1753" result="shape"/>
</filter>
</defs>
</svg>
