<svg width="78" height="78" viewBox="0 0 78 78" fill="none" xmlns="http://www.w3.org/2000/svg">
<g filter="url(#filter0_d_52_1748)">
<circle cx="39" cy="35" r="35" fill="#3B64CD" fill-opacity="0.6" shape-rendering="crispEdges"/>
</g>
<path d="M49.0136 23.306C45.5065 22.2664 44.4052 24.2361 39.5 24.2361C34.5948 24.2361 33.4934 22.2586 29.9864 23.306C26.4793 24.3455 24.7297 28.0269 23.0738 34.9364C21.4179 41.8537 21.7225 46.8482 23.6752 47.7783C25.6279 48.7084 27.8306 46.5746 29.9317 43.9406C31.6345 41.8771 32.4858 41.7442 39.5 41.7442C46.5063 41.7442 47.2327 41.7989 49.0683 43.9406C51.1694 46.5746 53.3721 48.7084 55.3248 47.7783C57.2775 46.8482 57.5821 41.8537 55.9262 34.9364C54.2703 28.0269 52.5129 24.3533 49.0136 23.306ZM29.5177 36.0932C27.8228 36.0932 26.4481 34.7097 26.4481 32.998C26.4481 31.2941 27.8228 29.9028 29.5177 29.9028C31.2127 29.9028 32.5874 31.2941 32.5874 32.998C32.5874 34.7019 31.2127 36.0932 29.5177 36.0932ZM43.6944 34.5221C42.8665 34.5221 42.1869 33.8421 42.1869 33.0058C42.1869 32.1695 42.8665 31.4895 43.6944 31.4895C44.5302 31.4895 45.2097 32.1695 45.2097 33.0058C45.2019 33.8421 44.5302 34.5221 43.6944 34.5221ZM46.9906 37.8362C46.1627 37.8362 45.4831 37.1562 45.4831 36.3198C45.4831 35.4757 46.1627 34.8035 46.9906 34.8035C47.8264 34.8035 48.5059 35.4835 48.5059 36.3198C48.5059 37.164 47.8264 37.8362 46.9906 37.8362ZM46.9906 31.2003C46.1627 31.2003 45.4831 30.5203 45.4831 29.6839C45.4831 28.8476 46.1627 28.1676 46.9906 28.1676C47.8264 28.1676 48.5059 28.8476 48.5059 29.6839C48.5059 30.5203 47.8264 31.2003 46.9906 31.2003ZM50.2946 34.5221C49.4588 34.5221 48.7871 33.8421 48.7871 33.0058C48.7871 32.1695 49.4667 31.4895 50.2946 31.4895C51.1226 31.4895 51.8021 32.1695 51.8021 33.0058C51.8021 33.8421 51.1304 34.5221 50.2946 34.5221Z" fill="white"/>
<defs>
<filter id="filter0_d_52_1748" x="0" y="0" width="78" height="78" filterUnits="userSpaceOnUse" color-interpolation-filters="sRGB">
<feFlood flood-opacity="0" result="BackgroundImageFix"/>
<feColorMatrix in="SourceAlpha" type="matrix" values="0 0 0 0 0 0 0 0 0 0 0 0 0 0 0 0 0 0 127 0" result="hardAlpha"/>
<feOffset dy="4"/>
<feGaussianBlur stdDeviation="2"/>
<feComposite in2="hardAlpha" operator="out"/>
<feColorMatrix type="matrix" values="0 0 0 0 0 0 0 0 0 0 0 0 0 0 0 0 0 0 0.25 0"/>
<feBlend mode="normal" in2="BackgroundImageFix" result="effect1_dropShadow_52_1748"/>
<feBlend mode="normal" in="SourceGraphic" in2="effect1_dropShadow_52_1748" result="shape"/>
</filter>
</defs>
</svg>
