<svg width="38" height="38" viewBox="0 0 38 38" fill="none" xmlns="http://www.w3.org/2000/svg">
<path d="M14.5764 14.4953C14.5764 11.8733 16.5815 9.86816 19.2036 9.86816C21.8256 9.86816 23.8308 11.8733 23.8308 14.4953C23.8308 17.1174 21.8256 19.1225 19.2036 19.1225C16.5815 19.1225 14.5764 17.1174 14.5764 14.4953ZM19.2036 22.2073C12.1086 22.2073 9.94922 27.2972 9.94922 27.2972V29.9193H28.4579V27.2972C28.4579 27.2972 26.2986 22.2073 19.2036 22.2073Z" fill="#D518AD"/>
<path d="M29.2271 17.5801C31.3567 17.5801 33.0831 15.8537 33.0831 13.7241C33.0831 11.5945 31.3567 9.86816 29.2271 9.86816C27.0975 9.86816 25.3711 11.5945 25.3711 13.7241C25.3711 15.8537 27.0975 17.5801 29.2271 17.5801Z" fill="#D518AD"/>
<path d="M29.225 20.665C27.3741 20.665 25.9859 21.1278 24.9062 21.899C28.4538 23.5956 29.8419 26.5261 29.8419 26.8346V26.9889H36.1657V24.9837C36.1657 24.8295 34.4691 20.665 29.225 20.665Z" fill="#D518AD"/>
<path d="M29.2271 17.5801C31.3567 17.5801 33.0831 15.8537 33.0831 13.7241C33.0831 11.5945 31.3567 9.86816 29.2271 9.86816C27.0975 9.86816 25.3711 11.5945 25.3711 13.7241C25.3711 15.8537 27.0975 17.5801 29.2271 17.5801Z" fill="#D518AD"/>
<path d="M29.225 20.665C27.3741 20.665 25.9859 21.1278 24.9062 21.899C28.4538 23.5956 29.8419 26.5261 29.8419 26.8346V26.9889H36.1657V24.9837C36.1657 24.8295 34.4691 20.665 29.225 20.665Z" fill="#D518AD"/>
<path d="M9.1763 17.5801C11.3059 17.5801 13.0323 15.8537 13.0323 13.7241C13.0323 11.5945 11.3059 9.86816 9.1763 9.86816C7.04669 9.86816 5.32031 11.5945 5.32031 13.7241C5.32031 15.8537 7.04669 17.5801 9.1763 17.5801Z" fill="#D518AD"/>
<path d="M9.17905 20.665C11.0299 20.665 12.4181 21.1278 13.4978 21.899C9.95025 23.5956 8.56209 26.5261 8.56209 26.8346V26.9889H2.23828V24.9837C2.23828 24.8295 3.93491 20.665 9.17905 20.665Z" fill="#D518AD"/>
</svg>
