<svg width="38" height="37" viewBox="0 0 38 37" fill="none" xmlns="http://www.w3.org/2000/svg">
<path d="M12.5751 0.540039C8.73738 0.540039 5.60547 3.67195 5.60547 7.50966C5.60547 11.2992 7.12908 15.5219 9.22349 18.9632C10.2707 20.6839 11.4606 22.2104 12.7689 23.3563C14.0771 24.5023 15.5311 25.3364 17.1862 25.3364H21.5339C23.2735 25.3364 24.7197 24.3633 26.0208 23.105C27.322 21.8468 28.5028 20.1995 29.545 18.4031C31.6274 14.8138 33.1652 10.7204 33.1146 7.49755C33.1084 3.66505 29.9788 0.540039 26.145 0.540039H12.5751ZM19.4721 5.2238C19.7115 5.22846 19.9467 5.28886 20.1589 5.40024C20.3712 5.51162 20.5548 5.67094 20.6952 5.86566L22.3241 8.06372L25.0702 9.1022C25.2911 9.18622 25.49 9.31991 25.6514 9.49302C25.8129 9.66613 25.9327 9.87406 26.0017 10.1009C26.0707 10.3277 26.087 10.5674 26.0494 10.8015C26.0118 11.0356 25.9212 11.258 25.7847 11.4517L24.1922 13.7012L24.053 16.6289C24.0422 16.8677 23.9766 17.1008 23.8614 17.31C23.7462 17.5192 23.5845 17.6989 23.3888 17.8351C23.1931 17.9714 22.9687 18.0604 22.7331 18.0954C22.4975 18.1304 22.2571 18.1103 22.0305 18.0368L19.4328 17.2102L16.6019 17.9914C16.3735 18.0546 16.1337 18.0644 15.9009 18.02C15.6681 17.9755 15.4486 17.878 15.2594 17.735C15.0701 17.5919 14.9161 17.4072 14.8092 17.1949C14.7024 16.9827 14.6455 16.7486 14.6431 16.5108L14.6218 13.7587L13.0202 11.3003C12.8914 11.1017 12.8096 10.8763 12.781 10.6411C12.7524 10.406 12.7778 10.1673 12.8552 9.94352C12.9327 9.7197 13.0601 9.51661 13.2277 9.3498C13.3954 9.18299 13.5988 9.05687 13.8225 8.9811L16.4051 8.09703L18.2489 5.80813C18.4662 5.53446 18.7692 5.34243 19.1088 5.26315C19.2279 5.23568 19.3498 5.22247 19.4721 5.2238Z" fill="#FF7878"/>
<path d="M12.1277 26.8818C10.1507 26.8818 8.51172 28.5323 8.51172 30.5093V32.569C8.51172 34.546 10.1507 36.185 12.1277 36.185H26.5917C28.5687 36.185 30.2077 34.546 30.2077 32.569V30.5093C30.2077 28.5323 28.5687 26.8818 26.5917 26.8818H12.1277Z" fill="#FF7878"/>
<path d="M2.42697 5.18458C2.0169 5.18542 1.62387 5.34869 1.33391 5.63865C1.04395 5.92861 0.880678 6.32164 0.879836 6.73171C0.879836 10.666 0.698177 13.5226 1.99099 15.8631C2.63734 17.0332 3.74483 17.9586 5.1155 18.4608C5.86686 18.736 6.70396 18.9056 7.63754 19.0088C5.49808 15.2873 3.97409 10.8649 3.97409 6.86492C3.97409 6.28692 4.04742 5.72733 4.16786 5.18458H2.42697ZM34.5532 5.18458C34.6728 5.72359 34.7463 6.27896 34.747 6.85281C34.8036 10.4573 33.0851 15.0336 30.7566 19.0481C31.8722 18.9543 32.8575 18.7782 33.7237 18.4608C35.0944 17.9587 36.1988 17.0332 36.8452 15.8631C38.1379 13.5226 37.9684 10.666 37.9684 6.73171C37.968 6.52789 37.9274 6.32615 37.8489 6.13804C37.7705 5.94993 37.6557 5.77914 37.5111 5.63544C37.3666 5.49175 37.1951 5.37796 37.0066 5.30059C36.818 5.22323 36.616 5.18381 36.4122 5.18458H34.5532Z" fill="#FF7878"/>
</svg>
