<svg width="29" height="35" viewBox="0 0 29 35" fill="none" xmlns="http://www.w3.org/2000/svg">
<path d="M13.8022 18.8275C13.9217 18.7382 14.0178 18.6214 14.0823 18.4869C14.1468 18.3525 14.1779 18.2044 14.1728 18.0553V17.6314C15.1036 17.4832 15.8209 17.1297 16.3115 16.588C16.8836 15.9581 17.2008 15.2593 17.2505 14.5234C17.2856 14.1182 17.2636 13.7101 17.1852 13.311C17.1041 12.855 16.932 12.42 16.6791 12.0319C16.3884 11.6125 16.0127 11.259 15.5764 10.9944C15.1435 10.7281 14.6691 10.5363 14.1728 10.4267V6.27675C14.2061 6.29602 14.2395 6.31602 14.2706 6.33752C14.4958 6.48878 14.6979 6.67173 14.8709 6.88072C15.0171 7.05842 15.1296 7.26135 15.2029 7.47951C15.2789 7.71387 15.3286 7.95596 15.3511 8.20131C15.4089 8.72006 15.7905 9.03724 16.2893 8.99352C16.7058 8.94312 17.0126 8.63632 17.1104 8.17315C17.1198 8.12832 17.124 8.08258 17.123 8.03679C17.0963 6.97261 16.7525 6.10408 16.0929 5.45786C15.5638 4.93664 14.8973 4.57678 14.1713 4.42036V3.86604C14.1724 3.72095 14.1412 3.57743 14.08 3.44591C14.0187 3.31439 13.9289 3.19817 13.8171 3.1057C13.4273 2.79964 12.9411 2.77 12.4957 3.14646C12.3993 3.23941 12.3232 3.35135 12.2721 3.4752C12.2211 3.59905 12.1963 3.73213 12.1993 3.86604V4.32106C11.7774 4.37175 11.3629 4.47122 10.9639 4.61749C10.4383 4.80765 9.95749 5.10406 9.55146 5.48825C9.16897 5.85331 8.86903 6.29601 8.67181 6.78661C8.47266 7.29703 8.3965 7.84718 8.44949 8.39251C8.56658 9.40185 8.99566 10.2356 9.73377 10.8773C10.3755 11.4131 11.2055 11.757 12.2038 11.9022V15.9151C11.5412 15.8277 11.018 15.6409 10.6475 15.3586C10.1747 15.0006 9.8842 14.5745 9.7723 14.1151C9.7145 13.6623 9.35508 13.3607 8.88302 13.3473C8.75068 13.3342 8.61712 13.3524 8.49305 13.4002C8.36898 13.4481 8.25787 13.5244 8.16862 13.623C8.08954 13.7196 8.0348 13.8337 8.00901 13.9558C7.98322 14.078 7.98713 14.2045 8.02041 14.3248C8.22124 15.406 8.78001 16.2456 9.68189 16.8222C10.4 17.2735 11.2493 17.5536 12.2112 17.6552V18.0502C12.2053 18.1933 12.232 18.3359 12.2892 18.4672C12.3465 18.5986 12.4328 18.7152 12.5417 18.8083C12.7206 18.9563 12.9453 19.0377 13.1775 19.0387C13.403 19.0368 13.6219 18.9628 13.8022 18.8275ZM10.4215 8.88384C10.3526 8.68962 10.3074 8.48784 10.2866 8.28283C10.2668 7.99699 10.3084 7.71022 10.4086 7.44179C10.5088 7.17336 10.6653 6.92949 10.8676 6.72658C11.187 6.39458 11.6346 6.17448 12.2015 6.06777V10.1111C11.6589 9.99319 11.1575 9.73277 10.749 9.35664C10.6063 9.22513 10.4944 9.06367 10.4215 8.88384ZM15.4941 14.4656C15.4845 14.5888 15.4568 14.7099 15.4119 14.825C15.3572 14.9898 15.2741 15.1438 15.1666 15.28C15.0063 15.4607 14.8128 15.6089 14.5967 15.7165C14.4627 15.7872 14.3199 15.8395 14.172 15.8721V12.2513C14.5618 12.3928 14.8598 12.5803 15.0613 12.81C15.3696 13.1672 15.5104 13.7045 15.4941 14.453V14.4656Z" fill="#1C1CA7"/>
<path d="M26.7674 33.135H13.8371V30.0306C20.6854 32.8467 24.1084 29.4319 25.5038 26.7195C27.5329 22.7763 28.889 21.2727 28.889 21.2727C18.6022 20.0869 15.0532 24.5089 13.8371 27.4176V22.3042C19.5108 21.9078 24.0083 17.1768 24.0083 11.4038C24.0083 5.37148 19.101 0.464844 13.0686 0.464844C7.03632 0.464844 2.1282 5.37148 2.1282 11.4038C2.1282 17.1768 6.62725 21.9078 12.3009 22.3042V26.7381C11.127 24.9854 8.34505 22.5517 2.2401 23.9961C2.2401 23.9961 4.66044 26.9463 5.6683 28.2899C6.98667 30.0462 9.60191 31.0659 12.3009 29.6571V33.1365H1.73691C1.63413 33.1333 1.53176 33.1508 1.43586 33.1879C1.33997 33.225 1.25251 33.281 1.17868 33.3526C1.10485 33.4242 1.04615 33.5099 1.00606 33.6045C0.96597 33.6992 0.945312 33.801 0.945312 33.9039C0.945312 34.0067 0.96597 34.1085 1.00606 34.2032C1.04615 34.2979 1.10485 34.3835 1.17868 34.4551C1.25251 34.5267 1.33997 34.5827 1.43586 34.6198C1.53176 34.6569 1.63413 34.6744 1.73691 34.6712H26.7674C26.8701 34.6744 26.9725 34.6569 27.0684 34.6198C27.1643 34.5827 27.2518 34.5267 27.3256 34.4551C27.3994 34.3835 27.4581 34.2979 27.4982 34.2032C27.5383 34.1085 27.559 34.0067 27.559 33.9039C27.559 33.801 27.5383 33.6992 27.4982 33.6045C27.4581 33.5099 27.3994 33.4242 27.3256 33.3526C27.2518 33.281 27.1643 33.225 27.0684 33.1879C26.9725 33.1508 26.8701 33.1333 26.7674 33.1365V33.135ZM3.6637 11.4038C3.6637 9.54383 4.21525 7.72562 5.24859 6.17911C6.28194 4.6326 7.75068 3.42724 9.46907 2.71546C11.1875 2.00367 13.0783 1.81744 14.9026 2.1803C16.7268 2.54317 18.4025 3.43883 19.7177 4.75403C21.0329 6.06923 21.9285 7.7449 22.2914 9.56914C22.6543 11.3934 22.468 13.2842 21.7562 15.0026C21.0445 16.721 19.8391 18.1898 18.2926 19.2231C16.7461 20.2565 14.9279 20.808 13.0679 20.808C10.5744 20.806 8.1835 19.8146 6.42029 18.0514C4.65709 16.2882 3.66566 13.8974 3.6637 11.4038Z" fill="#1C1CA7"/>
</svg>
