<svg width="37" height="38" viewBox="0 0 37 38" fill="none" xmlns="http://www.w3.org/2000/svg">
<path fill-rule="evenodd" clip-rule="evenodd" d="M4.24606 37.949H34.6677C35.431 37.949 36.0505 37.3295 36.0505 36.5662V11.6757C36.0505 10.9124 35.431 10.2929 34.6677 10.2929H29.1365C28.3732 10.2929 27.7537 10.9124 27.7537 11.6757V35.1834H24.9881V18.5897C24.9881 17.8264 24.3686 17.2069 23.6053 17.2069H18.0741C17.3108 17.2069 16.6913 17.8264 16.6913 18.5897V35.1834H13.9257V24.1375C13.9257 23.3742 13.3062 22.7547 12.5429 22.7547H7.01167C6.24836 22.7547 5.62887 23.3742 5.62887 24.1375V35.1834H4.24606C3.87962 35.1834 3.52701 35.0382 3.26842 34.7782C3.00846 34.5196 2.86326 34.167 2.86326 33.8006V3.3789C2.86326 2.61559 2.24377 1.99609 1.48046 1.99609C0.717152 1.99609 0.0976562 2.61559 0.0976562 3.3789V33.8006C0.0976562 34.9013 0.534622 35.9563 1.31314 36.7335C2.09028 37.512 3.14535 37.949 4.24606 37.949Z" fill="#25CA6C"/>
<path fill-rule="evenodd" clip-rule="evenodd" d="M9.78146 3.37889H9.77732C7.48739 3.37889 5.62891 5.23737 5.62891 7.5273C5.62891 9.81722 7.48739 11.6757 9.77732 11.6757H12.5429C13.3062 11.6757 13.9257 12.2952 13.9257 13.0585C13.9257 13.8218 13.3062 14.4413 12.5429 14.4413H8.39451C7.6312 14.4413 7.01171 15.0608 7.01171 15.8241C7.01171 16.5874 7.6312 17.2069 8.39451 17.2069H9.78146V18.5897C9.78146 19.353 10.4023 19.9725 11.1643 19.9725C11.9276 19.9725 12.5471 19.353 12.5471 18.5897V17.2069C14.8356 17.2041 16.6913 15.347 16.6913 13.0585C16.6913 10.7686 14.8328 8.9101 12.5429 8.9101H9.77732C9.01401 8.9101 8.39451 8.2906 8.39451 7.5273C8.39451 6.76399 9.01401 6.14449 9.77732 6.14449H13.9257C14.689 6.14449 15.3085 5.525 15.3085 4.76169C15.3085 3.99838 14.689 3.37889 13.9257 3.37889H12.5471V1.99608C12.5471 1.23278 11.9276 0.613281 11.1643 0.613281C10.4023 0.613281 9.78146 1.23278 9.78146 1.99608V3.37889Z" fill="#25CA6C"/>
</svg>
