<svg width="35" height="27" viewBox="0 0 35 27" fill="none" xmlns="http://www.w3.org/2000/svg">
<path d="M0.644531 0.628834L0.644531 4.33058C0.644531 4.58613 0.851697 4.7933 1.10725 4.7933H24.7059C27.8232 4.7933 30.2585 7.28736 30.2585 10.3459L30.2548 10.5451C30.1496 13.3927 27.7991 15.8985 24.7059 15.8985L12.6752 15.8985L12.6752 10.8086C12.6752 10.4391 12.2633 10.2186 11.9558 10.4236L0.85058 17.8271C0.575849 18.0103 0.575849 18.414 0.85058 18.5971L11.9558 26.0006L12.0231 26.0381C12.3201 26.1734 12.6752 25.9588 12.6752 25.6156V20.5257H24.7059C30.4708 20.5257 34.8857 15.7967 34.8857 10.3459C34.8857 4.79131 30.3855 0.166117 24.7059 0.166117H1.10725C0.851697 0.166117 0.644531 0.373281 0.644531 0.628834Z" fill="#6C9082"/>
</svg>
