<svg width="47" height="47" viewBox="0 0 47 47" fill="none" xmlns="http://www.w3.org/2000/svg">
<g filter="url(#filter0_d_4832_107487)">
<path d="M26.8102 17.849C27.5671 18.7553 27.5203 20.1049 26.6691 20.956C26.219 21.4061 25.6286 21.6316 25.0382 21.6316C24.5106 21.6316 23.983 21.4514 23.5552 21.0918C22.6488 21.8547 21.2946 21.8087 20.4412 20.956C19.9911 20.5059 19.7656 19.9155 19.7656 19.325C19.7656 18.7998 19.9435 18.2753 20.3001 17.849C20.3438 17.7953 20.3913 17.7439 20.4412 17.6941L23.5552 14.5801L26.6691 17.6941C26.719 17.7439 26.7665 17.7953 26.8102 17.849Z" fill="#353575"/>
<path d="M41.7115 14.7188C42.1233 16.2646 42.3426 17.8895 42.3426 19.5649C42.3426 21.2289 42.1264 22.843 41.72 24.3789L41.7123 24.3782L35.4414 23.1965V16.2953L41.6157 14.7387L41.7115 14.7188Z" fill="#353575"/>
<path d="M27.1936 31.4492L28.7502 37.6235C27.1008 38.0966 25.3586 38.3504 23.5566 38.3504C22.0199 38.3504 20.527 38.1664 19.0977 37.8175L19.1107 37.7201L20.2923 31.4492H27.1936Z" fill="#353575"/>
<path d="M11.6668 16.2953V23.1965L5.39594 24.3782L5.38827 24.3789C4.98186 22.843 4.76562 21.2289 4.76562 19.5649C4.76562 17.8895 4.98493 16.2646 5.3967 14.7188L5.49255 14.7387L11.6668 16.2953Z" fill="#353575"/>
<path d="M28.3828 1.40633L28.3821 1.40863L27.2004 7.67954H20.2992L18.7227 1.40556C18.7809 1.38946 18.84 1.37413 18.8983 1.35956C20.3866 0.979989 21.9455 0.77832 23.552 0.77832C25.2221 0.77832 26.8416 0.996092 28.3828 1.40633Z" fill="#353575"/>
<path d="M4 19.5644C4 30.3725 12.7468 39.1178 23.5534 39.1178C34.3616 39.1178 43.1069 30.371 43.1069 19.5644C43.1069 8.4991 34.0378 -0.0140152 23.5528 1.73225e-05C12.8979 0.0142798 4 8.63444 4 19.5644ZM36.2057 16.8922C36.2058 16.8921 36.2062 16.892 36.2065 16.892C36.209 16.8914 36.2078 16.8917 36.2081 16.8916C36.2083 16.8915 36.2085 16.8914 36.2087 16.8914H36.2086C37.8137 16.4878 38.7289 16.2576 41.145 15.65C41.7125 18.2081 41.7211 20.8913 41.1414 23.4902L36.2057 22.5602V16.8922ZM27.4976 1.9687L26.5661 6.91212H20.8986L19.6558 1.96717C22.3527 1.36807 25.0118 1.40679 27.4976 1.9687ZM10.8983 16.8914C10.8982 16.8914 10.8982 16.8914 10.8983 16.8914C10.8982 16.8914 10.8993 16.8917 10.8995 16.8917C10.8998 16.8918 10.9001 16.8919 10.9005 16.892C10.9008 16.892 10.9011 16.8921 10.9012 16.8922V22.5602L5.96554 23.4902C5.38691 20.8961 5.39351 18.2147 5.96156 15.65C11.1864 16.964 10.8459 16.8783 10.8983 16.8914ZM19.9843 37.2286C20.2735 35.6877 20.9041 32.3283 20.924 32.2219C20.9247 32.2181 20.9243 32.2203 20.925 32.2166H26.593L27.8174 37.0732C25.2559 37.6971 22.5732 37.7509 19.9843 37.2286ZM29.2916 36.6473L27.934 31.2623C27.8481 30.9217 27.5417 30.683 27.1904 30.683H20.2892C19.9204 30.683 19.6039 30.9455 19.5356 31.3078C19.2439 32.8563 18.745 35.4964 18.4905 36.859C12.7346 35.1712 8.16458 30.6825 6.36405 24.9753C7.8656 24.6941 10.8127 24.1369 11.81 23.9495C12.1723 23.8811 12.4347 23.5646 12.4347 23.1959V16.2947C12.4347 15.9434 12.196 15.637 11.8554 15.5511C8.65602 14.7451 7.11337 14.3555 6.35776 14.1649C8.09534 8.61688 12.452 4.14404 18.1737 2.362L19.557 7.86587C19.6426 8.20679 19.9491 8.44573 20.3006 8.44573H27.2018C27.5706 8.44573 27.8871 8.18325 27.9554 7.82094L28.982 2.37273C34.5073 4.135 38.9746 8.52593 40.7478 14.1653C39.993 14.3556 38.4516 14.745 35.2513 15.5512C34.9107 15.6371 34.672 15.9435 34.672 16.2948V23.196C34.672 23.5648 34.9345 23.8813 35.2968 23.9495C38.3582 24.5259 39.9305 24.8227 40.7425 24.9759C39.013 30.4579 34.7283 34.8164 29.2916 36.6473Z" fill="#353575"/>
<path d="M23.5532 10.3623C18.4794 10.3623 14.3516 14.4902 14.3516 19.5639C14.3516 24.6377 18.4794 28.7656 23.5532 28.7656C28.627 28.7656 32.7548 24.6377 32.7548 19.5639C32.7548 14.4902 28.627 10.3623 23.5532 10.3623ZM23.5532 27.2319C19.325 27.2319 15.8852 23.7921 15.8852 19.5639C15.8852 15.3358 19.325 11.8959 23.5532 11.8959C27.7813 11.8959 31.2212 15.3358 31.2212 19.5639C31.2212 23.7921 27.7813 27.2319 23.5532 27.2319Z" fill="#353575"/>
<path d="M24.0987 14.0381C23.7992 13.7386 23.3137 13.7386 23.0142 14.0381L19.9002 17.152C18.7147 18.3383 18.6853 20.2835 19.9002 21.4985C20.6722 22.2704 21.7799 22.5466 22.7896 22.3095V23.782H21.8788C21.4553 23.782 21.112 24.1253 21.112 24.5488C21.112 24.9723 21.4553 25.3156 21.8788 25.3156C22.9293 25.3156 24.1566 25.3156 25.234 25.3156C25.6575 25.3156 26.0008 24.9723 26.0008 24.5488C26.0008 24.1253 25.6575 23.782 25.234 23.782H24.3232V22.3128C27.1863 22.9991 29.2938 19.6258 27.4028 17.3606C27.2483 17.1735 27.41 17.3556 24.0987 14.0381ZM25.0394 20.8651C24.6917 20.8651 24.3438 20.7493 24.0471 20.5031C23.7591 20.2629 23.3428 20.2695 23.0628 20.5054C22.4578 21.0146 21.5449 20.9744 20.9847 20.4141C20.413 19.8424 20.3876 18.9421 20.892 18.3377C20.968 18.2459 20.8695 18.3546 23.5565 15.6647L26.1283 18.2365C27.1175 19.2247 26.3841 20.8651 25.0394 20.8651Z" fill="#353575"/>
<path d="M16.2688 9.97912C16.2688 8.71067 15.2368 7.67871 13.9684 7.67871C12.6999 7.67871 11.668 8.71067 11.668 9.97912C11.668 11.2476 12.6999 12.2795 13.9684 12.2795C15.2368 12.2795 16.2688 11.2476 16.2688 9.97912ZM13.2016 9.97912C13.2016 9.5563 13.5456 9.21231 13.9684 9.21231C14.3912 9.21231 14.7352 9.5563 14.7352 9.97912C14.7352 10.4019 14.3912 10.7459 13.9684 10.7459C13.5456 10.7459 13.2016 10.4019 13.2016 9.97912Z" fill="#353575"/>
<path d="M33.1363 12.2795C34.4048 12.2795 35.4367 11.2476 35.4367 9.97912C35.4367 8.71067 34.4048 7.67871 33.1363 7.67871C31.8679 7.67871 30.8359 8.71067 30.8359 9.97912C30.8359 11.2476 31.8679 12.2795 33.1363 12.2795ZM33.1363 9.21231C33.5592 9.21231 33.9031 9.5563 33.9031 9.97912C33.9031 10.4019 33.5592 10.7459 33.1363 10.7459C32.7135 10.7459 32.3695 10.4019 32.3695 9.97912C32.3695 9.5563 32.7135 9.21231 33.1363 9.21231Z" fill="#353575"/>
<path d="M33.1363 26.8496C31.8679 26.8496 30.8359 27.8816 30.8359 29.15C30.8359 30.4185 31.8679 31.4504 33.1363 31.4504C34.4048 31.4504 35.4367 30.4185 35.4367 29.15C35.4367 27.8816 34.4048 26.8496 33.1363 26.8496ZM33.1363 29.9168C32.7135 29.9168 32.3695 29.5728 32.3695 29.15C32.3695 28.7272 32.7135 28.3832 33.1363 28.3832C33.5592 28.3832 33.9031 28.7272 33.9031 29.15C33.9031 29.5728 33.5592 29.9168 33.1363 29.9168Z" fill="#353575"/>
<path d="M13.9684 26.8496C12.6999 26.8496 11.668 27.8816 11.668 29.15C11.668 30.4185 12.6999 31.4504 13.9684 31.4504C15.2368 31.4504 16.2688 30.4185 16.2688 29.15C16.2688 27.8816 15.2368 26.8496 13.9684 26.8496ZM13.9684 29.9168C13.5456 29.9168 13.2016 29.5728 13.2016 29.15C13.2016 28.7272 13.5456 28.3832 13.9684 28.3832C14.3912 28.3832 14.7352 28.7272 14.7352 29.15C14.7352 29.5728 14.3912 29.9168 13.9684 29.9168Z" fill="#353575"/>
</g>
<defs>
<filter id="filter0_d_4832_107487" x="0.298256" y="0" width="46.509" height="46.5217" filterUnits="userSpaceOnUse" color-interpolation-filters="sRGB">
<feFlood flood-opacity="0" result="BackgroundImageFix"/>
<feColorMatrix in="SourceAlpha" type="matrix" values="0 0 0 0 0 0 0 0 0 0 0 0 0 0 0 0 0 0 127 0" result="hardAlpha"/>
<feOffset dy="3.70174"/>
<feGaussianBlur stdDeviation="1.85087"/>
<feComposite in2="hardAlpha" operator="out"/>
<feColorMatrix type="matrix" values="0 0 0 0 0 0 0 0 0 0 0 0 0 0 0 0 0 0 0.25 0"/>
<feBlend mode="normal" in2="BackgroundImageFix" result="effect1_dropShadow_4832_107487"/>
<feBlend mode="normal" in="SourceGraphic" in2="effect1_dropShadow_4832_107487" result="shape"/>
</filter>
</defs>
</svg>
