<svg width="30" height="32" viewBox="0 0 30 32" fill="none" xmlns="http://www.w3.org/2000/svg">
<path d="M23.3333 3.2H26.6667C27.5507 3.2 28.3986 3.53714 29.0237 4.13726C29.6488 4.73737 30 5.55131 30 6.4V28.8C30 29.6487 29.6488 30.4626 29.0237 31.0627C28.3986 31.6629 27.5507 32 26.6667 32H3.33333C2.44928 32 1.60143 31.6629 0.976311 31.0627C0.351189 30.4626 0 29.6487 0 28.8V6.4C0 4.64 1.5 3.2 3.33333 3.2H6.66667V1.6C6.66667 1.17565 6.84226 0.768687 7.15482 0.468629C7.46738 0.168571 7.89131 0 8.33333 0C8.77536 0 9.19928 0.168571 9.51184 0.468629C9.8244 0.768687 10 1.17565 10 1.6V3.2H20V1.6C20 1.17565 20.1756 0.768687 20.4882 0.468629C20.8007 0.168571 21.2246 0 21.6667 0C22.1087 0 22.5326 0.168571 22.8452 0.468629C23.1577 0.768687 23.3333 1.17565 23.3333 1.6V3.2ZM20 6.4H10V8C10 8.42435 9.8244 8.83131 9.51184 9.13137C9.19928 9.43143 8.77536 9.6 8.33333 9.6C7.89131 9.6 7.46738 9.43143 7.15482 9.13137C6.84226 8.83131 6.66667 8.42435 6.66667 8V6.4H3.33333V12.8H26.6667V6.4H23.3333V8C23.3333 8.42435 23.1577 8.83131 22.8452 9.13137C22.5326 9.43143 22.1087 9.6 21.6667 9.6C21.2246 9.6 20.8007 9.43143 20.4882 9.13137C20.1756 8.83131 20 8.42435 20 8V6.4ZM26.6667 16H3.33333V28.8H26.6667V16Z" fill="#FDB72E"/>
</svg>
