<svg width="39" height="39" viewBox="0 0 39 39" fill="none" xmlns="http://www.w3.org/2000/svg">
<path d="M19.5 0C15.6433 0 11.8731 1.14365 8.66639 3.28634C5.45963 5.42903 2.96027 8.47451 1.48436 12.0377C0.00844902 15.6008 -0.377716 19.5216 0.374696 23.3043C1.12711 27.0869 2.9843 30.5615 5.71142 33.2886C8.43855 36.0157 11.9131 37.8729 15.6957 38.6253C19.4784 39.3777 23.3992 38.9916 26.9623 37.5156C30.5255 36.0397 33.571 33.5404 35.7137 30.3336C37.8563 27.1269 39 23.3567 39 19.5C39 14.3283 36.9455 9.36837 33.2886 5.71142C29.6316 2.05446 24.6717 0 19.5 0ZM8.35715 22.2857C7.80619 22.2857 7.2676 22.1223 6.80949 21.8162C6.35138 21.5101 5.99433 21.0751 5.78349 20.566C5.57264 20.057 5.51748 19.4969 5.62496 18.9565C5.73245 18.4162 5.99776 17.9198 6.38735 17.5302C6.77694 17.1406 7.27331 16.8753 7.81368 16.7678C8.35406 16.6603 8.91417 16.7155 9.4232 16.9263C9.93222 17.1372 10.3673 17.4942 10.6734 17.9523C10.9795 18.4104 11.1429 18.949 11.1429 19.5C11.1429 20.2388 10.8494 20.9474 10.3269 21.4698C9.80452 21.9922 9.09597 22.2857 8.35715 22.2857ZM19.5 22.2857C18.949 22.2857 18.4105 22.1223 17.9523 21.8162C17.4942 21.5101 17.1372 21.0751 16.9263 20.566C16.7155 20.057 16.6603 19.4969 16.7678 18.9565C16.8753 18.4162 17.1406 17.9198 17.5302 17.5302C17.9198 17.1406 18.4162 16.8753 18.9565 16.7678C19.4969 16.6603 20.057 16.7155 20.5661 16.9263C21.0751 17.1372 21.5101 17.4942 21.8162 17.9523C22.1223 18.4104 22.2857 18.949 22.2857 19.5C22.2857 20.2388 21.9922 20.9474 21.4698 21.4698C20.9474 21.9922 20.2388 22.2857 19.5 22.2857ZM30.6429 22.2857C30.0919 22.2857 29.5533 22.1223 29.0952 21.8162C28.6371 21.5101 28.28 21.0751 28.0692 20.566C27.8584 20.057 27.8032 19.4969 27.9107 18.9565C28.0182 18.4162 28.2835 17.9198 28.6731 17.5302C29.0627 17.1406 29.559 16.8753 30.0994 16.7678C30.6398 16.6603 31.1999 16.7155 31.7089 16.9263C32.2179 17.1372 32.653 17.4942 32.9591 17.9523C33.2652 18.4104 33.4286 18.949 33.4286 19.5C33.4286 20.2388 33.1351 20.9474 32.6127 21.4698C32.0902 21.9922 31.3817 22.2857 30.6429 22.2857Z" fill="#1BD0E7"/>
</svg>
