<svg width="78" height="78" viewBox="0 0 78 78" fill="none" xmlns="http://www.w3.org/2000/svg">
<g filter="url(#filter0_d_52_1749)">
<circle cx="39" cy="35" r="35" fill="#FCE323" fill-opacity="0.6" shape-rendering="crispEdges"/>
</g>
<path d="M55.1693 39.2767C55.0077 38.469 54.5231 37.769 53.8231 37.3921C52.8 36.7998 51.4539 37.0152 50.5923 37.8767L47.2 41.269C47.0385 40.0306 45.9616 39.0075 44.6692 39.0075H38.9077C36.2154 36.5306 32.1231 36.4229 29.2154 38.5767C28.8385 37.7152 27.9769 37.1229 27.0077 37.1229H22.5923C22.2692 37.1229 22 37.3921 22 37.7152V49.8844C22 50.2075 22.2692 50.4767 22.5923 50.4767H27.0077C27.9769 50.4767 28.8385 49.8844 29.2154 49.0229L30.6692 49.9383C31.2615 50.3152 31.9077 50.4767 32.5539 50.4767H44.7769C45.8 50.4767 46.7692 50.046 47.4154 49.2921L54.4693 41.4306C55.0616 40.8921 55.2769 40.0844 55.1693 39.2767ZM28.1923 48.1075C28.1923 48.7536 27.6538 49.3459 26.9538 49.3459H23.1846V38.4152H26.9538C27.6 38.4152 28.1923 38.9536 28.1923 39.6536V48.1075ZM53.6077 40.7306L46.5539 48.5921C46.1231 49.0767 45.4769 49.3998 44.7769 49.3998H32.5539C32.1231 49.3998 31.6923 49.2921 31.3154 49.0229L29.4308 47.8383V40.0306C31.9077 37.7152 35.7846 37.7152 38.2616 40.0844C38.3692 40.1921 38.5308 40.2459 38.6923 40.2459H44.7231C45.4769 40.2459 46.0692 40.8382 46.0692 41.5921C46.0692 42.3459 45.4769 42.9383 44.7231 42.9383H37.7231C37.4 42.9383 37.1308 43.2075 37.1308 43.5306C37.1308 43.8536 37.4 44.1229 37.7231 44.1229H45.8539C46.0154 44.1229 46.1769 44.069 46.2846 43.9613L51.5077 38.6844C51.9923 38.1998 52.6923 38.0921 53.2846 38.4152C53.6616 38.6306 53.9308 39.0075 54.0385 39.4382C54.0385 39.9229 53.9308 40.3536 53.6077 40.7306Z" fill="white"/>
<path d="M32.1232 28.4536L33.2001 28.6151C33.3078 28.8305 33.3616 29.0998 33.4693 29.3151L32.8232 30.1767C32.6616 30.3921 32.6616 30.769 32.877 30.9844L34.3309 32.4382C34.5462 32.6536 34.8693 32.6536 35.1385 32.4921L36.0001 31.8459C36.2155 31.9536 36.4847 32.0613 36.7001 32.1151V32.169V33.4613C36.7001 33.7844 36.9693 34.0536 37.2924 34.0536H39.6616C39.9847 34.0536 40.2539 33.7844 40.2539 33.4613V32.169V32.1151C40.4693 32.0075 40.7385 31.9536 40.9539 31.8459L41.8155 32.4921C42.0309 32.6536 42.4078 32.6536 42.6232 32.4382L44.077 30.9844C44.2924 30.769 44.2924 30.4459 44.1309 30.1767L43.4847 29.3151C43.5924 29.0998 43.7001 28.8305 43.7539 28.6151L44.8309 28.4536C45.1001 28.3998 45.3155 28.1305 45.3155 27.8613V25.8151C45.3155 25.4921 45.1001 25.2767 44.8309 25.2228L43.7539 25.0613C43.7001 24.8459 43.5924 24.5767 43.4847 24.3613L44.1309 23.4998C44.2924 23.2844 44.2924 22.9075 44.077 22.6921L42.6232 21.2382C42.4078 21.0228 42.0847 21.0228 41.8155 21.1844L40.9539 21.8305C40.7385 21.7228 40.4693 21.6151 40.2539 21.5613L40.0924 20.4844C40.0385 20.2151 39.7693 19.9998 39.5001 19.9998H37.5078C37.1847 19.9998 36.9693 20.2151 36.9155 20.4844L36.7539 21.5613C36.5385 21.669 36.2693 21.7228 36.0539 21.8305L35.1924 21.1844C34.977 21.0228 34.6001 21.0228 34.3847 21.2382L32.9309 22.6921C32.7155 22.9075 32.7155 23.2305 32.877 23.4998L33.5232 24.3613C33.4155 24.5767 33.3078 24.8459 33.2539 25.0613L32.177 25.2228C31.9078 25.2767 31.6924 25.5459 31.6924 25.8151V27.8613C31.6385 28.1844 31.8539 28.4536 32.1232 28.4536ZM39.1232 32.9228H37.9385V32.169V28.9382C37.9385 28.7228 37.8309 28.5075 37.6155 28.3998C36.9693 28.0767 36.5924 27.3767 36.5924 26.6767C36.5924 26.2998 36.7001 25.9767 36.8616 25.6536V26.0844C36.8616 26.9998 37.6155 27.7536 38.5309 27.7536C39.4462 27.7536 40.2001 26.9998 40.2001 26.0844V25.6536C40.3616 25.9767 40.4693 26.2998 40.4693 26.6767C40.4693 27.3767 40.0924 28.0767 39.3924 28.3998C39.177 28.5075 39.0693 28.7228 39.0693 28.9382V32.169V32.9228H39.1232ZM32.8232 26.2998L33.7385 26.1921C33.9539 26.1382 34.1693 25.9767 34.2232 25.7613C34.3309 25.3844 34.4924 25.0075 34.7078 24.6305C34.8155 24.4151 34.8155 24.1459 34.6539 23.9844L34.1155 23.2305L34.8693 22.4767L35.6232 23.0151C35.8385 23.1767 36.0539 23.1767 36.2693 23.069C36.6462 22.8536 37.0232 22.6921 37.4001 22.5844C37.6155 22.5305 37.8309 22.3151 37.8309 22.0998L37.9924 21.1844H39.0155L39.177 22.0998C39.2309 22.3151 39.3924 22.5305 39.6078 22.5844C39.9847 22.6921 40.3616 22.8536 40.7385 23.069C40.9539 23.1767 41.2232 23.1767 41.3847 23.0151L42.1385 22.4767L42.8924 23.2305L42.3539 23.9844C42.1924 24.1998 42.1924 24.4151 42.3001 24.6305C42.5155 25.0075 42.677 25.3844 42.7847 25.7613C42.8385 25.9767 43.0539 26.1921 43.2693 26.1921L44.1847 26.3536V27.3767L43.2693 27.5382C43.0539 27.5921 42.8385 27.7536 42.7847 27.969C42.677 28.3459 42.5155 28.7228 42.3001 29.0998C42.1924 29.3151 42.1924 29.5844 42.3539 29.7459L42.8924 30.4998L42.1385 31.2536L41.3847 30.7151C41.1693 30.5536 40.9539 30.5536 40.7385 30.6613C40.577 30.769 40.4693 30.8228 40.3078 30.8767V29.2613C41.1693 28.669 41.6539 27.6998 41.6539 26.6767C41.6539 25.4382 40.9539 24.3075 39.8232 23.8228C39.6616 23.7151 39.3924 23.769 39.2309 23.8767C39.0693 23.9844 38.9616 24.1998 38.9616 24.3613V26.0844C38.9616 26.3536 38.7462 26.569 38.477 26.569C38.2078 26.569 37.9924 26.3536 37.9924 26.0844V24.3613C37.9924 24.1459 37.8847 23.9844 37.7232 23.8767C37.5616 23.769 37.3462 23.769 37.1309 23.8228C36.0001 24.3613 35.3001 25.4382 35.3001 26.6767C35.3001 27.6998 35.8385 28.669 36.6462 29.2613V30.8767C36.4847 30.8228 36.3232 30.7151 36.2155 30.6613C36.0001 30.5536 35.7309 30.5536 35.5693 30.7151L34.8155 31.2536L34.1155 30.4998L34.6539 29.7459C34.8155 29.5305 34.8155 29.3151 34.7078 29.0998C34.4924 28.7228 34.3309 28.3459 34.2232 27.969C34.1693 27.7536 33.9539 27.5382 33.7385 27.5382L32.8232 27.3767V26.2998Z" fill="white"/>
<defs>
<filter id="filter0_d_52_1749" x="0" y="0" width="78" height="78" filterUnits="userSpaceOnUse" color-interpolation-filters="sRGB">
<feFlood flood-opacity="0" result="BackgroundImageFix"/>
<feColorMatrix in="SourceAlpha" type="matrix" values="0 0 0 0 0 0 0 0 0 0 0 0 0 0 0 0 0 0 127 0" result="hardAlpha"/>
<feOffset dy="4"/>
<feGaussianBlur stdDeviation="2"/>
<feComposite in2="hardAlpha" operator="out"/>
<feColorMatrix type="matrix" values="0 0 0 0 0 0 0 0 0 0 0 0 0 0 0 0 0 0 0.25 0"/>
<feBlend mode="normal" in2="BackgroundImageFix" result="effect1_dropShadow_52_1749"/>
<feBlend mode="normal" in="SourceGraphic" in2="effect1_dropShadow_52_1749" result="shape"/>
</filter>
</defs>
</svg>
