<svg width="78" height="78" viewBox="0 0 78 78" fill="none" xmlns="http://www.w3.org/2000/svg">
<g filter="url(#filter0_d_52_1746)">
<circle cx="39" cy="35" r="35" fill="#00A30B" fill-opacity="0.6" shape-rendering="crispEdges"/>
</g>
<path d="M49 22.5H47.75V21.25C47.75 20.9185 47.6183 20.6005 47.3839 20.3661C47.1495 20.1317 46.8315 20 46.5 20C46.1685 20 45.8505 20.1317 45.6161 20.3661C45.3817 20.6005 45.25 20.9185 45.25 21.25V22.5H32.75V21.25C32.75 20.9185 32.6183 20.6005 32.3839 20.3661C32.1495 20.1317 31.8315 20 31.5 20C31.1685 20 30.8505 20.1317 30.6161 20.3661C30.3817 20.6005 30.25 20.9185 30.25 21.25V22.5H29C27.6739 22.5 26.4021 23.0268 25.4645 23.9645C24.5268 24.9021 24 26.1739 24 27.5V45C24 46.3261 24.5268 47.5979 25.4645 48.5355C26.4021 49.4732 27.6739 50 29 50H49C50.3261 50 51.5979 49.4732 52.5355 48.5355C53.4732 47.5979 54 46.3261 54 45V27.5C54 26.1739 53.4732 24.9021 52.5355 23.9645C51.5979 23.0268 50.3261 22.5 49 22.5ZM51.5 45C51.5 45.663 51.2366 46.2989 50.7678 46.7678C50.2989 47.2366 49.663 47.5 49 47.5H29C28.337 47.5 27.7011 47.2366 27.2322 46.7678C26.7634 46.2989 26.5 45.663 26.5 45V27.5C26.5 26.837 26.7634 26.2011 27.2322 25.7322C27.7011 25.2634 28.337 25 29 25H30.25V26.25C30.25 26.5815 30.3817 26.8995 30.6161 27.1339C30.8505 27.3683 31.1685 27.5 31.5 27.5C31.8315 27.5 32.1495 27.3683 32.3839 27.1339C32.6183 26.8995 32.75 26.5815 32.75 26.25V25H45.25V26.25C45.25 26.5815 45.3817 26.8995 45.6161 27.1339C45.8505 27.3683 46.1685 27.5 46.5 27.5C46.8315 27.5 47.1495 27.3683 47.3839 27.1339C47.6183 26.8995 47.75 26.5815 47.75 26.25V25H49C49.663 25 50.2989 25.2634 50.7678 25.7322C51.2366 26.2011 51.5 26.837 51.5 27.5V45Z" fill="white"/>
<path d="M47.75 28.75H30.25C29.9185 28.75 29.6005 28.8817 29.3661 29.1161C29.1317 29.3505 29 29.6685 29 30C29 30.3315 29.1317 30.6495 29.3661 30.8839C29.6005 31.1183 29.9185 31.25 30.25 31.25H47.75C48.0815 31.25 48.3995 31.1183 48.6339 30.8839C48.8683 30.6495 49 30.3315 49 30C49 29.6685 48.8683 29.3505 48.6339 29.1161C48.3995 28.8817 48.0815 28.75 47.75 28.75Z" fill="white"/>
<path d="M32.75 35H30.25C29.9185 35 29.6005 35.1317 29.3661 35.3661C29.1317 35.6005 29 35.9185 29 36.25C29 36.5815 29.1317 36.8995 29.3661 37.1339C29.6005 37.3683 29.9185 37.5 30.25 37.5H32.75C33.0815 37.5 33.3995 37.3683 33.6339 37.1339C33.8683 36.8995 34 36.5815 34 36.25C34 35.9185 33.8683 35.6005 33.6339 35.3661C33.3995 35.1317 33.0815 35 32.75 35Z" fill="white"/>
<path d="M32.75 41.25H30.25C29.9185 41.25 29.6005 41.3817 29.3661 41.6161C29.1317 41.8505 29 42.1685 29 42.5C29 42.8315 29.1317 43.1495 29.3661 43.3839C29.6005 43.6183 29.9185 43.75 30.25 43.75H32.75C33.0815 43.75 33.3995 43.6183 33.6339 43.3839C33.8683 43.1495 34 42.8315 34 42.5C34 42.1685 33.8683 41.8505 33.6339 41.6161C33.3995 41.3817 33.0815 41.25 32.75 41.25Z" fill="white"/>
<path d="M40.25 35H37.75C37.4185 35 37.1005 35.1317 36.8661 35.3661C36.6317 35.6005 36.5 35.9185 36.5 36.25C36.5 36.5815 36.6317 36.8995 36.8661 37.1339C37.1005 37.3683 37.4185 37.5 37.75 37.5H40.25C40.5815 37.5 40.8995 37.3683 41.1339 37.1339C41.3683 36.8995 41.5 36.5815 41.5 36.25C41.5 35.9185 41.3683 35.6005 41.1339 35.3661C40.8995 35.1317 40.5815 35 40.25 35Z" fill="white"/>
<path d="M40.25 41.25H37.75C37.4185 41.25 37.1005 41.3817 36.8661 41.6161C36.6317 41.8505 36.5 42.1685 36.5 42.5C36.5 42.8315 36.6317 43.1495 36.8661 43.3839C37.1005 43.6183 37.4185 43.75 37.75 43.75H40.25C40.5815 43.75 40.8995 43.6183 41.1339 43.3839C41.3683 43.1495 41.5 42.8315 41.5 42.5C41.5 42.1685 41.3683 41.8505 41.1339 41.6161C40.8995 41.3817 40.5815 41.25 40.25 41.25Z" fill="white"/>
<path d="M47.75 35H45.25C44.9185 35 44.6005 35.1317 44.3661 35.3661C44.1317 35.6005 44 35.9185 44 36.25C44 36.5815 44.1317 36.8995 44.3661 37.1339C44.6005 37.3683 44.9185 37.5 45.25 37.5H47.75C48.0815 37.5 48.3995 37.3683 48.6339 37.1339C48.8683 36.8995 49 36.5815 49 36.25C49 35.9185 48.8683 35.6005 48.6339 35.3661C48.3995 35.1317 48.0815 35 47.75 35Z" fill="white"/>
<path d="M47.75 41.25H45.25C44.9185 41.25 44.6005 41.3817 44.3661 41.6161C44.1317 41.8505 44 42.1685 44 42.5C44 42.8315 44.1317 43.1495 44.3661 43.3839C44.6005 43.6183 44.9185 43.75 45.25 43.75H47.75C48.0815 43.75 48.3995 43.6183 48.6339 43.3839C48.8683 43.1495 49 42.8315 49 42.5C49 42.1685 48.8683 41.8505 48.6339 41.6161C48.3995 41.3817 48.0815 41.25 47.75 41.25Z" fill="white"/>
<defs>
<filter id="filter0_d_52_1746" x="0" y="0" width="78" height="78" filterUnits="userSpaceOnUse" color-interpolation-filters="sRGB">
<feFlood flood-opacity="0" result="BackgroundImageFix"/>
<feColorMatrix in="SourceAlpha" type="matrix" values="0 0 0 0 0 0 0 0 0 0 0 0 0 0 0 0 0 0 127 0" result="hardAlpha"/>
<feOffset dy="4"/>
<feGaussianBlur stdDeviation="2"/>
<feComposite in2="hardAlpha" operator="out"/>
<feColorMatrix type="matrix" values="0 0 0 0 0 0 0 0 0 0 0 0 0 0 0 0 0 0 0.25 0"/>
<feBlend mode="normal" in2="BackgroundImageFix" result="effect1_dropShadow_52_1746"/>
<feBlend mode="normal" in="SourceGraphic" in2="effect1_dropShadow_52_1746" result="shape"/>
</filter>
</defs>
</svg>
