<svg width="29" height="27" viewBox="0 0 29 27" fill="none" xmlns="http://www.w3.org/2000/svg">
<path d="M28.0861 4.07187C28.4873 4.07187 28.8068 4.3962 28.8068 4.79639V26.1179C28.8068 26.516 28.4838 26.8386 28.0861 26.8386H5.0618C4.66405 26.8386 4.34111 26.516 4.34111 26.1179V22.3095H0.721284C0.221566 22.3095 -0.121556 21.8143 0.0406092 21.3508C1.48269 15.7714 2.92443 10.1917 4.36651 4.6123C4.45038 4.28832 4.74235 4.07361 5.0618 4.07396L10.7578 4.07187V0.71095C10.7578 -0.236983 12.1991 -0.236983 12.1991 0.71095V4.07187H20.9487V0.71095C20.9487 -0.236983 22.3901 -0.236983 22.3901 0.71095V4.07187H28.0861ZM8.31728 12.1655C7.36935 12.1655 7.36935 10.7241 8.31728 10.7241H10.5347C11.4826 10.7241 11.4826 12.1655 10.5347 12.1655H8.31728ZM5.17977 18.1572C4.23184 18.1572 4.23184 16.7162 5.17977 16.7162H7.39719C8.34512 16.7162 8.34512 18.1572 7.39719 18.1572H5.17977ZM17.1636 18.1572C16.2157 18.1572 16.2157 16.7162 17.1636 16.7162H19.381C20.329 16.7162 20.329 18.1572 19.381 18.1572H17.1636ZM11.1715 18.1572C10.2236 18.1572 10.2236 16.7162 11.1715 16.7162H13.3889C14.3369 16.7162 14.3369 18.1572 13.3889 18.1572H11.1715ZM6.74853 15.1614C5.80059 15.1614 5.80059 13.7203 6.74853 13.7203H8.96594C9.91387 13.7203 9.91387 15.1614 8.96594 15.1614H6.74853ZM18.7324 15.1614C17.7844 15.1614 17.7844 13.7203 18.7324 13.7203H20.9498C21.8977 13.7203 21.8977 15.1614 20.9498 15.1614H18.7324ZM12.7403 15.1614C11.7923 15.1614 11.7923 13.7203 12.7403 13.7203H14.9577C15.9056 13.7203 15.9056 15.1614 14.9577 15.1614H12.7403ZM20.3011 12.1655C19.3532 12.1655 19.3532 10.7241 20.3011 10.7241H22.5185C23.4665 10.7241 23.4665 12.1655 22.5185 12.1655H20.3011ZM14.309 12.1655C13.3611 12.1655 13.3611 10.7241 14.309 10.7241H16.5268C17.4747 10.7241 17.4747 12.1655 16.5268 12.1655H14.309ZM5.06807 7.63845H26.6085L27.158 5.51291C19.9778 5.51291 12.7977 5.51291 5.61755 5.51291L5.06807 7.63845ZM26.2361 9.07984H4.69571L1.64938 20.8681H23.1898L26.2361 9.07984ZM5.7825 22.3095V25.3972H27.3654V10.4516L24.4409 21.7687C24.3566 22.0927 24.065 22.3074 23.7452 22.3071L5.7825 22.3095Z" fill="#CD3BAE"/>
</svg>
