<svg width="41" height="39" viewBox="0 0 41 39" fill="none" xmlns="http://www.w3.org/2000/svg">
<path d="M13.5546 0C9.40769 0 6.02344 3.38425 6.02344 7.53118C6.02344 11.6261 7.66981 16.189 9.93297 19.9076C11.0646 21.7669 12.3503 23.4164 13.764 24.6546C15.1777 25.893 16.7488 26.7942 18.5372 26.7942H23.2352C25.115 26.7942 26.6777 25.7427 28.0837 24.3831C29.4897 23.0235 30.7657 21.2434 31.8918 19.3023C34.142 15.4238 35.8037 11.0007 35.749 7.51809C35.7423 3.3768 32.3606 0 28.2178 0H13.5546ZM21.0073 5.06114C21.2661 5.06617 21.5201 5.13144 21.7495 5.2518C21.9789 5.37215 22.1772 5.54431 22.329 5.75471L24.0891 8.12988L27.0564 9.25203C27.2952 9.34282 27.5101 9.48728 27.6845 9.67433C27.859 9.86139 27.9885 10.0861 28.063 10.3312C28.1376 10.5763 28.1552 10.8352 28.1145 11.0882C28.0739 11.3413 27.9761 11.5816 27.8285 11.7908L26.1077 14.2216L25.9573 17.3852C25.9456 17.6432 25.8748 17.895 25.7503 18.1211C25.6258 18.3472 25.4511 18.5414 25.2396 18.6886C25.0281 18.8358 24.7856 18.9321 24.5311 18.9698C24.2765 19.0076 24.0167 18.9859 23.7718 18.9065L20.9648 18.0133L17.9059 18.8574C17.6591 18.9258 17.3999 18.9364 17.1484 18.8883C16.8968 18.8403 16.6597 18.7349 16.4552 18.5804C16.2506 18.4258 16.0842 18.2261 15.9688 17.9968C15.8533 17.7675 15.7919 17.5146 15.7892 17.2576L15.7662 14.2837L14.0356 11.6272C13.8964 11.4127 13.808 11.1691 13.7771 10.9149C13.7462 10.6608 13.7737 10.403 13.8573 10.1611C13.941 9.91928 14.0787 9.69983 14.2598 9.51958C14.441 9.33932 14.6608 9.20304 14.9025 9.12117L17.6932 8.16587L19.6856 5.69255C19.9204 5.39684 20.2478 5.18933 20.6147 5.10366C20.7435 5.07397 20.8752 5.05971 21.0073 5.06114Z" fill="#FF7878"/>
<path d="M13.0714 28.4634C10.9351 28.4634 9.16406 30.2468 9.16406 32.3831V34.6088C9.16406 36.7451 10.9351 38.5161 13.0714 38.5161H28.7008C30.8371 38.5161 32.6081 36.7451 32.6081 34.6088V32.3831C32.6081 30.2468 30.8371 28.4634 28.7008 28.4634H13.0714Z" fill="#FF7878"/>
<path d="M2.58748 5.01857C2.14438 5.01947 1.71968 5.1959 1.40636 5.50922C1.09303 5.82254 0.916606 6.24724 0.915697 6.69034C0.915697 10.9417 0.719401 14.0284 2.11637 16.5574C2.8148 17.8219 4.01152 18.8218 5.49264 19.3645C6.30453 19.6619 7.20908 19.8451 8.21788 19.9566C5.90604 15.9353 4.25926 11.1566 4.25926 6.83429C4.25926 6.20973 4.3385 5.60505 4.46865 5.01857H2.58748ZM37.3022 5.01857C37.4314 5.60101 37.5108 6.20112 37.5116 6.82121C37.5728 10.7161 35.7158 15.6611 33.1997 19.9991C34.4052 19.8977 35.4699 19.7074 36.4058 19.3645C37.887 18.8219 39.0803 17.8219 39.7788 16.5574C41.1757 14.0284 40.9926 10.9417 40.9926 6.69034C40.9921 6.47011 40.9482 6.25212 40.8635 6.04885C40.7787 5.84559 40.6546 5.66103 40.4984 5.50576C40.3423 5.35048 40.157 5.22752 39.9532 5.14393C39.7495 5.06033 39.5312 5.01773 39.311 5.01857H37.3022Z" fill="#FF7878"/>
</svg>
