<svg width="64" height="70" viewBox="0 0 64 70" fill="none" xmlns="http://www.w3.org/2000/svg">
<g filter="url(#filter0_d_3472_150577)">
<path d="M23.5181 27.9865C26.5841 27.9865 29.0695 25.5011 29.0695 22.4351C29.0695 19.3692 26.5841 16.8838 23.5181 16.8838C20.4522 16.8838 17.9668 19.3692 17.9668 22.4351C17.9668 25.5011 20.4522 27.9865 23.5181 27.9865Z" stroke="#CD3BAE" stroke-width="4" stroke-linecap="round" stroke-linejoin="round"/>
<path d="M40.108 44.5773C43.1739 44.5773 45.6593 42.0919 45.6593 39.026C45.6593 35.96 43.1739 33.4746 40.108 33.4746C37.0421 33.4746 34.5566 35.96 34.5566 39.026C34.5566 42.0919 37.0421 44.5773 40.108 44.5773Z" stroke="#CD3BAE" stroke-width="4" stroke-linecap="round" stroke-linejoin="round"/>
<path d="M24.2734 41.8948L39.3513 19.5662" stroke="#CD3BAE" stroke-width="4" stroke-linecap="round" stroke-linejoin="round"/>
<path d="M56.3711 30.7305C56.3711 25.8771 58.9642 20.2811 56.6977 16.3614C54.3573 12.3184 48.1357 11.7977 44.0928 9.45726C40.1731 7.1908 36.6679 2 31.813 2C26.958 2 23.4544 7.1908 19.5347 9.45726C15.4917 11.7977 9.27017 12.3123 6.92976 16.3614C4.66177 20.2811 7.2564 25.8771 7.2564 30.7305C7.2564 35.5838 4.66177 41.1783 6.92976 45.098C9.27017 49.1409 15.4917 49.6633 19.5347 52.0021C23.4544 54.2701 26.9596 59.4594 31.813 59.4594C36.6663 59.4594 40.1731 54.2701 44.0928 52.0021C48.1357 49.6633 54.3573 49.1409 56.6962 45.098C58.9642 41.1783 56.3711 35.5777 56.3711 30.7305Z" stroke="#CD3BAE" stroke-width="4" stroke-linecap="round" stroke-linejoin="round"/>
</g>
<defs>
<filter id="filter0_d_3472_150577" x="-0.000976562" y="0" width="63.6279" height="69.4595" filterUnits="userSpaceOnUse" color-interpolation-filters="sRGB">
<feFlood flood-opacity="0" result="BackgroundImageFix"/>
<feColorMatrix in="SourceAlpha" type="matrix" values="0 0 0 0 0 0 0 0 0 0 0 0 0 0 0 0 0 0 127 0" result="hardAlpha"/>
<feOffset dy="4"/>
<feGaussianBlur stdDeviation="2"/>
<feComposite in2="hardAlpha" operator="out"/>
<feColorMatrix type="matrix" values="0 0 0 0 0.610833 0 0 0 0 0.610833 0 0 0 0 0.610833 0 0 0 0.25 0"/>
<feBlend mode="normal" in2="BackgroundImageFix" result="effect1_dropShadow_3472_150577"/>
<feBlend mode="normal" in="SourceGraphic" in2="effect1_dropShadow_3472_150577" result="shape"/>
</filter>
</defs>
</svg>
