<svg width="41" height="41" viewBox="0 0 41 41" fill="none" xmlns="http://www.w3.org/2000/svg">
<path d="M19.2821 21.8613C19.4112 21.7648 19.515 21.6385 19.5847 21.4932C19.6544 21.3479 19.688 21.1879 19.6825 21.0269V20.5688C20.6883 20.4087 21.4634 20.0267 21.9935 19.4413C22.6117 18.7607 22.9545 18.0055 23.0081 17.2104C23.0461 16.7725 23.0224 16.3315 22.9377 15.9003C22.85 15.4075 22.664 14.9375 22.3907 14.5181C22.0766 14.065 21.6706 13.683 21.1992 13.397C20.7314 13.1093 20.2188 12.902 19.6825 12.7836V8.29927C19.7185 8.32009 19.7546 8.34171 19.7882 8.36494C20.0315 8.52839 20.25 8.72608 20.4368 8.95191C20.5948 9.14392 20.7164 9.36321 20.7956 9.59894C20.8777 9.85219 20.9314 10.1138 20.9557 10.3789C21.0182 10.9394 21.4306 11.2822 21.9695 11.2349C22.4196 11.1805 22.7511 10.849 22.8568 10.3485C22.8669 10.3 22.8715 10.2506 22.8704 10.2011C22.8416 9.05121 22.47 8.11269 21.7573 7.41441C21.1856 6.85119 20.4654 6.46234 19.6809 6.29332V5.69433C19.6821 5.53755 19.6484 5.38247 19.5822 5.24035C19.516 5.09823 19.4189 4.97265 19.2981 4.87273C18.8769 4.54201 18.3516 4.50998 17.8703 4.91677C17.7661 5.01721 17.6838 5.13817 17.6287 5.272C17.5736 5.40582 17.5468 5.54963 17.55 5.69433V6.18601C17.0941 6.24078 16.6462 6.34827 16.2151 6.50632C15.6471 6.7118 15.1276 7.0321 14.6888 7.44724C14.2755 7.84172 13.9514 8.32009 13.7383 8.85021C13.5231 9.40176 13.4408 9.99623 13.4981 10.5855C13.6246 11.6762 14.0882 12.577 14.8858 13.2705C15.5793 13.8495 16.4762 14.2211 17.5548 14.378V18.7142C16.8389 18.6197 16.2736 18.4179 15.8732 18.1128C15.3623 17.7261 15.0484 17.2656 14.9274 16.7691C14.865 16.2799 14.4766 15.9539 13.9665 15.9395C13.8235 15.9254 13.6792 15.945 13.5451 15.9967C13.4111 16.0484 13.291 16.1309 13.1946 16.2374C13.1091 16.3418 13.05 16.4651 13.0221 16.5971C12.9942 16.729 12.9984 16.8658 13.0344 16.9958C13.2514 18.1641 13.8552 19.0714 14.8298 19.6944C15.6057 20.1821 16.5234 20.4848 17.5628 20.5945V21.0213C17.5565 21.176 17.5853 21.3301 17.6472 21.472C17.709 21.6139 17.8023 21.7399 17.92 21.8405C18.1133 22.0004 18.3561 22.0884 18.607 22.0895C18.8506 22.0874 19.0872 22.0074 19.2821 21.8613ZM15.6289 11.1164C15.5546 10.9066 15.5056 10.6885 15.4832 10.467C15.4618 10.1581 15.5067 9.84824 15.615 9.55819C15.7233 9.26813 15.8924 9.00461 16.111 8.78535C16.4561 8.4266 16.9398 8.18877 17.5524 8.07345V12.4425C16.9661 12.3152 16.4243 12.0338 15.9829 11.6273C15.8287 11.4852 15.7078 11.3107 15.6289 11.1164ZM21.1103 17.1479C21.0999 17.281 21.0699 17.4119 21.0214 17.5363C20.9623 17.7143 20.8726 17.8807 20.7563 18.028C20.5832 18.2232 20.3741 18.3833 20.1405 18.4996C19.9958 18.576 19.8415 18.6325 19.6817 18.6678V14.7552C20.1029 14.9081 20.4248 15.1107 20.6426 15.359C20.9757 15.7449 21.1279 16.3255 21.1103 17.1343V17.1479Z" fill="#1C1CA7"/>
<path d="M33.2932 37.322H19.3212V33.9675C26.7212 37.0105 30.42 33.3205 31.9279 30.3896C34.1204 26.1287 35.5858 24.5039 35.5858 24.5039C24.4702 23.2226 20.6352 28.0009 19.3212 31.1439V25.6186C25.4519 25.1901 30.3119 20.0779 30.3119 13.8399C30.3119 7.3215 25.0091 2.01953 18.4908 2.01953C11.9724 2.01953 6.66882 7.3215 6.66882 13.8399C6.66882 20.0779 11.5304 25.1901 17.6611 25.6186V30.4096C16.3927 28.5158 13.3866 25.886 6.78974 27.4467C6.78974 27.4467 9.40509 30.6346 10.4942 32.0865C11.9187 33.9843 14.7447 35.0862 17.6611 33.5639V37.3236H6.24601C6.13494 37.3201 6.02432 37.339 5.9207 37.3791C5.81708 37.4193 5.72258 37.4798 5.6428 37.5571C5.56301 37.6345 5.49958 37.727 5.45626 37.8294C5.41295 37.9317 5.39062 38.0417 5.39062 38.1528C5.39062 38.2639 5.41295 38.3739 5.45626 38.4762C5.49958 38.5785 5.56301 38.6711 5.6428 38.7484C5.72258 38.8258 5.81708 38.8863 5.9207 38.9264C6.02432 38.9665 6.13494 38.9854 6.24601 38.982H33.2932C33.4043 38.9854 33.5149 38.9665 33.6185 38.9264C33.7221 38.8863 33.8166 38.8258 33.8964 38.7484C33.9762 38.6711 34.0396 38.5785 34.0829 38.4762C34.1262 38.3739 34.1486 38.2639 34.1486 38.1528C34.1486 38.0417 34.1262 37.9317 34.0829 37.8294C34.0396 37.727 33.9762 37.6345 33.8964 37.5571C33.8166 37.4798 33.7221 37.4193 33.6185 37.3791C33.5149 37.339 33.4043 37.3201 33.2932 37.3236V37.322ZM8.32804 13.8399C8.32804 11.83 8.92402 9.86532 10.0406 8.19421C11.1572 6.52309 12.7443 5.22061 14.6012 4.45148C16.458 3.68235 18.5012 3.48111 20.4724 3.87321C22.4437 4.26531 24.2543 5.23314 25.6755 6.6543C27.0967 8.07547 28.0645 9.88615 28.4566 11.8574C28.8487 13.8286 28.6475 15.8718 27.8783 17.7287C27.1092 19.5855 25.8067 21.1726 24.1356 22.2892C22.4645 23.4058 20.4998 24.0018 18.4899 24.0018C15.7955 23.9997 13.212 22.9283 11.3067 21.0231C9.40147 19.1178 8.33016 16.5343 8.32804 13.8399Z" fill="#1C1CA7"/>
</svg>
