<svg width="69" height="58" viewBox="0 0 69 58" fill="none" xmlns="http://www.w3.org/2000/svg">
<g clip-path="url(#clip0_3465_150397)" filter="url(#filter0_d_3465_150397)">
<path d="M51.5866 33.7454C50.579 33.3195 49.527 33.0023 48.449 32.7996C47.7207 32.6331 47.0044 32.4196 46.305 32.1605C45.8884 32.0183 45.5121 31.7818 45.2068 31.4703C44.9723 31.2 44.8509 30.8531 44.8669 30.499C44.8526 30.2423 44.9079 29.9866 45.0273 29.7576C45.1467 29.5287 45.3259 29.3347 45.5467 29.1953C46.1146 28.8649 46.7692 28.7049 47.4293 28.7352C48.0721 28.712 48.7079 28.8718 49.2596 29.1953C49.4784 29.3164 49.6685 29.4816 49.8172 29.6799C49.966 29.8782 50.07 30.1051 50.1224 30.3456C50.1719 30.4663 50.2594 30.5684 50.3722 30.6374C50.485 30.7063 50.6172 30.7384 50.7499 30.729H52.8155C52.8783 30.7328 52.9412 30.7234 53 30.7016C53.0588 30.6798 53.1123 30.646 53.1568 30.6025C53.2012 30.559 53.2358 30.5068 53.2581 30.4493C53.2804 30.3918 53.2899 30.3303 53.2861 30.2689C53.2375 29.693 53.0395 29.1388 52.7109 28.6585C52.314 28.0666 51.787 27.5688 51.1683 27.2014C50.4275 26.7605 49.598 26.4815 48.7366 26.3834V24.8752C48.7404 24.8071 48.7295 24.739 48.7045 24.6753C48.6796 24.6116 48.6412 24.5538 48.5918 24.5055C48.5425 24.4573 48.4833 24.4198 48.4182 24.3954C48.353 24.371 48.2834 24.3603 48.2137 24.364H46.8541C46.7198 24.359 46.5887 24.4048 46.488 24.4918C46.4347 24.5405 46.3929 24.6001 46.3658 24.6664C46.3387 24.7327 46.3269 24.804 46.3311 24.8752V26.3579C45.0796 26.4524 43.8945 26.9464 42.9582 27.7638C42.5619 28.1211 42.2475 28.5564 42.0357 29.041C41.8239 29.5257 41.7195 30.0487 41.7293 30.5756C41.6962 31.1031 41.7875 31.6309 41.996 32.1184C42.2045 32.6059 42.5248 33.0401 42.9321 33.3875C44.0502 34.1843 45.3368 34.7258 46.6972 34.9724C47.7256 35.245 48.51 35.4751 49.0504 35.6626C49.4952 35.7978 49.9052 36.0244 50.2531 36.3272C50.3834 36.4539 50.4856 36.6056 50.5531 36.7728C50.6205 36.94 50.652 37.119 50.6453 37.2985C50.6521 37.5761 50.583 37.8503 50.4451 38.093C50.3072 38.3356 50.1055 38.5379 49.8609 38.6789C49.1687 39.0596 48.3789 39.2371 47.5862 39.1902C46.8474 39.2282 46.1128 39.0597 45.4683 38.7045C44.9893 38.4278 44.6275 37.9925 44.4486 37.4775C44.3835 37.359 44.2945 37.2547 44.1871 37.1707C44.059 37.1345 43.923 37.1345 43.7949 37.1707H41.8339C41.7714 37.1689 41.7092 37.1793 41.6508 37.2012C41.5924 37.2231 41.5391 37.2562 41.494 37.2985C41.4106 37.3798 41.3636 37.4902 41.3633 37.6053C41.3965 38.2633 41.6135 38.8999 41.9908 39.4458C42.4238 40.0628 43.0081 40.5638 43.6903 40.9028C44.5039 41.3147 45.3922 41.5665 46.305 41.6442V43.1268C46.3007 43.198 46.3126 43.2693 46.3397 43.3356C46.3668 43.4019 46.4085 43.4615 46.4619 43.5102C46.5626 43.5972 46.6936 43.643 46.8279 43.638H48.1875C48.2572 43.6417 48.3269 43.631 48.392 43.6066C48.4572 43.5822 48.5164 43.5447 48.5657 43.4965C48.615 43.4482 48.6534 43.3904 48.6784 43.3267C48.7033 43.263 48.7142 43.1949 48.7105 43.1268V41.6442C50.0562 41.5698 51.3449 41.0873 52.3971 40.2638C52.8419 39.8939 53.1952 39.4304 53.4306 38.908C53.6661 38.3856 53.7776 37.8179 53.7568 37.2474C53.7858 36.5195 53.5949 35.7993 53.2077 35.1769C52.8126 34.5628 52.2516 34.0674 51.5866 33.7454Z" fill="#CD3BAE"/>
<path d="M47.5864 16.9509H40.919V10.3814C40.919 10.0424 40.7812 9.71732 40.5361 9.47762C40.2909 9.23793 39.9584 9.10327 39.6117 9.10327H37.9906V2.27812C37.9906 1.93914 37.8528 1.61405 37.6077 1.37435C37.3625 1.13466 37.03 1 36.6832 1H5.30733C4.9606 1 4.62808 1.13466 4.38291 1.37435C4.13774 1.61405 4 1.93914 4 2.27812V10.1258C4 10.2936 4.03382 10.4598 4.09951 10.6149C4.16521 10.77 4.26151 10.9108 4.38291 11.0295C4.5043 11.1482 4.64842 11.2424 4.80704 11.3066C4.96565 11.3708 5.13565 11.4039 5.30733 11.4039H7.033V18.229C7.033 18.568 7.17074 18.8931 7.41591 19.1328C7.66108 19.3725 7.99361 19.5072 8.34033 19.5072H9.64766V24.8241H5.72568C5.37895 24.8241 5.04643 24.9588 4.80125 25.1985C4.55608 25.4382 4.41835 25.7633 4.41835 26.1022V49.5685C4.41835 49.9075 4.55608 50.2326 4.80125 50.4723C5.04643 50.712 5.37895 50.8466 5.72568 50.8466H37.1016C37.4483 50.8466 37.7808 50.712 38.026 50.4723C38.2712 50.2326 38.4089 49.9075 38.4089 49.5685V48.2648C40.6927 49.7101 43.2911 50.6122 45.9957 50.8987C48.7004 51.1852 51.4361 50.8481 53.9835 49.9146C56.5309 48.9811 58.8192 47.477 60.6648 45.523C62.5105 43.569 63.8621 41.2193 64.6115 38.6625C65.3608 36.1057 65.487 33.4128 64.9799 30.7997C64.4728 28.1866 63.3465 25.726 61.6913 23.6152C60.0361 21.5044 57.8981 19.8021 55.4487 18.6448C52.9992 17.4875 50.3065 16.9074 47.5864 16.9509ZM6.61466 3.55624H35.3759V8.84765H6.61466V3.55624ZM9.64766 11.6595H38.4089V16.9509H9.64766V11.6595ZM12.2623 19.5072H38.4089C36.1994 20.8504 34.3238 22.658 32.9181 24.7986H12.2623V19.5072ZM30.5649 40.5194H7.033V35.228H30.1466C30.2787 37.0479 30.7113 38.8348 31.4278 40.5194H30.5649ZM7.033 27.3548H31.5324C30.8069 29.0379 30.3654 30.8249 30.225 32.6462H7.033V27.3548ZM35.7943 48.3671H7.033V43.0757H32.892C33.679 44.2855 34.619 45.3934 35.6897 46.3732L35.7943 48.3671ZM47.691 48.3671C45.1011 48.3696 42.5563 47.7053 40.3125 46.4409C38.0686 45.1766 36.205 43.3568 34.9089 41.1647C33.6129 38.9726 32.9302 36.4855 32.9296 33.9535C32.9289 31.4215 33.6104 28.934 34.9053 26.7413C34.957 26.6693 35.0008 26.5922 35.036 26.5112C36.3651 24.3539 38.2491 22.5745 40.5004 21.3504C42.7516 20.1263 45.2916 19.5 47.8674 19.5341C50.4432 19.5681 52.965 20.2612 55.1816 21.5443C57.3982 22.8275 59.2323 24.6559 60.5014 26.8476C61.7704 29.0393 62.43 31.5177 62.4146 34.0362C62.3992 36.5546 61.7093 39.0252 60.4135 41.2018C59.1177 43.3785 57.2614 45.1854 55.0292 46.4425C52.797 47.6996 50.267 48.3632 47.691 48.3671Z" fill="#CD3BAE"/>
</g>
<defs>
<filter id="filter0_d_3465_150397" x="0" y="0" width="69" height="58" filterUnits="userSpaceOnUse" color-interpolation-filters="sRGB">
<feFlood flood-opacity="0" result="BackgroundImageFix"/>
<feColorMatrix in="SourceAlpha" type="matrix" values="0 0 0 0 0 0 0 0 0 0 0 0 0 0 0 0 0 0 127 0" result="hardAlpha"/>
<feOffset dy="4"/>
<feGaussianBlur stdDeviation="2"/>
<feComposite in2="hardAlpha" operator="out"/>
<feColorMatrix type="matrix" values="0 0 0 0 0.610833 0 0 0 0 0.610833 0 0 0 0 0.610833 0 0 0 0.25 0"/>
<feBlend mode="normal" in2="BackgroundImageFix" result="effect1_dropShadow_3465_150397"/>
<feBlend mode="normal" in="SourceGraphic" in2="effect1_dropShadow_3465_150397" result="shape"/>
</filter>
<clipPath id="clip0_3465_150397">
<rect width="61" height="50" fill="white" transform="translate(4)"/>
</clipPath>
</defs>
</svg>
