<svg width="58" height="72" viewBox="0 0 58 72" fill="none" xmlns="http://www.w3.org/2000/svg">
<g filter="url(#filter0_d_3467_150412)">
<path d="M44.9441 34.5H44.4441H42.3816H41.8816V34V28.857C41.8816 27.4139 40.729 26.25 39.2879 26.25C37.8568 26.25 36.6941 27.4098 36.6941 28.857V31.9375V32.4375H36.1941H34.1316H33.6316V31.9375V26.7945C33.6316 25.3514 32.479 24.1875 31.0379 24.1875C29.6068 24.1875 28.4441 25.3473 28.4441 26.7945V34V34.5H27.9441H25.8816H25.3816V34V12.3546C25.3816 10.9132 24.2294 9.75 22.7879 9.75C21.3556 9.75 20.1941 10.9019 20.1941 12.3546V35.65V36.9164L19.329 35.9915C17.212 33.7285 14.783 31.3782 12.6145 29.8823C11.5266 29.1319 10.541 28.6226 9.71796 28.4286C8.90792 28.2377 8.33183 28.3642 7.92325 28.775C7.56147 29.1387 7.44538 29.7086 7.77794 30.7574C8.1099 31.8044 8.84375 33.1701 9.93022 34.9361C10.7112 36.2056 11.6749 37.6815 12.7795 39.3734C14.7007 42.3158 17.0483 45.9113 19.6029 50.2097C21.4014 53.2358 23.4172 55.7578 25.912 57.5243C28.3976 59.2842 31.3838 60.312 35.1603 60.3125L44.9441 34.5ZM44.9441 34.5V34M44.9441 34.5V34M44.9441 34V32.9722C44.9441 31.5352 46.1057 30.375 47.5379 30.375C48.9805 30.375 50.1316 31.536 50.1316 32.9722V37.6076V45.3438C50.1316 53.1516 43.4191 60.3125 35.1603 60.3125L44.9441 34ZM41.8816 11.3125V11.8125H42.3816H43.9285H48.5691H49.0691V11.3125V9.25V8.75H48.5691H44.9441V3.73766C47.9168 4.43041 50.1316 7.09757 50.1316 10.2812C50.1316 13.9919 47.1235 17 43.4129 17C39.7022 17 36.6941 13.9919 36.6941 10.2812C36.6941 7.09757 38.9089 4.43041 41.8816 3.73766V11.3125ZM16.865 51.6238C21.6171 60.2817 28.5622 63.375 35.1629 63.375C45.1213 63.375 53.1941 55.3021 53.1941 45.3438V32.9983C53.1941 29.8756 50.6829 27.3418 47.5379 27.3418C46.5765 27.3418 45.672 27.5799 44.8808 27.9876C44.4729 25.2709 42.1408 23.1875 39.2879 23.1875C38.0941 23.1875 36.9865 23.5603 36.0743 24.1929C35.1404 22.3711 33.2446 21.125 31.0379 21.125C30.1036 21.125 29.2213 21.3511 28.4441 21.7518V12.3611C28.4441 9.2305 25.9344 6.6875 22.7879 6.6875C19.6634 6.6875 17.1316 9.2125 17.1316 12.3611V29.5011C15.3402 27.9198 13.4413 26.5551 11.6204 25.8272C9.49626 24.978 7.37119 24.9641 5.70973 26.6256C4.533 27.8023 4.29376 29.2645 4.65559 30.9047C5.01062 32.5139 5.95191 34.3473 7.19565 36.3805C8.09996 37.8588 9.18484 39.4747 10.3542 41.2163C10.7973 41.8762 11.2525 42.5543 11.7146 43.2497C13.4014 45.7882 15.1924 48.5764 16.865 51.6238ZM43.4129 20.0625C48.8149 20.0625 53.1941 15.6833 53.1941 10.2812C53.1941 4.87921 48.8149 0.5 43.4129 0.5C38.0108 0.5 33.6316 4.87921 33.6316 10.2812C33.6316 15.6833 38.0108 20.0625 43.4129 20.0625Z" fill="#23A8FC" stroke="#23A8FC"/>
</g>
<defs>
<filter id="filter0_d_3467_150412" x="0.000976562" y="0" width="57.6934" height="71.875" filterUnits="userSpaceOnUse" color-interpolation-filters="sRGB">
<feFlood flood-opacity="0" result="BackgroundImageFix"/>
<feColorMatrix in="SourceAlpha" type="matrix" values="0 0 0 0 0 0 0 0 0 0 0 0 0 0 0 0 0 0 127 0" result="hardAlpha"/>
<feOffset dy="4"/>
<feGaussianBlur stdDeviation="2"/>
<feComposite in2="hardAlpha" operator="out"/>
<feColorMatrix type="matrix" values="0 0 0 0 0.610833 0 0 0 0 0.610833 0 0 0 0 0.610833 0 0 0 0.25 0"/>
<feBlend mode="normal" in2="BackgroundImageFix" result="effect1_dropShadow_3467_150412"/>
<feBlend mode="normal" in="SourceGraphic" in2="effect1_dropShadow_3467_150412" result="shape"/>
</filter>
</defs>
</svg>
