<svg width="73" height="73" viewBox="0 0 73 73" fill="none" xmlns="http://www.w3.org/2000/svg">
<g filter="url(#filter0_d_3467_150407)">
<path d="M66.8487 37.8464L66.8486 37.8465C67.5093 38.9064 67.6967 40.2041 67.3652 41.4093L67.3651 41.4096C67.0333 42.6124 66.2092 43.6286 65.1017 44.199L48.6642 52.683L48.6372 52.697L48.6087 52.7075L48.5025 52.7469L48.4724 52.7581L48.441 52.7653L48.3716 52.7813L48.3701 52.7817L22.5531 58.6483C22.456 59.1512 22.0835 59.5946 21.5228 59.7299C21.5228 59.7299 21.5228 59.7299 21.5228 59.7299L5.11732 63.6898L4.5 63.8388V63.2037V42.5223V42.2133L4.77638 42.0751L8.95259 39.9868L8.95268 39.9868C9.5719 39.6773 10.3245 39.8744 10.7128 40.4473L10.7128 40.4474L11.5148 41.6313L18.7825 34.3633L66.8487 37.8464ZM66.8487 37.8464L66.8439 37.839M66.8487 37.8464L66.8439 37.839M66.8439 37.839L66.8125 37.7906C66.8119 37.7898 66.8114 37.7889 66.8109 37.7881C66.3022 36.9837 65.5695 36.3719 64.7043 36.0296C64.6068 35.9897 64.5083 35.9533 64.4089 35.9204C64.2554 35.5117 64.0418 35.1246 63.773 34.772L63.7646 34.761M66.8439 37.839L63.7646 34.761M63.7646 34.761L63.7556 34.7505M63.7646 34.761L63.7556 34.7505M63.7556 34.7505L63.69 34.6736C62.8396 33.5919 61.5638 32.9717 60.1845 32.9717C59.509 32.9717 58.8563 33.1209 58.2348 33.4194L58.2348 33.4193M63.7556 34.7505L58.2348 33.4193M58.2348 33.4193L58.2282 33.4226M58.2348 33.4193L58.2282 33.4226M58.2282 33.4226C58.1765 33.4484 58.1176 33.4781 58.0621 33.5084C57.2792 32.881 56.3044 32.534 55.2779 32.534C54.504 32.534 53.7387 32.7374 53.0644 33.1216L41.3205 39.8006C41.3202 39.8008 41.3199 39.8009 41.3197 39.8011C40.9374 40.0161 40.5416 40.1855 40.1344 40.3087M58.2282 33.4226L40.1344 40.3087M40.1344 40.3087C42.3793 39.2011 43.927 36.888 43.927 34.2196V34.1661C43.927 32.705 42.7392 31.5171 41.2782 31.5171H25.6536C23.0924 31.5171 20.5894 32.5537 18.7828 34.363L40.1344 40.3087ZM28.1384 41.0048H34.9659L28.3963 41.7758H28.1264C28.0835 41.7758 28.0496 41.7701 28.0213 41.7612L28.0193 41.7606C27.9174 41.7294 27.8376 41.656 27.8009 41.5797C27.7903 41.5551 27.7868 41.5434 27.786 41.5405L27.7861 41.5405L27.784 41.5332L27.7768 41.5079L27.7769 41.5079L27.775 41.5015C27.7664 41.4726 27.7617 41.4414 27.7617 41.4085V41.3817C27.7617 41.1743 27.9312 41.0048 28.1384 41.0048ZM64.5104 40.6218L64.5104 40.6219C64.3957 41.038 64.1256 41.3706 63.745 41.5666L63.7447 41.5668L47.5311 49.9351L22.2205 55.6868L13.9113 43.4209L20.8765 36.4555L20.8768 36.4552C22.1308 35.199 23.8734 34.4771 25.6531 34.4771H40.9573C40.824 36.4657 39.1631 38.0435 37.1413 38.0435H28.138C26.2972 38.0435 24.8005 39.5403 24.8005 41.3811V41.4079C24.8005 41.7204 24.8448 42.0303 24.9322 42.3294C24.9745 42.4823 25.0286 42.631 25.101 42.7945L25.101 42.7945L25.1042 42.8015C25.5007 43.6613 26.2465 44.3134 27.1484 44.5898C27.4627 44.687 27.7918 44.7359 28.1262 44.7359H28.5399H28.5691L28.5982 44.7325L39.4543 43.4586C39.4548 43.4585 39.4552 43.4585 39.4557 43.4584C40.6186 43.3277 41.7349 42.9641 42.7759 42.3782L42.7779 42.3771L54.5286 35.6945L54.529 35.6943C54.7592 35.5631 55.0186 35.4944 55.2776 35.4944C55.7382 35.4944 56.1654 35.7005 56.4535 36.0633L56.4612 36.073L56.4693 36.0823L56.5263 36.1471C56.5354 36.1593 56.5457 36.1739 56.5596 36.1939L56.9702 35.9085L56.5596 36.1939L57.0609 36.915L57.3166 37.2827L57.7101 37.0689L59.4713 36.1121L59.4746 36.1103C59.493 36.1001 59.5118 36.0908 59.5319 36.0807C59.7392 35.9818 59.9574 35.9324 60.1842 35.9324C60.6583 35.9324 61.0914 36.1471 61.3781 36.524L61.3861 36.5345L61.3947 36.5445L61.4492 36.6089C61.6047 36.8275 61.6982 37.0762 61.7237 37.3298L61.807 38.1607L61.8495 38.5846L62.2747 38.6099L63.1083 38.6596C63.1084 38.6596 63.1085 38.6596 63.1085 38.6596C63.263 38.6689 63.4281 38.7061 63.5947 38.7746L63.5947 38.7746L63.6012 38.7772C63.8868 38.8899 64.1326 39.0919 64.3168 39.3837L64.3168 39.3838L64.3209 39.39L64.3428 39.4236C64.5649 39.7862 64.6245 40.2083 64.5104 40.6218ZM12.5159 58.4208C11.6094 58.4208 10.8747 57.6861 10.8747 56.7798C10.8747 55.8733 11.6094 55.1386 12.5159 55.1386C13.4223 55.1386 14.1571 55.8733 14.1571 56.7798C14.1571 57.6861 13.4224 58.4208 12.5159 58.4208Z" fill="#F7E041" stroke="#F7E041"/>
<path d="M35.5232 27.0501C42.993 27.0501 49.0482 20.9946 49.0482 13.525C49.0482 6.05535 42.9928 0 35.5232 0C28.0536 0 21.998 6.05535 21.998 13.525C21.998 20.9946 28.0536 27.0501 35.5232 27.0501ZM35.5232 4.44237C40.5394 4.44237 44.6058 8.50879 44.6058 13.525C44.6058 18.5412 40.5394 22.6076 35.5232 22.6076C30.507 22.6076 26.4406 18.5412 26.4406 13.525C26.4406 8.50879 30.507 4.44237 35.5232 4.44237Z" fill="#F7E041"/>
<path d="M34.1017 17.5382C33.9122 17.468 33.7561 17.3788 33.6338 17.2698C33.5122 17.1608 33.4183 17.0393 33.3519 16.9045C33.2856 16.77 33.2295 16.6334 33.183 16.4952C33.1364 16.3568 33.0925 16.222 33.0503 16.0909C33.008 15.9601 32.9503 15.8436 32.8787 15.7424C32.8064 15.6406 32.7116 15.5588 32.5935 15.496C32.4753 15.4335 32.3169 15.4021 32.1177 15.4021C31.8411 15.4021 31.6231 15.4871 31.4645 15.6568C31.3058 15.8266 31.2266 16.07 31.2266 16.3872C31.2266 16.594 31.2594 16.8059 31.3257 17.0236C31.3921 17.2417 31.4921 17.4554 31.6247 17.6657C31.7574 17.876 31.9246 18.0755 32.1254 18.2634C32.327 18.4517 32.5606 18.6179 32.826 18.7615C33.0915 18.9055 33.3913 19.0218 33.7248 19.1105C34.0591 19.1989 34.427 19.2489 34.8296 19.2595V20.2283C34.8296 20.2946 34.8399 20.3601 34.8625 20.4248C34.8848 20.4895 34.9159 20.5469 34.9546 20.5964C34.9933 20.6464 35.0399 20.6859 35.0941 20.7157C35.1476 20.7449 35.2044 20.7596 35.2639 20.7596C35.3234 20.7596 35.3786 20.7449 35.431 20.7157C35.4827 20.6859 35.5284 20.6462 35.5671 20.5964C35.6059 20.5469 35.6369 20.4895 35.6593 20.4248C35.6817 20.3601 35.6928 20.2948 35.6928 20.2283V19.2595C36.2228 19.2264 36.7063 19.1342 37.1432 18.9829C37.5793 18.8318 37.9533 18.6197 38.2644 18.3465C38.5763 18.0738 38.8168 17.7386 38.9857 17.3422C39.1555 16.9453 39.24 16.485 39.24 15.9612C39.24 15.5591 39.196 15.2049 39.1071 14.8985C39.0194 14.5922 38.896 14.3229 38.7374 14.0906C38.5789 13.8579 38.3902 13.6589 38.1703 13.4926C37.9515 13.3266 37.7101 13.1818 37.4464 13.0581C37.1835 12.9344 36.9035 12.8294 36.6069 12.7428C36.3106 12.6562 36.0054 12.576 35.6925 12.502V9.53563C35.9537 9.53906 36.1769 9.58432 36.3604 9.67092C36.5449 9.758 36.7035 9.86388 36.8362 9.98936C36.9689 10.1148 37.0844 10.2505 37.1844 10.396C37.2834 10.5418 37.3817 10.6776 37.4799 10.8029C37.5775 10.9284 37.6807 11.0326 37.7894 11.1158C37.898 11.1986 38.0299 11.2404 38.1841 11.2404C38.3055 11.2404 38.4211 11.2179 38.5297 11.1741C38.6382 11.1297 38.7339 11.0659 38.8166 10.9828C38.9003 10.8999 38.9648 10.7975 39.0132 10.6759C39.0614 10.554 39.0847 10.4174 39.0847 10.2661C39.0847 10.0114 39.0269 9.77843 38.9107 9.56586C38.7952 9.35394 38.6418 9.16294 38.4523 8.99318C38.2626 8.82342 38.0472 8.67392 37.8059 8.54451C37.5646 8.41576 37.319 8.30662 37.0682 8.21839C36.8174 8.12967 36.5717 8.06236 36.3303 8.01628C36.089 7.9702 35.8763 7.94341 35.6926 7.93557V7.02811C35.6926 6.95785 35.6815 6.8907 35.6591 6.82599C35.6367 6.76129 35.6057 6.70443 35.567 6.65444C35.5283 6.60444 35.4825 6.5649 35.4309 6.53549C35.3783 6.50575 35.3232 6.49121 35.2637 6.49121C35.2043 6.49121 35.1474 6.50592 35.094 6.53549C35.0397 6.5649 34.9932 6.60444 34.9544 6.65444C34.9157 6.70443 34.8847 6.76129 34.8623 6.82599C34.8399 6.8907 34.8294 6.95785 34.8294 7.02811V7.93557C34.3831 7.95419 33.9556 8.03556 33.548 8.17951C33.1403 8.32345 32.7802 8.53144 32.469 8.80463C32.1571 9.07782 31.9089 9.41521 31.7244 9.81764C31.5399 10.2197 31.4478 10.6864 31.4478 11.2176C31.4478 11.6533 31.5254 12.0432 31.6796 12.3884C31.8349 12.7336 32.058 13.0369 32.3492 13.299C32.6413 13.561 32.9964 13.7832 33.4153 13.9659C33.8342 14.1486 34.3055 14.2912 34.8294 14.3946V17.6657C34.5344 17.6507 34.2922 17.6085 34.1017 17.5382ZM35.6934 14.5659C35.884 14.6141 36.0839 14.6722 36.2916 14.7404C36.4993 14.8085 36.689 14.902 36.8604 15.0199C37.0309 15.1381 37.1713 15.2854 37.2817 15.4624C37.392 15.6395 37.4473 15.8609 37.4473 16.1264C37.4473 16.3888 37.3963 16.6128 37.293 16.7991C37.1904 16.9857 37.0559 17.1404 36.8906 17.2641C36.7249 17.3878 36.5372 17.4817 36.3279 17.5462C36.1176 17.611 35.9063 17.6505 35.6934 17.6652V14.5659ZM33.6338 11.8013C33.3717 11.5674 33.2408 11.2545 33.2408 10.8633C33.2408 10.6939 33.2779 10.5307 33.3521 10.3738C33.4253 10.217 33.5321 10.0774 33.67 9.95587C33.8089 9.83398 33.9752 9.73529 34.1707 9.65981C34.3664 9.58399 34.586 9.54249 34.8299 9.5353V12.3301C34.2948 12.2119 33.8958 12.0358 33.6338 11.8013Z" fill="#F7E041"/>
</g>
<defs>
<filter id="filter0_d_3467_150407" x="0" y="0" width="72.0254" height="72.4736" filterUnits="userSpaceOnUse" color-interpolation-filters="sRGB">
<feFlood flood-opacity="0" result="BackgroundImageFix"/>
<feColorMatrix in="SourceAlpha" type="matrix" values="0 0 0 0 0 0 0 0 0 0 0 0 0 0 0 0 0 0 127 0" result="hardAlpha"/>
<feOffset dy="4"/>
<feGaussianBlur stdDeviation="2"/>
<feComposite in2="hardAlpha" operator="out"/>
<feColorMatrix type="matrix" values="0 0 0 0 0.610833 0 0 0 0 0.610833 0 0 0 0 0.610833 0 0 0 0.25 0"/>
<feBlend mode="normal" in2="BackgroundImageFix" result="effect1_dropShadow_3467_150407"/>
<feBlend mode="normal" in="SourceGraphic" in2="effect1_dropShadow_3467_150407" result="shape"/>
</filter>
</defs>
</svg>
