<svg width="40" height="41" viewBox="0 0 40 41" fill="none" xmlns="http://www.w3.org/2000/svg">
<path fill-rule="evenodd" clip-rule="evenodd" d="M5.26195 40.3438H38.1347C38.9595 40.3438 39.629 39.6744 39.629 38.8496V11.9537C39.629 11.1289 38.9595 10.4594 38.1347 10.4594H32.1579C31.3331 10.4594 30.6637 11.1289 30.6637 11.9537V37.3554H27.6752V19.4248C27.6752 18.5999 27.0058 17.9305 26.181 17.9305H20.2041C19.3793 17.9305 18.7099 18.5999 18.7099 19.4248V37.3554H15.7215V25.4196C15.7215 24.5947 15.0521 23.9253 14.2273 23.9253H8.25039C7.42558 23.9253 6.75617 24.5947 6.75617 25.4196V37.3554H5.26195C4.86598 37.3554 4.48496 37.1985 4.20554 36.9176C3.92463 36.6381 3.76773 36.2571 3.76773 35.8611V2.98836C3.76773 2.16355 3.09832 1.49414 2.27351 1.49414C1.44871 1.49414 0.779297 2.16355 0.779297 2.98836V35.8611C0.779297 37.0505 1.25147 38.1906 2.09271 39.0304C2.93246 39.8716 4.07255 40.3438 5.26195 40.3438Z" fill="#FFBB6B"/>
<path fill-rule="evenodd" clip-rule="evenodd" d="M11.2449 2.98844H11.2405C8.76604 2.98844 6.75781 4.99666 6.75781 7.47109C6.75781 9.94551 8.76604 11.9537 11.2405 11.9537H14.2289C15.0537 11.9537 15.7231 12.6232 15.7231 13.448C15.7231 14.2728 15.0537 14.9422 14.2289 14.9422H9.74625C8.92144 14.9422 8.25203 15.6116 8.25203 16.4364C8.25203 17.2612 8.92144 17.9306 9.74625 17.9306H11.2449V19.4248C11.2449 20.2496 11.9159 20.919 12.7392 20.919C13.564 20.919 14.2334 20.2496 14.2334 19.4248V17.9306C16.7063 17.9276 18.7116 15.9209 18.7116 13.448C18.7116 10.9735 16.7033 8.96531 14.2289 8.96531H11.2405C10.4157 8.96531 9.74625 8.2959 9.74625 7.47109C9.74625 6.64628 10.4157 5.97687 11.2405 5.97687H15.7231C16.5479 5.97687 17.2173 5.30746 17.2173 4.48265C17.2173 3.65785 16.5479 2.98844 15.7231 2.98844H14.2334V1.49422C14.2334 0.66941 13.564 0 12.7392 0C11.9159 0 11.2449 0.66941 11.2449 1.49422V2.98844Z" fill="#FFBB6B"/>
</svg>
