<svg width="68" height="53" viewBox="0 0 68 53" fill="none" xmlns="http://www.w3.org/2000/svg">
<g filter="url(#filter0_d_3467_150405)">
<path d="M21.8608 11.53C22.4135 11.8717 22.75 12.4752 22.75 13.125V31.875C22.75 32.9104 21.9105 33.75 20.875 33.75C19.8395 33.75 19 32.9104 19 31.875V16.1588L17.9635 16.677C17.0373 17.1402 15.9111 16.7647 15.448 15.8385C14.9848 14.9123 15.3603 13.7861 16.2865 13.323L20.0365 11.448C20.6177 11.1573 21.308 11.1884 21.8608 11.53ZM49 13.125C49 12.4752 48.6636 11.8717 48.1109 11.53C47.5581 11.1884 46.8677 11.1573 46.2865 11.448L42.5365 13.323C41.6102 13.7861 41.2349 14.9123 41.698 15.8385C42.1611 16.7647 43.2873 17.1402 44.2135 16.677L45.25 16.1588V31.875C45.25 32.9104 46.0896 33.75 47.125 33.75C48.1604 33.75 49 32.9104 49 31.875V13.125ZM34 16.875C34 17.9105 33.1605 18.75 32.125 18.75C31.0895 18.75 30.25 17.9105 30.25 16.875C30.25 15.8395 31.0895 15 32.125 15C33.1605 15 34 15.8395 34 16.875ZM32.125 30C33.1605 30 34 29.1604 34 28.125C34 27.0896 33.1605 26.25 32.125 26.25C31.0895 26.25 30.25 27.0896 30.25 28.125C30.25 29.1604 31.0895 30 32.125 30ZM4 10.3125C4 4.61707 8.61707 0 14.3125 0H53.6875C59.383 0 64 4.61707 64 10.3125V34.6875C64 40.383 59.383 45 53.6875 45H14.3125C8.61707 45 4 40.383 4 34.6875V10.3125ZM14.3125 3.75C10.6881 3.75 7.75 6.68813 7.75 10.3125V34.6875C7.75 38.3119 10.6881 41.25 14.3125 41.25H53.6875C57.3119 41.25 60.25 38.3119 60.25 34.6875V10.3125C60.25 6.68813 57.3119 3.75 53.6875 3.75H14.3125Z" fill="#00A30B"/>
</g>
<defs>
<filter id="filter0_d_3467_150405" x="0" y="0" width="68" height="53" filterUnits="userSpaceOnUse" color-interpolation-filters="sRGB">
<feFlood flood-opacity="0" result="BackgroundImageFix"/>
<feColorMatrix in="SourceAlpha" type="matrix" values="0 0 0 0 0 0 0 0 0 0 0 0 0 0 0 0 0 0 127 0" result="hardAlpha"/>
<feOffset dy="4"/>
<feGaussianBlur stdDeviation="2"/>
<feComposite in2="hardAlpha" operator="out"/>
<feColorMatrix type="matrix" values="0 0 0 0 0.610833 0 0 0 0 0.610833 0 0 0 0 0.610833 0 0 0 0.25 0"/>
<feBlend mode="normal" in2="BackgroundImageFix" result="effect1_dropShadow_3467_150405"/>
<feBlend mode="normal" in="SourceGraphic" in2="effect1_dropShadow_3467_150405" result="shape"/>
</filter>
</defs>
</svg>
