<svg width="28" height="31" viewBox="0 0 28 31" fill="none" xmlns="http://www.w3.org/2000/svg">
<path d="M18.4375 5.42285C20.3839 5.42285 22.2099 6.32893 23.2607 8.01953L23.374 8.13184L23.3887 8.14648L23.3994 8.16406L26.9375 13.7236L27.0439 13.8994C28.0967 15.7299 27.5413 18.01 25.7432 19.166L25.7227 19.1787L25.7002 19.1865C24.9523 19.4358 24.1614 19.7012 23.4922 19.7012C22.183 19.7011 20.9996 19.0546 20.3271 18.0117L18.0078 16.6689H11.918L9.59277 18.0137C8.80986 19.0427 7.75648 19.7012 6.43359 19.7012C5.63016 19.7012 4.96497 19.433 4.31738 19.0449L4.14551 18.9395C3.31045 18.3897 2.83144 17.5138 2.58691 16.6582L2.58496 16.6514C2.31813 15.5835 2.58476 14.5197 3.11426 13.7236L6.63184 8.19434C6.63983 8.15634 6.65321 8.12031 6.6748 8.08789C6.70886 8.03681 6.75274 8.00449 6.79102 7.98535C6.80032 7.9807 6.81045 7.97905 6.81934 7.97559C7.87439 6.31333 9.68484 5.42289 11.6143 5.42285H18.4375ZM11.4883 6.93945C10.1624 6.93945 8.83084 7.66487 8.10742 8.75L8.09766 8.76562L8.08398 8.7793L7.9707 8.8916L4.44531 14.4326L4.44141 14.4395L4.4375 14.4453C4.09635 14.9002 3.97409 15.6007 4.0918 16.1895L4.14551 16.3984C4.27411 16.8072 4.53231 17.1551 4.93066 17.4424L5.14062 17.5801L5.14844 17.585L5.34766 17.7031C6.35238 18.2289 7.60903 17.8788 8.27637 16.9082C8.28513 16.8703 8.29922 16.8337 8.32227 16.8008C8.35649 16.7521 8.39954 16.7206 8.42871 16.7012C8.49692 16.6557 8.52873 16.6431 8.57422 16.5977L8.5918 16.5801L8.61426 16.5674L11.2676 15.0508L11.3115 15.0264H18.1855C18.2381 15.0264 18.3362 15.0242 18.4189 15.0518C18.4657 15.0674 18.5219 15.0965 18.5654 15.1523C18.5814 15.1729 18.5932 15.1954 18.6025 15.2178L21.1572 16.6777C21.1991 16.6859 21.2393 16.6994 21.2754 16.7246C21.3246 16.7591 21.3565 16.8028 21.376 16.832C21.3986 16.866 21.4125 16.8911 21.4268 16.9131L21.4785 16.9775L21.4912 16.9902L21.502 17.0059C21.9735 17.7132 22.6737 18.0586 23.3662 18.0586C23.8329 18.0586 24.1756 17.9444 24.5244 17.7119L24.7148 17.5713C25.6222 16.8317 25.8814 15.5389 25.2305 14.5625L25.2275 14.5596L21.6992 9.01465L21.5889 8.90527L21.5732 8.88867L21.5605 8.86914C20.8385 7.66566 19.512 6.93945 18.0586 6.93945H11.4883Z" fill="black" stroke="black" stroke-width="0.379085"/>
<path d="M25.0557 11.6768C25.2397 11.6768 25.4241 11.7558 25.5312 11.9287C26.6928 12.8447 27.3457 14.1508 27.3457 15.4678V15.7207C27.3454 16.1043 26.9795 16.415 26.5244 16.415C26.2919 16.415 26.0835 16.3364 25.9326 16.1855C25.7819 16.0347 25.7031 15.8263 25.7031 15.5938C25.7031 15.1177 25.5844 14.7954 25.3799 14.5908L25.3643 14.5752L25.3525 14.5557L24.3418 12.9131L24.3369 12.9062L24.333 12.8984C24.2549 12.742 24.2152 12.5472 24.2354 12.3662C24.2546 12.1939 24.3333 12.0085 24.5137 11.9033C24.6697 11.7561 24.8667 11.6768 25.0557 11.6768Z" fill="black" stroke="black" stroke-width="0.379085"/>
<path d="M3.33203 1.26367C4.62492 0.659668 6.09486 0.659471 7.3877 1.26367L7.66113 1.40234L7.66504 1.4043L14.4883 5.32129H14.4873C14.8072 5.48549 14.9627 5.80608 14.9629 6.11719C14.9629 6.3498 14.8843 6.55906 14.7334 6.70996C14.5825 6.86069 14.3741 6.93945 14.1416 6.93945H11.4883C10.1624 6.93945 8.83084 7.66487 8.10742 8.75L8.09766 8.76562L8.08398 8.7793L7.9707 8.8916L4.44531 14.4326L4.44141 14.4395L4.4375 14.4453C4.09637 14.9002 3.97406 15.6007 4.0918 16.1895L4.14551 16.3984C4.27407 16.807 4.53258 17.1542 4.93066 17.4414L5.14062 17.5801L5.14844 17.585L5.34766 17.7031C6.35235 18.2289 7.60903 17.8788 8.27637 16.9082C8.28512 16.8703 8.29825 16.8337 8.32129 16.8008C8.35572 16.7516 8.39945 16.7197 8.42871 16.7002C8.49692 16.6547 8.52873 16.6431 8.57422 16.5977L8.5918 16.5801L8.61426 16.5674L11.2676 15.0508L11.3115 15.0264H11.3633C11.3643 15.0262 11.3662 15.0258 11.3682 15.0254C11.3722 15.0245 11.3772 15.0222 11.3838 15.0195C11.3979 15.0139 11.4145 15.0059 11.4307 14.9951C11.4465 14.9846 11.4602 14.973 11.4697 14.9648C11.4742 14.961 11.4776 14.9578 11.4795 14.9561L11.5361 14.8994H18.1855C18.2381 14.8994 18.3362 14.8982 18.4189 14.9258C18.4658 14.9414 18.5219 14.9704 18.5654 15.0264C18.5812 15.0467 18.5922 15.0687 18.6016 15.0908L21.1592 16.5518C21.2004 16.5601 21.2399 16.5738 21.2754 16.5986C21.3245 16.6331 21.3565 16.6768 21.376 16.7061C21.3986 16.7401 21.4125 16.7651 21.4268 16.7871L21.4785 16.8506L21.4912 16.8643L21.502 16.8799C22.2076 17.9381 23.6072 18.2785 24.6484 17.5859C24.7269 17.5149 24.8033 17.4758 24.8604 17.4473C24.9234 17.4158 24.9618 17.3956 25.001 17.3564C25.3277 17.0297 25.8266 17.0297 26.1533 17.3564L26.2109 17.4189C26.4613 17.7225 26.4611 18.1416 26.2109 18.4453L26.1533 18.5088C25.7758 18.8863 25.511 19.1525 25.1143 19.417L25.1035 19.4238L7.53906 29.5322L7.53809 29.5312C6.88335 29.9234 6.09348 30.1895 5.2959 30.1895C4.4972 30.1894 3.70601 29.9234 3.05078 29.5303V29.5293C1.5959 28.7319 0.810547 27.1497 0.810547 25.5771V5.35938C0.810586 3.77534 1.73109 2.19806 3.05078 1.40625L3.05762 1.40234L3.33203 1.26367ZM5.2959 2.38965C4.80962 2.38972 4.22025 2.51365 3.88477 2.7373L3.87891 2.74121L3.87207 2.74512C2.79914 3.34119 2.32718 4.28615 2.32715 5.35938V25.5771C2.32715 26.6362 2.91314 27.5887 3.75 28.1924C4.70349 28.665 5.77075 28.6636 6.72363 28.1885L21.9219 19.293C21.2746 19.0094 20.6564 18.5612 20.2119 18.0176L17.8818 16.6689H11.792L9.46582 18.0137C8.68301 19.0424 7.63018 19.701 6.30762 19.7012C5.50284 19.7012 4.8361 19.4321 4.1875 19.043V19.042C3.36542 18.5706 2.85945 17.7968 2.57129 17L2.46094 16.6582L2.45898 16.6514C2.19173 15.5821 2.45937 14.5171 2.99023 13.7207L6.50586 8.19434C6.51383 8.15646 6.52637 8.12023 6.54785 8.08789C6.5819 8.03681 6.62676 8.00449 6.66504 7.98535C6.67436 7.98071 6.68446 7.97905 6.69336 7.97559C7.67605 6.42741 9.31361 5.54876 11.0928 5.43555L6.71875 2.74512C6.23951 2.50697 5.7657 2.38965 5.2959 2.38965Z" fill="black" stroke="black" stroke-width="0.379085"/>
<path d="M10.8564 8.20215C11.1132 8.20216 11.3197 8.33131 11.457 8.48828C11.5912 8.64165 11.6777 8.84213 11.6777 9.02344V12.3086C11.6777 12.5654 11.5486 12.7718 11.3916 12.9092C11.2382 13.0434 11.0378 13.1299 10.8564 13.1299C10.624 13.1299 10.4155 13.052 10.2646 12.9014C10.1138 12.7505 10.0352 12.5412 10.0352 12.3086V9.02344C10.0352 8.79082 10.1138 8.58254 10.2646 8.43164C10.4155 8.28074 10.6238 8.20215 10.8564 8.20215Z" fill="black" stroke="black" stroke-width="0.379085"/>
<path d="M12.499 9.84473C12.7316 9.84473 12.9409 9.92332 13.0918 10.0742C13.2424 10.2251 13.3203 10.4336 13.3203 10.666C13.3203 10.9226 13.192 11.1293 13.0352 11.2666C12.8818 11.4008 12.6804 11.4873 12.499 11.4873H9.21387C8.98127 11.4873 8.77297 11.4087 8.62207 11.2578C8.47118 11.1069 8.39258 10.8986 8.39258 10.666C8.39258 10.4334 8.47117 10.2251 8.62207 10.0742C8.77297 9.92332 8.98125 9.84473 9.21387 9.84473H12.499Z" fill="black" stroke="black" stroke-width="0.379085"/>
<path d="M19.3223 11.4883C19.5549 11.4883 19.7632 11.5669 19.9141 11.7178C20.0649 11.8687 20.1436 12.077 20.1436 12.3096V12.6885C20.1436 12.9453 20.0144 13.1517 19.8574 13.2891C19.704 13.4233 19.5036 13.5098 19.3223 13.5098C19.0897 13.5098 18.8814 13.4312 18.7305 13.2803C18.5796 13.1294 18.501 12.9211 18.501 12.6885V12.3096C18.501 12.077 18.5796 11.8687 18.7305 11.7178C18.8814 11.5669 19.0897 11.4883 19.3223 11.4883Z" fill="black" stroke="black" stroke-width="0.379085"/>
<path d="M21.2178 9.8457C21.4504 9.8457 21.6587 9.92434 21.8096 10.0752C21.9605 10.2261 22.0391 10.4344 22.0391 10.667C22.0391 10.8996 21.9605 11.1079 21.8096 11.2588C21.6587 11.4096 21.4503 11.4883 21.2178 11.4883H20.8389C20.6063 11.4883 20.398 11.4097 20.2471 11.2588C20.0962 11.1079 20.0176 10.8996 20.0176 10.667C20.0176 10.4344 20.0962 10.2261 20.2471 10.0752C20.398 9.9243 20.6063 9.8457 20.8389 9.8457H21.2178Z" fill="black" stroke="black" stroke-width="0.379085"/>
<path d="M19.3223 7.82324C19.5549 7.82325 19.7632 7.90184 19.9141 8.05273C20.0649 8.20363 20.1436 8.41193 20.1436 8.64453V9.02344C20.1436 9.28022 20.0144 9.48667 19.8574 9.62402C19.704 9.75821 19.5036 9.84472 19.3223 9.84473C19.0897 9.84473 18.8814 9.76613 18.7305 9.61523C18.5796 9.46434 18.501 9.25602 18.501 9.02344V8.64453C18.501 8.41192 18.5796 8.20363 18.7305 8.05273C18.8814 7.90184 19.0897 7.82324 19.3223 7.82324Z" fill="black" stroke="black" stroke-width="0.379085"/>
<path d="M17.6797 9.84473L17.8496 9.85938C18.0133 9.88852 18.1584 9.96116 18.2715 10.0742C18.4224 10.2251 18.501 10.4334 18.501 10.666C18.501 10.8986 18.4224 11.1069 18.2715 11.2578C18.1206 11.4087 17.9123 11.4873 17.6797 11.4873H17.3008C17.0682 11.4873 16.8599 11.4087 16.709 11.2578C16.5581 11.1069 16.4795 10.8986 16.4795 10.666C16.4795 10.4334 16.5581 10.2251 16.709 10.0742C16.8599 9.92332 17.0682 9.84473 17.3008 9.84473H17.6797Z" fill="black" stroke="black" stroke-width="0.379085"/>
</svg>
