<svg width="33" height="25" viewBox="0 0 33 25" fill="none" xmlns="http://www.w3.org/2000/svg">
<path d="M3.36914 11.7332V8.25781H17.9482H21.8672V11.7332H21.3616H4.77132H3.36914Z" fill="black"/>
<path d="M20.3899 12.4421L20.347 12.4639C20.307 12.4847 20.2662 12.5057 20.2261 12.5272C20.2242 12.5283 20.2222 12.5293 20.2203 12.5304L20.2111 12.5355C20.175 12.5554 20.1369 12.5765 20.0992 12.5981L20.0753 12.6117C20.0452 12.6285 20.0143 12.647 19.9835 12.6654L19.9312 12.6968C19.8941 12.7192 19.8569 12.7423 19.8197 12.7659L19.7671 12.7996C19.7423 12.8159 19.7174 12.8322 19.6924 12.8489L19.6616 12.8696C19.6288 12.8915 19.5956 12.9145 19.5629 12.938L19.5334 12.9588C19.5002 12.982 19.4655 13.0071 19.4316 13.0323L19.3984 13.057C19.3635 13.0833 19.3305 13.1082 19.2979 13.1339L19.161 13.2433C19.1334 13.2662 19.1084 13.2873 19.0833 13.3086L19.0288 13.3558C18.9999 13.3805 18.9685 13.4082 18.9374 13.4359C18.9354 13.4375 18.9335 13.4393 18.9316 13.441L18.9091 13.4621C18.8804 13.4877 18.8523 13.5138 18.8242 13.54L18.8153 13.5481C18.8125 13.5508 18.8096 13.5534 18.8069 13.5562L18.775 13.5873C18.7543 13.6072 18.7335 13.6271 18.713 13.6471L18.6657 13.6945C18.6442 13.7163 18.6229 13.7381 18.6019 13.7599L18.5687 13.7943C18.539 13.8257 18.511 13.8557 18.4835 13.8856L18.4597 13.912C18.4338 13.9403 18.4067 13.9706 18.3802 14.0008L18.3606 14.0237C18.3358 14.0521 18.3102 14.0823 18.2845 14.1125L18.2572 14.1454C18.231 14.1773 18.2056 14.2088 18.1804 14.2402L18.1524 14.2756C18.126 14.3096 18.1013 14.3421 18.0767 14.3745L18.0559 14.4023C18.0341 14.431 18.011 14.4629 17.9882 14.4948L17.9738 14.5144C17.9464 14.553 17.9224 14.587 17.8988 14.6216L17.8729 14.6601C17.8509 14.6924 17.8282 14.7269 17.8058 14.762L17.7025 14.926C17.6826 14.9593 17.664 14.9906 17.6459 15.0218L17.623 15.0616C17.6096 15.0844 17.5947 15.1109 17.5798 15.1373L17.5181 15.251C17.5065 15.273 17.4947 15.295 17.4834 15.3172L17.4668 15.3497C17.4493 15.3839 17.4319 15.4185 17.4152 15.4531L17.3998 15.4846C17.3826 15.5205 17.3662 15.5551 17.3503 15.5892L17.3309 15.6322C17.3144 15.6691 17.298 15.706 17.282 15.7429L17.2634 15.7879C17.2536 15.8109 17.2435 15.8354 17.2334 15.8602H5.09649V12.3848H20.5059L20.4953 12.3897C20.4599 12.4073 20.4249 12.4247 20.3899 12.4421Z" fill="black"/>
<path d="M17.6221 7.60438H3.04306H1.68481V4.12891H7.19118H17.6221V7.60438Z" fill="black"/>
<path d="M7.51734 3.47603V0H23.4551V3.47603H17.9483H7.51734Z" fill="black"/>
<path d="M4.77164 16.5127H17.0088C16.9798 16.6137 16.954 16.7157 16.9298 16.818C16.9253 16.8373 16.9208 16.8566 16.9165 16.8759C16.9071 16.9173 16.8977 16.9586 16.8892 17.0001C16.8839 17.0254 16.8793 17.051 16.8743 17.0764C16.8625 17.1376 16.8514 17.199 16.8413 17.2606C16.8355 17.2949 16.83 17.3291 16.825 17.3636C16.8204 17.3949 16.8159 17.4261 16.8118 17.4575C16.8061 17.4999 16.801 17.5426 16.7961 17.5852C16.7934 17.6085 16.7904 17.6318 16.7881 17.6551C16.7814 17.7194 16.7759 17.784 16.7712 17.8487C16.7697 17.8704 16.7684 17.892 16.767 17.9136C16.7639 17.9634 16.7612 18.0133 16.7592 18.0633C16.7584 18.0844 16.7575 18.1056 16.7568 18.1268C16.7546 18.1956 16.7532 18.2646 16.7532 18.3338C16.7532 18.3983 16.7544 18.4625 16.7562 18.5266C16.7569 18.5468 16.7578 18.5669 16.7586 18.5871C16.7603 18.6316 16.7623 18.6758 16.7649 18.72C16.7663 18.743 16.7677 18.7662 16.7693 18.7892C16.7722 18.832 16.7757 18.8748 16.7795 18.9174C16.7814 18.9392 16.7832 18.9612 16.7853 18.983C16.7905 19.0354 16.7964 19.0876 16.8027 19.1396C16.8043 19.1518 16.8055 19.164 16.8071 19.1761C16.8147 19.2357 16.8234 19.2952 16.8327 19.3545C16.8367 19.3801 16.8412 19.4058 16.8455 19.4315C16.8516 19.467 16.8577 19.5026 16.8643 19.538C16.8698 19.5677 16.8756 19.5975 16.8815 19.6272C16.8876 19.6576 16.894 19.6879 16.9004 19.7181C16.9074 19.7504 16.9143 19.7828 16.9217 19.815C16.9266 19.8365 16.9321 19.8578 16.9372 19.8792C16.946 19.9155 16.9543 19.952 16.9636 19.9882H3.88175H-3.43323e-05V16.5128H4.77164V16.5127Z" fill="black"/>
<path d="M17.1993 20.713C17.2152 20.7537 17.2315 20.7942 17.2482 20.8345C17.2675 20.8812 17.2872 20.9279 17.3077 20.9741C17.3299 21.0246 17.3528 21.0748 17.3762 21.1247C17.3869 21.1472 17.3971 21.1699 17.408 21.1923C17.4434 21.2654 17.4805 21.3375 17.5186 21.409C17.5253 21.4216 17.5317 21.4342 17.5385 21.4466C17.5814 21.5261 17.6259 21.6045 17.6719 21.6819C17.6732 21.6841 17.6745 21.6863 17.6758 21.6886C18.0221 22.2703 18.4555 22.795 18.9581 23.2444C18.9622 23.2483 18.9666 23.2518 18.9707 23.2557C19.037 23.3146 19.1041 23.3724 19.1726 23.4287C19.187 23.4405 19.2016 23.4518 19.216 23.4634C19.2634 23.5018 19.3114 23.5393 19.3599 23.5764C19.4021 23.6087 19.4449 23.6403 19.4879 23.6716C19.5165 23.6924 19.5453 23.7131 19.5742 23.7335C19.7584 23.863 19.9484 23.9844 20.1455 24.0947V24.116H4.20818V20.6406H17.1702C17.1794 20.6649 17.1899 20.6887 17.1993 20.713Z" fill="black"/>
<path d="M24.9922 16.6348C25.0996 16.6348 25.2147 16.6708 25.2949 16.752L25.3467 16.8184C25.3902 16.8899 25.4101 16.9749 25.4102 17.0557C25.4102 17.1366 25.3904 17.2223 25.3467 17.2939L25.2949 17.3604L22.9492 19.7334C22.869 19.8145 22.7539 19.8506 22.6465 19.8506C22.583 19.8505 22.5248 19.8294 22.4795 19.8086C22.4394 19.7901 22.3866 19.7603 22.3682 19.751L22.3555 19.7441L22.3447 19.7334L21.2461 18.6221C21.1662 18.5412 21.1309 18.4261 21.1309 18.3184C21.1309 18.2105 21.166 18.0947 21.2461 18.0137L21.3125 17.9609C21.3833 17.9169 21.4676 17.8966 21.5479 17.8965C21.6552 17.8965 21.7704 17.9325 21.8506 18.0137L22.6465 18.8193L24.6904 16.752L24.7559 16.6992C24.8269 16.6548 24.9116 16.6348 24.9922 16.6348Z" fill="black" stroke="black" stroke-width="0.181468"/>
<path d="M26.626 15.3115C26.3968 15.3115 26.2092 15.5032 26.209 15.7324C26.209 15.8529 26.2681 15.9583 26.3447 16.0312C26.4205 16.1034 26.5233 16.1543 26.626 16.1543H31.6738C31.9029 16.1541 32.0908 15.9616 32.0908 15.7324C32.0906 15.5034 31.9028 15.3118 31.6738 15.3115H26.626Z" fill="black" stroke="black" stroke-width="0.181468"/>
<path d="M26.625 17.085C26.396 17.0851 26.2082 17.2768 26.208 17.5059C26.208 17.6268 26.2678 17.733 26.3496 17.8066C26.4312 17.88 26.5416 17.9277 26.6553 17.9277H30.9902C31.2193 17.9275 31.4072 17.7351 31.4072 17.5059C31.407 17.2768 31.2192 17.0852 30.9902 17.085H26.625Z" fill="black" stroke="black" stroke-width="0.181468"/>
<path d="M26.626 18.8574C26.3968 18.8574 26.2082 19.0491 26.208 19.2783C26.208 19.397 26.2655 19.5097 26.3418 19.5869C26.4127 19.6587 26.5164 19.7129 26.626 19.6982V19.7002H30.1592C30.3883 19.7 30.5762 19.5075 30.5762 19.2783C30.5759 19.0493 30.3881 18.8577 30.1592 18.8574H26.626Z" fill="black" stroke="black" stroke-width="0.181468"/>
<path d="M22.3223 10.5352L22.2383 10.5439C22.0487 10.5837 21.9045 10.7555 21.9043 10.9561C21.9043 11.1854 22.093 11.3779 22.3223 11.3779H23.0029V12.375C19.9368 12.6002 17.5098 15.1747 17.5098 18.3477C17.5098 21.6415 20.1624 24.3269 23.4199 24.3271C25.6815 24.3271 27.733 23.0452 28.6982 20.9697L28.6973 20.9688C28.7941 20.7962 28.7449 20.5762 28.585 20.4492L28.5088 20.3994C28.3362 20.299 28.1151 20.3514 27.9893 20.5137L27.9414 20.5908L27.9404 20.5918L27.7715 20.9102C26.8752 22.4649 25.2244 23.4248 23.4199 23.4248C20.6506 23.4246 18.375 21.1224 18.375 18.3174C18.3751 15.5121 20.6213 13.2112 23.4199 13.2109C24.6735 13.2109 25.869 13.6828 26.8027 14.5391L26.8076 14.542C26.9638 14.6684 27.1878 14.6916 27.3467 14.5625L27.4111 14.498C27.5354 14.3407 27.5578 14.1152 27.4307 13.9551L27.3672 13.8906C26.3929 12.9961 25.1319 12.4821 23.8379 12.375V11.3779H24.5186C24.7478 11.3779 24.9365 11.1854 24.9365 10.9561C24.9363 10.7269 24.7477 10.5352 24.5186 10.5352H22.3223Z" fill="black" stroke="black" stroke-width="0.181468"/>
</svg>
