<svg width="35" height="36" viewBox="0 0 35 36" fill="none" xmlns="http://www.w3.org/2000/svg">
<path d="M24.8174 9.23927H17.9237C17.9237 6.8954 16.1313 5.10303 13.7875 5.10303H8.27248C7.44523 5.10303 6.89373 4.55154 6.89373 3.72429C6.89373 2.89704 7.44523 2.34554 8.27248 2.34554H26.8855C27.2992 2.34554 27.5749 2.06979 27.5749 1.65617C27.5749 1.24255 27.2992 0.966797 26.8855 0.966797H8.27248C6.75586 0.966797 5.51498 2.20767 5.51498 3.72429C5.51498 5.24091 6.75586 6.48178 8.27248 6.48178H13.7875C15.3041 6.48178 16.545 7.72265 16.545 9.23927H8.27248C3.72261 9.23927 0 12.9619 0 17.5117V28.5417C0 31.575 2.48174 34.0567 5.51498 34.0567C7.03161 34.0567 8.41035 33.5052 9.37547 32.4022L15.7177 25.9221C15.9935 25.7842 16.1313 25.6464 16.4071 25.6464C16.6828 25.6464 16.9586 25.7842 17.0965 25.9221L23.4387 32.4022C24.4038 33.3673 25.7826 34.0567 27.2992 34.0567C30.3324 34.0567 32.8142 31.575 32.8142 28.5417V17.5117C33.0899 12.9619 29.3673 9.23927 24.8174 9.23927ZM30.3324 28.5417C30.3324 30.0583 29.0915 31.2992 27.5749 31.2992C26.7477 31.2992 26.0583 31.0235 25.6447 30.472L19.4403 24.2676C19.4403 24.2676 18.1994 23.0267 16.545 23.0267C14.8905 23.0267 13.6496 24.2676 13.6496 24.2676L7.44523 30.472C7.03161 31.0235 6.34223 31.2992 5.51498 31.2992C3.99836 31.2992 2.75749 30.0583 2.75749 28.5417V17.5117C2.75749 14.4785 5.23924 11.9968 8.27248 11.9968H24.8174C27.8507 11.9968 30.3324 14.4785 30.3324 17.5117V28.5417Z" fill="black"/>
<path d="M23.4393 17.5114C24.2008 17.5114 24.818 16.8941 24.818 16.1327C24.818 15.3712 24.2008 14.7539 23.4393 14.7539C22.6778 14.7539 22.0605 15.3712 22.0605 16.1327C22.0605 16.8941 22.6778 17.5114 23.4393 17.5114Z" fill="black"/>
<path d="M20.6815 20.2692C21.4429 20.2692 22.0602 19.6519 22.0602 18.8905C22.0602 18.129 21.4429 17.5117 20.6815 17.5117C19.92 17.5117 19.3027 18.129 19.3027 18.8905C19.3027 19.6519 19.92 20.2692 20.6815 20.2692Z" fill="black"/>
<path d="M26.1961 20.2692C26.9576 20.2692 27.5749 19.6519 27.5749 18.8905C27.5749 18.129 26.9576 17.5117 26.1961 17.5117C25.4347 17.5117 24.8174 18.129 24.8174 18.8905C24.8174 19.6519 25.4347 20.2692 26.1961 20.2692Z" fill="black"/>
<path d="M12.4084 17.5114H11.0296V16.1327C11.0296 15.3054 10.4781 14.7539 9.65089 14.7539C8.82364 14.7539 8.27214 15.3054 8.27214 16.1327V17.5114H6.89339C6.06615 17.5114 5.51465 18.0629 5.51465 18.8901C5.51465 19.7174 6.06615 20.2689 6.89339 20.2689H8.27214V21.6476C8.27214 22.4749 8.82364 23.0264 9.65089 23.0264C10.4781 23.0264 11.0296 22.4749 11.0296 21.6476V20.2689H12.4084C13.2356 20.2689 13.7871 19.7174 13.7871 18.8901C13.7871 18.0629 13.2356 17.5114 12.4084 17.5114Z" fill="black"/>
<rect x="22.8076" y="24.5449" width="10.0233" height="10.7392" fill="white"/>
<path d="M32.1152 23.8294H31.3992V23.1134C31.3992 22.9235 31.3238 22.7414 31.1895 22.6072C31.0553 22.4729 30.8732 22.3975 30.6833 22.3975C30.4934 22.3975 30.3113 22.4729 30.177 22.6072C30.0428 22.7414 29.9673 22.9235 29.9673 23.1134V23.8294H25.6717V23.1134C25.6717 22.9235 25.5962 22.7414 25.462 22.6072C25.3277 22.4729 25.1456 22.3975 24.9557 22.3975C24.7658 22.3975 24.5837 22.4729 24.4495 22.6072C24.3152 22.7414 24.2398 22.9235 24.2398 23.1134V23.8294H23.5238C22.9542 23.8294 22.4079 24.0556 22.0051 24.4584C21.6023 24.8612 21.376 25.4076 21.376 25.9772V33.8526C21.376 34.4222 21.6023 34.9686 22.0051 35.3714C22.4079 35.7742 22.9542 36.0004 23.5238 36.0004H32.1152C32.6848 36.0004 33.2311 35.7742 33.6339 35.3714C34.0367 34.9686 34.263 34.4222 34.263 33.8526V25.9772C34.263 25.4076 34.0367 24.8612 33.6339 24.4584C33.2311 24.0556 32.6848 23.8294 32.1152 23.8294ZM24.9557 33.8526C24.8141 33.8526 24.6757 33.8106 24.558 33.7319C24.4402 33.6533 24.3484 33.5415 24.2943 33.4106C24.2401 33.2798 24.2259 33.1359 24.2535 32.997C24.2811 32.8581 24.3493 32.7305 24.4495 32.6304C24.5496 32.5303 24.6772 32.4621 24.816 32.4345C24.9549 32.4068 25.0989 32.421 25.2297 32.4752C25.3605 32.5294 25.4723 32.6212 25.551 32.7389C25.6297 32.8566 25.6717 32.9951 25.6717 33.1367C25.6717 33.3265 25.5962 33.5086 25.462 33.6429C25.3277 33.7772 25.1456 33.8526 24.9557 33.8526ZM24.9557 30.9888C24.8141 30.9888 24.6757 30.9468 24.558 30.8682C24.4402 30.7895 24.3484 30.6777 24.2943 30.5469C24.2401 30.416 24.2259 30.2721 24.2535 30.1332C24.2811 29.9943 24.3493 29.8668 24.4495 29.7666C24.5496 29.6665 24.6772 29.5983 24.816 29.5707C24.9549 29.5431 25.0989 29.5572 25.2297 29.6114C25.3605 29.6656 25.4723 29.7574 25.551 29.8751C25.6297 29.9929 25.6717 30.1313 25.6717 30.2729C25.6717 30.4628 25.5962 30.6449 25.462 30.7791C25.3277 30.9134 25.1456 30.9888 24.9557 30.9888ZM27.8195 33.8526C27.6779 33.8526 27.5395 33.8106 27.4217 33.7319C27.304 33.6533 27.2122 33.5415 27.158 33.4106C27.1039 33.2798 27.0897 33.1359 27.1173 32.997C27.1449 32.8581 27.2131 32.7305 27.3132 32.6304C27.4134 32.5303 27.5409 32.4621 27.6798 32.4345C27.8187 32.4068 27.9627 32.421 28.0935 32.4752C28.2243 32.5294 28.3361 32.6212 28.4148 32.7389C28.4935 32.8566 28.5354 32.9951 28.5354 33.1367C28.5354 33.3265 28.46 33.5086 28.3257 33.6429C28.1915 33.7772 28.0094 33.8526 27.8195 33.8526ZM27.8195 30.9888C27.6779 30.9888 27.5395 30.9468 27.4217 30.8682C27.304 30.7895 27.2122 30.6777 27.158 30.5469C27.1039 30.416 27.0897 30.2721 27.1173 30.1332C27.1449 29.9943 27.2131 29.8668 27.3132 29.7666C27.4134 29.6665 27.5409 29.5983 27.6798 29.5707C27.8187 29.5431 27.9627 29.5572 28.0935 29.6114C28.2243 29.6656 28.3361 29.7574 28.4148 29.8751C28.4935 29.9929 28.5354 30.1313 28.5354 30.2729C28.5354 30.4628 28.46 30.6449 28.3257 30.7791C28.1915 30.9134 28.0094 30.9888 27.8195 30.9888ZM30.6833 30.9888C30.5417 30.9888 30.4033 30.9468 30.2855 30.8682C30.1678 30.7895 30.076 30.6777 30.0218 30.5469C29.9676 30.416 29.9535 30.2721 29.9811 30.1332C30.0087 29.9943 30.0769 29.8668 30.177 29.7666C30.2772 29.6665 30.4047 29.5983 30.5436 29.5707C30.6825 29.5431 30.8264 29.5572 30.9573 29.6114C31.0881 29.6656 31.1999 29.7574 31.2786 29.8751C31.3572 29.9929 31.3992 30.1313 31.3992 30.2729C31.3992 30.4628 31.3238 30.6449 31.1895 30.7791C31.0553 30.9134 30.8732 30.9888 30.6833 30.9888ZM32.8311 28.125H22.8079V25.9772C22.8079 25.7873 22.8833 25.6052 23.0176 25.4709C23.1518 25.3367 23.3339 25.2612 23.5238 25.2612H24.2398V25.9772C24.2398 26.1671 24.3152 26.3492 24.4495 26.4834C24.5837 26.6177 24.7658 26.6931 24.9557 26.6931C25.1456 26.6931 25.3277 26.6177 25.462 26.4834C25.5962 26.3492 25.6717 26.1671 25.6717 25.9772V25.2612H29.9673V25.9772C29.9673 26.1671 30.0428 26.3492 30.177 26.4834C30.3113 26.6177 30.4934 26.6931 30.6833 26.6931C30.8732 26.6931 31.0553 26.6177 31.1895 26.4834C31.3238 26.3492 31.3992 26.1671 31.3992 25.9772V25.2612H32.1152C32.3051 25.2612 32.4872 25.3367 32.6214 25.4709C32.7557 25.6052 32.8311 25.7873 32.8311 25.9772V28.125Z" fill="black"/>
</svg>
