<svg width="38" height="32" viewBox="0 0 38 32" fill="none" xmlns="http://www.w3.org/2000/svg">
<path d="M34.8008 18.8916C36.0743 18.8916 37.1084 19.9275 37.1084 21.1982V28.6953C37.1084 29.9674 36.0743 31.0029 34.8008 31.0029H34.5762C34.5784 31.0029 34.5792 31.0031 34.5732 31.0039C34.571 31.0042 34.5669 31.0045 34.5625 31.0049C34.5578 31.0053 34.5511 31.0059 34.5439 31.0059H19.625C19.6178 31.0059 19.6112 31.0054 19.6064 31.0049C19.6021 31.0044 19.598 31.0042 19.5957 31.0039C19.5934 31.0036 19.5923 31.003 19.5918 31.0029H19.3672C18.0937 31.0029 17.0586 29.9675 17.0586 28.6953V27.0439C17.0586 27.0343 17.0592 27.0259 17.0596 27.0215C17.06 27.0161 17.0605 27.0161 17.0605 27.0166V21.4033C17.0607 21.0447 17.3504 20.7542 17.709 20.7539C18.067 20.7539 18.3582 21.0445 18.3584 21.4033V26.3213C20.0953 26.6012 21.4663 27.9723 21.7451 29.708H32.4219C32.7008 27.9723 34.0729 26.6 35.8105 26.3213V23.5723C34.0744 23.2942 32.7028 21.9235 32.4219 20.1895H19.5713C19.2132 20.1894 18.9219 19.8977 18.9219 19.54C18.9221 19.1826 19.2133 18.8916 19.5713 18.8916H34.8008ZM18.3584 28.4404C18.3584 29.1281 18.9113 29.6879 19.5947 29.7041H20.4268C20.1812 28.6862 19.3775 27.8827 18.3584 27.6387V28.4404ZM35.8105 27.6387C34.791 27.8817 33.9848 28.6858 33.7393 29.7041H34.5762C35.2586 29.6876 35.8105 29.128 35.8105 28.4404V27.6387ZM27.085 21.2793C27.4433 21.2794 27.7334 21.5707 27.7334 21.9287V22.1611C28.3951 22.4217 28.8682 23.0595 28.8682 23.8145C28.868 24.172 28.579 24.4636 28.2207 24.4639C27.8618 24.4639 27.5714 24.1725 27.5713 23.8145C27.5713 23.5466 27.3518 23.3282 27.085 23.3281C26.8173 23.3281 26.5977 23.5466 26.5977 23.8145C26.5978 24.0814 26.8174 24.2998 27.085 24.2998C28.0682 24.2999 28.8682 25.0999 28.8682 26.085C28.8682 26.8384 28.395 27.4761 27.7334 27.7363V27.9688C27.7333 28.3265 27.4435 28.6181 27.085 28.6182C26.7258 28.6182 26.4356 28.3267 26.4355 27.9688V27.7363C25.774 27.4761 25.3008 26.8384 25.3008 26.085C25.3008 25.7257 25.5901 25.4347 25.9492 25.4346C26.3092 25.4346 26.5977 25.7257 26.5977 26.085C26.5977 26.3512 26.8172 26.5693 27.085 26.5693C27.3519 26.5693 27.5713 26.3513 27.5713 26.085C27.5713 25.8156 27.3516 25.5977 27.085 25.5977C26.1005 25.5977 25.3009 24.7982 25.3008 23.8145C25.3008 23.0595 25.7739 22.4217 26.4355 22.1611V21.9287C26.4355 21.5706 26.7259 21.2793 27.085 21.2793ZM33.7402 20.1895C33.9858 21.2069 34.7902 22.0091 35.8086 22.2539L35.8096 21.4541L35.8027 21.3242C35.7366 20.6878 35.1969 20.1895 34.5439 20.1895H33.7402Z" fill="black" stroke="black" stroke-width="0.21637"/>
<path d="M9 1.5H21.001V0H24.001V1.5H27.001C28.6577 1.50012 30.0009 2.84323 30.001 4.5V19.501H27.001V12H3V27.001H18.001V30.001H3C1.34321 30.0009 0.000117247 28.6577 0 27.001V4.5C6.84166e-05 2.84319 1.34318 1.50005 3 1.5H6V0H9V1.5ZM10.5 24.001H7.5V21.001H10.5V24.001ZM16.5 24.001H13.5V21.001H16.5V24.001ZM10.5 18.001H7.5V15H10.5V18.001ZM16.5 18.001H13.5V15H16.5V18.001ZM22.501 18.001H19.501V15H22.501V18.001ZM3 9H27.001V4.5H24.001V6H21.001V4.5H9V6H6V4.5H3V9Z" fill="black"/>
</svg>
