<svg width="35" height="35" viewBox="0 0 35 35" fill="none" xmlns="http://www.w3.org/2000/svg">
<path d="M13.125 28.9844H1.09375V33.9062H13.125V28.9844Z" fill="black"/>
<path d="M23.5156 8.20312V1.09375H14.2188V3.28125L12.0312 4.92188L14.2188 5.46875V8.20312H23.5156ZM17.3398 3.98836L18.5938 5.24231L20.9415 2.89458L21.7148 3.66789L18.9804 6.40227C18.9296 6.45306 18.8693 6.49335 18.803 6.52084C18.7367 6.54833 18.6655 6.56248 18.5937 6.56248C18.5219 6.56248 18.4508 6.54833 18.3845 6.52084C18.3181 6.49335 18.2578 6.45306 18.2071 6.40227L16.5665 4.76164L17.3398 3.98836Z" fill="black"/>
<path d="M22.9688 30.6244V33.9057H27.3438V30.6244C27.3429 30.2162 27.2274 29.8163 27.0105 29.4704C26.7936 29.1246 26.4839 28.8465 26.1167 28.668C26.3979 28.4649 26.6076 28.1779 26.7155 27.8483C26.8234 27.5186 26.824 27.1632 26.7173 26.8332C26.6106 26.5031 26.402 26.2154 26.1216 26.0113C25.8411 25.8072 25.5031 25.6973 25.1562 25.6973C24.8094 25.6973 24.4714 25.8072 24.1909 26.0113C23.9105 26.2154 23.7019 26.5031 23.5952 26.8332C23.4885 27.1632 23.4891 27.5186 23.597 27.8483C23.7049 28.1779 23.9146 28.4649 24.1958 28.668C23.8286 28.8465 23.5189 29.1246 23.302 29.4704C23.0851 29.8163 22.9696 30.2162 22.9688 30.6244Z" fill="black"/>
<path d="M32.6792 28.668C32.9604 28.4649 33.1701 28.1779 33.278 27.8483C33.3859 27.5186 33.3865 27.1632 33.2798 26.8332C33.1731 26.5031 32.9645 26.2154 32.6841 26.0113C32.4036 25.8072 32.0656 25.6973 31.7188 25.6973C31.3719 25.6973 31.0339 25.8072 30.7534 26.0113C30.473 26.2154 30.2644 26.5031 30.1577 26.8332C30.051 27.1632 30.0516 27.5186 30.1595 27.8483C30.2674 28.1779 30.4771 28.4649 30.7583 28.668C30.3911 28.8465 30.0814 29.1246 29.8645 29.4704C29.6476 29.8163 29.5321 30.2162 29.5312 30.6244V33.9057H33.9062V30.6244C33.9054 30.2162 33.7899 29.8163 33.573 29.4704C33.3561 29.1246 33.0464 28.8465 32.6792 28.668Z" fill="black"/>
<path d="M20.7812 30.6244C20.7804 30.2162 20.6649 29.8163 20.448 29.4704C20.2311 29.1246 19.9214 28.8465 19.5542 28.668C19.8354 28.4649 20.0451 28.1779 20.153 27.8483C20.2609 27.5186 20.2615 27.1632 20.1548 26.8332C20.0481 26.5031 19.8395 26.2154 19.5591 26.0113C19.2786 25.8072 18.9406 25.6973 18.5938 25.6973C18.2469 25.6973 17.9089 25.8072 17.6284 26.0113C17.348 26.2154 17.1394 26.5031 17.0327 26.8332C16.926 27.1632 16.9266 27.5186 17.0345 27.8483C17.1424 28.1779 17.3521 28.4649 17.6333 28.668C17.2661 28.8465 16.9564 29.1246 16.7395 29.4704C16.5226 29.8163 16.4071 30.2162 16.4062 30.6244V33.9057H20.7812V30.6244Z" fill="black"/>
<path d="M16.4062 13.1245H9.08932C9.42622 12.8323 9.66579 12.4442 9.77596 12.0122C9.88612 11.5801 9.86162 11.1247 9.70572 10.7069C9.54982 10.2891 9.26998 9.929 8.90369 9.67472C8.53739 9.42045 8.10214 9.28418 7.65624 9.28418C7.21034 9.28418 6.77508 9.42045 6.40879 9.67472C6.0425 9.929 5.76266 10.2891 5.60676 10.7069C5.45086 11.1247 5.42636 11.5801 5.53652 12.0122C5.64669 12.4442 5.88626 12.8323 6.22315 13.1245H5.19325C4.87034 13.1245 4.5506 13.1881 4.25227 13.3116C3.95395 13.4352 3.68288 13.6163 3.45456 13.8446C3.22623 14.073 3.04511 14.344 2.92154 14.6424C2.79797 14.9407 2.73437 15.2604 2.73438 15.5833V20.7807H4.375V16.3588C4.37718 16.1535 4.42786 15.9517 4.5229 15.7698C4.61794 15.5879 4.75465 15.431 4.92188 15.312V28.437H7.38281V20.7807H7.92969V28.437H10.3906V14.7651H16.4062V13.1245Z" fill="black"/>
</svg>
