<svg width="26" height="26" viewBox="0 0 26 26" fill="none" xmlns="http://www.w3.org/2000/svg">
<path d="M24.5698 17.6804C24.4398 17.1604 23.9198 16.9004 23.3998 16.9004H18.1998C17.4198 16.9004 16.8998 17.4204 16.8998 18.2004C16.8998 18.9804 17.4198 19.5004 18.1998 19.5004H20.2798L17.2898 22.4904C16.8998 22.8804 16.7698 23.4004 17.0298 23.9204C17.2898 24.4404 17.6798 24.7004 18.1998 24.7004H23.3998C24.1798 24.7004 24.6998 24.1804 24.6998 23.4004C24.6998 22.6204 24.1798 22.1004 23.3998 22.1004H21.3198L24.3098 19.1104C24.6998 18.7204 24.8298 18.2004 24.5698 17.6804Z" fill="black"/>
<path d="M13 0C5.85 0 0 5.85 0 13C0 20.15 5.85 26 13 26C13.78 26 14.3 25.48 14.3 24.7C14.3 23.92 13.78 23.4 13 23.4C7.28 23.4 2.6 18.72 2.6 13C2.6 7.28 7.28 2.6 13 2.6C18.72 2.6 23.4 7.28 23.4 13C23.4 13.78 23.92 14.3 24.7 14.3C25.48 14.3 26 13.78 26 13C26 5.85 20.15 0 13 0Z" fill="black"/>
<path d="M14.2996 7.7998C13.5196 7.7998 12.9996 8.3198 12.9996 9.0998V12.4798L9.48961 15.9898C8.96961 16.5098 8.96961 17.2898 9.48961 17.8098C9.74961 18.0698 10.0096 18.1998 10.3996 18.1998C10.7896 18.1998 11.0496 18.0698 11.3096 17.8098L15.2096 13.9098C15.4696 13.6498 15.5996 13.3898 15.5996 12.9998V9.0998C15.5996 8.3198 15.0796 7.7998 14.2996 7.7998Z" fill="black"/>
</svg>
