<svg width="31" height="23" viewBox="0 0 31 23" fill="none" xmlns="http://www.w3.org/2000/svg">
<path d="M23.9264 0.270828C20.8201 -0.649291 19.8446 1.09409 15.5 1.09409C11.1554 1.09409 10.1799 -0.656209 7.07365 0.270828C3.96738 1.19095 2.4177 4.44941 0.951048 10.5651C-0.515608 16.6877 -0.245798 21.1084 1.48375 21.9317C3.2133 22.7549 5.16423 20.8663 7.02522 18.5348C8.53338 16.7084 9.28747 16.5908 15.5 16.5908C21.7056 16.5908 22.349 16.6393 23.9748 18.5348C25.8358 20.8663 27.7867 22.7549 29.5163 21.9317C31.2458 21.1084 31.5156 16.6877 30.049 10.5651C28.5823 4.44941 27.0257 1.19787 23.9264 0.270828ZM6.65855 11.589C5.15731 11.589 3.93971 10.3645 3.93971 8.84938C3.93971 7.34122 5.15731 6.10978 6.65855 6.10978C8.1598 6.10978 9.3774 7.34122 9.3774 8.84938C9.3774 10.3575 8.1598 11.589 6.65855 11.589ZM19.2151 10.1984C18.4817 10.1984 17.8799 9.59655 17.8799 8.8563C17.8799 8.11606 18.4817 7.51417 19.2151 7.51417C19.9553 7.51417 20.5572 8.11606 20.5572 8.8563C20.5503 9.59655 19.9553 10.1984 19.2151 10.1984ZM22.1345 13.1317C21.4012 13.1317 20.7993 12.5299 20.7993 11.7896C20.7993 11.0424 21.4012 10.4475 22.1345 10.4475C22.8748 10.4475 23.4767 11.0494 23.4767 11.7896C23.4767 12.5368 22.8748 13.1317 22.1345 13.1317ZM22.1345 7.2582C21.4012 7.2582 20.7993 6.65632 20.7993 5.91607C20.7993 5.17582 21.4012 4.57394 22.1345 4.57394C22.8748 4.57394 23.4767 5.17582 23.4767 5.91607C23.4767 6.65632 22.8748 7.2582 22.1345 7.2582ZM25.0609 10.1984C24.3207 10.1984 23.7257 9.59655 23.7257 8.8563C23.7257 8.11606 24.3276 7.51417 25.0609 7.51417C25.7943 7.51417 26.3961 8.11606 26.3961 8.8563C26.3961 9.59655 25.8012 10.1984 25.0609 10.1984Z" fill="black"/>
</svg>
