<svg width="27" height="32" viewBox="0 0 27 32" fill="none" xmlns="http://www.w3.org/2000/svg">
<path d="M1.92059 0H19.7546C20.8064 0 21.6752 0.960294 21.6752 2.14923V8.96274C21.6752 10.1517 20.8064 11.112 19.7546 11.112H1.92059C0.868837 11.112 0 10.1517 0 8.96274V2.14923C0 0.960294 0.868837 0 1.92059 0Z" fill="black"/>
<path d="M23.2753 31.0948C22.9095 31.0491 22.5436 30.9119 22.2693 30.5918L19.8457 28.1682C19.1597 27.4823 19.1597 27.025 19.7085 26.2476C21.4461 23.9612 20.9889 20.6688 18.7025 18.9311C18.5653 18.7939 18.3824 18.7025 18.1994 18.611C18.108 18.5653 18.0623 18.5196 17.9708 18.4738L17.6507 18.2909L17.6964 18.5196C17.7422 18.7482 17.8336 18.9768 17.8793 19.2055C18.0165 19.7085 18.1537 20.2572 18.2452 20.7603L18.2909 20.9432C18.4738 21.7205 18.5195 22.5437 18.5195 23.3668C18.3366 24.9215 17.0105 26.1105 15.4557 26.019H15.3186C13.7181 25.9275 12.4834 24.6014 12.4377 23.0009C12.4834 21.5834 12.7578 20.2115 13.2608 18.8854L13.4894 18.2909L13.2608 18.4281C10.6543 19.7085 9.60253 22.818 10.8372 25.4245C10.9744 25.7446 11.1573 26.0647 11.3859 26.3391C11.9347 27.0708 11.8889 27.5738 11.2487 28.214L10.7 28.7627L8.82515 30.6376C8.5965 30.9119 8.23068 31.0948 7.86485 31.0948C7.4533 31.0491 7.08747 30.8662 6.85883 30.5461C2.78901 25.6989 3.38348 18.4738 8.18495 14.404C9.64826 13.1694 11.4317 12.3005 13.3065 11.9347C14.0382 11.7975 14.7698 11.7061 15.5472 11.7061C21.309 11.7061 26.1562 16.0045 26.8878 21.7205C27.3451 24.9215 26.3848 28.1682 24.2813 30.5918C24.0527 30.8662 23.6411 31.0491 23.2753 31.0948ZM20.4401 19.114L20.4859 19.2055C22.315 21.5376 22.315 24.7843 20.4401 27.0708L20.3944 27.1622L23.2296 30.0431L23.2753 29.9974C26.7506 26.1105 26.7506 20.2572 23.321 16.3703L23.2753 16.2789L20.4401 19.114ZM7.7734 16.3246C4.34378 20.0286 4.34378 26.2934 7.7734 29.9516L7.86485 30.0431L10.7 27.2079L10.6543 27.1165C8.82515 24.4642 8.82515 21.812 10.6543 19.1598L10.7 19.0683L7.86485 16.2332L7.7734 16.3246ZM15.41 16.1417C15.3643 16.1874 15.3643 16.2332 15.3643 16.2789C15.2271 16.6447 15.1356 16.9648 14.9985 17.2849C14.7241 18.0623 14.4497 18.8854 14.1754 19.7085C13.901 20.7145 13.6723 21.7663 13.5352 22.818C13.4437 23.4125 13.6266 24.007 14.0382 24.4185C14.404 24.8301 14.9527 25.1044 15.5472 25.1044C16.6904 25.1044 17.605 24.1441 17.605 23.0467C17.605 22.9552 17.605 22.8638 17.5592 22.7723C17.2849 20.7603 16.7361 18.7939 15.9588 16.9191L15.5472 15.8216L15.41 16.1417ZM15.5472 14.907C16.0502 14.8613 16.5075 15.1814 16.6447 15.6844C16.7361 15.8673 16.7819 16.0502 16.8733 16.2789C16.9648 16.4618 17.0105 16.599 17.0562 16.7819C17.102 16.9191 17.1934 17.0105 17.2849 17.102C17.8793 17.3764 18.4738 17.6507 19.0683 17.9251L19.6627 18.1995L22.4522 15.41L22.3607 15.3186C20.4859 13.6266 18.0165 12.7121 15.5015 12.7578C12.9864 12.7121 10.5628 13.6266 8.73369 15.3186L8.64223 15.41L11.4317 18.1995L12.0719 17.9251C12.6206 17.6507 13.1693 17.4221 13.7181 17.1477C13.8553 17.0563 13.9467 16.9648 13.9924 16.8276C14.0839 16.6447 14.1296 16.4618 14.2211 16.2789C14.3125 16.096 14.3583 15.9131 14.404 15.7301C14.6326 15.1814 15.0899 14.8613 15.5472 14.907Z" fill="black"/>
<path d="M18.7948 2.74422C18.7948 2.69849 18.7948 2.65277 18.749 2.60704C18.749 2.56131 18.7033 2.51558 18.7033 2.51558C18.7033 2.46985 18.6576 2.46985 18.6576 2.42412C18.6119 2.3784 18.5661 2.3784 18.5204 2.33267L18.4747 2.28694H18.4289C18.3832 2.28694 18.3375 2.24121 18.2918 2.24121H16.3712C16.0511 2.24121 15.8224 2.46985 15.8224 2.78995C15.8224 3.11005 16.0511 3.33869 16.3712 3.33869H16.9199L13.9933 6.12811L9.69484 4.57335C9.51193 4.4819 9.28329 4.52762 9.10037 4.66481L5.62503 7.86579L3.56725 7.17986C3.29288 7.08841 2.97279 7.22559 2.88133 7.54569C2.78987 7.82006 2.92706 8.14016 3.24716 8.23161L5.5793 9.009C5.62503 9.009 5.71648 9.05472 5.76221 9.05472C5.89939 9.05472 6.03658 9.00899 6.12804 8.91754L9.55766 5.71656L13.8104 7.31705C13.9933 7.4085 14.2219 7.36278 14.4049 7.17986L17.6516 4.07034V4.71054C17.6516 5.03064 17.8802 5.25928 18.2003 5.25928C18.5204 5.25928 18.749 5.03064 18.749 4.71054V2.78995C18.7948 2.78995 18.7948 2.78995 18.7948 2.74422Z" fill="white"/>
</svg>
