<svg width="22" height="30" viewBox="0 0 22 30" fill="none" xmlns="http://www.w3.org/2000/svg">
<path d="M16.5014 20.9937C17.3025 20.5198 17.5059 19.2336 18.1562 18.5686C18.8065 17.9036 20.0642 17.6967 20.5277 16.877C20.9849 16.069 20.5372 14.8532 20.7783 13.9304C21.0107 13.0369 21.9504 12.2166 21.9504 11.2498C21.9504 10.283 20.9609 9.46153 20.7277 8.57034C20.4866 7.64751 20.9346 6.43171 20.4776 5.62372C20.0143 4.80459 18.7569 4.59718 18.1066 3.93215C17.4563 3.26712 17.2535 1.98102 16.4525 1.507C15.6623 1.03949 14.4734 1.49741 13.571 1.25066C12.7485 1.01189 11.9463 0 11.0009 0C10.0556 0 9.2534 1.01189 8.38248 1.25037C7.47719 1.49646 6.29115 1.03885 5.49931 1.50583C4.6983 1.97984 4.49546 3.26595 3.84515 3.93039C3.1954 4.59542 1.93716 4.80284 1.47363 5.62196C1.0164 6.42761 1.46446 7.64634 1.22324 8.56624C0.989471 9.46271 0 10.283 0 11.2498C0 12.2166 0.989516 13.038 1.22271 13.9292C1.46376 14.8521 1.01559 16.0679 1.47259 16.8758C1.93659 17.695 3.19368 17.9 3.84343 18.568C4.49375 19.233 4.69658 20.5191 5.49816 20.9937C6.28828 21.4612 7.47662 21.003 8.37905 21.2497C9.2534 21.4859 10.0556 22.4996 11.0009 22.4996C11.9463 22.4996 12.7496 21.4877 13.6217 21.2492C14.5247 21.0054 15.7107 21.4625 16.5014 20.9937ZM6.4172 11.2498C6.4172 8.65589 8.469 6.56237 11.0009 6.56237C13.5329 6.56237 15.5847 8.65589 15.5847 11.2498C15.5847 13.8378 13.5329 15.9372 11.0009 15.9372C8.469 15.9372 6.4172 13.8396 6.4172 11.2498ZM0.0984474 25.3823C-0.0877673 25.8621 -0.00359827 26.4065 0.320473 26.8032C0.644544 27.1987 1.153 27.3831 1.64518 27.2806L4.23442 26.7512L5.46229 29.2279C5.6987 29.7065 6.16509 29.9994 6.6865 29.9994C6.70619 29.9994 6.72455 29.9987 6.74425 29.9978C7.28857 29.9758 7.75554 29.6415 7.96124 29.126L9.88526 24.3167C6.80785 24.0449 4.04099 22.6691 1.96684 20.5697L0.0984474 25.3823ZM20.0309 20.5719C17.9597 22.6712 15.1922 24.047 12.1125 24.3189L14.0365 29.1281C14.2425 29.6436 14.7092 29.9777 15.2535 30C15.2753 29.9467 15.2466 29.9994 15.3154 29.9994C15.8365 29.9994 16.3026 29.708 16.5387 29.2295L17.7666 26.7522L20.3558 27.2816C20.8482 27.3841 21.3568 27.1997 21.6805 26.8042C22.0046 26.4077 22.0887 25.8632 21.9025 25.3833L20.0309 20.5719Z" fill="#2B2BC4"/>
</svg>
