<svg width="40" height="30" viewBox="0 0 40 30" fill="none" xmlns="http://www.w3.org/2000/svg">
<path d="M5.99005 19.675C5.59692 19.675 5.27526 20.0205 5.27526 20.4427V24.2733C5.27526 24.7493 4.91786 25.1254 4.46754 25.1254C4.01722 25.1254 3.65982 24.7493 3.65982 24.2733V23.5671C3.65982 23.1449 3.33816 22.7994 2.94502 22.7994C2.55188 22.7994 2.23022 23.1449 2.23022 23.5671V24.2733C2.23022 25.586 3.23809 26.6607 4.46754 26.6607C5.69699 26.6607 6.70485 25.586 6.70485 24.2733V20.4427C6.70485 20.0205 6.38319 19.675 5.99005 19.675Z" fill="#FAB106"/>
<path d="M9.50673 19.3142C8.33447 19.3142 7.38379 20.3352 7.38379 21.5941V25.893C7.38379 26.3152 7.70545 26.6607 8.09859 26.6607C8.49172 26.6607 8.81338 26.3152 8.81338 25.893V23.7589H10.2001V25.893C10.2001 26.3152 10.5217 26.6607 10.9149 26.6607C11.308 26.6607 11.6297 26.3152 11.6297 25.893V21.5941C11.6297 20.3352 10.679 19.3142 9.50673 19.3142ZM8.81338 22.2236V21.5941C8.81338 21.1873 9.12074 20.8495 9.50673 20.8495C9.89272 20.8495 10.2001 21.1873 10.2001 21.5941V22.2236H8.81338Z" fill="#FAB106"/>
<path d="M14.7248 20.8495C14.9893 20.8495 15.2395 20.957 15.4253 21.1566C15.7041 21.456 16.1616 21.456 16.4332 21.1566C16.712 20.8572 16.712 20.3736 16.4332 20.0742C15.9829 19.5906 15.3753 19.3219 14.7248 19.3219C13.3953 19.3219 12.3088 20.4887 12.3088 21.9166V23.9278C12.3088 25.3557 13.3953 26.5225 14.7248 26.5225C15.3753 26.5225 15.9829 26.2538 16.4332 25.7702C16.712 25.4708 16.712 24.9872 16.4332 24.6878C16.1544 24.3884 15.7041 24.3884 15.4253 24.6878C15.2395 24.8874 14.9965 24.9949 14.7248 24.9949C14.1816 24.9949 13.7384 24.5189 13.7384 23.9355V21.9243C13.7384 21.3408 14.1816 20.8649 14.7248 20.8649V20.8495Z" fill="#FAB106"/>
<path d="M19.0851 22.9913L21.0793 21.0031C21.3653 20.7113 21.3867 20.2277 21.1151 19.9207C20.8435 19.6136 20.3931 19.5906 20.1072 19.8823L18.7563 21.2333V20.0819C18.7563 19.6597 18.4346 19.3142 18.0415 19.3142C17.6483 19.3142 17.3267 19.6597 17.3267 20.0819V25.893C17.3267 26.3152 17.6483 26.6607 18.0415 26.6607C18.4346 26.6607 18.7563 26.3152 18.7563 25.893V24.7492L20.1144 26.0926C20.2502 26.2308 20.4289 26.2999 20.6004 26.2999C20.7934 26.2999 20.9864 26.2154 21.1222 26.0542C21.3939 25.7395 21.3724 25.2559 21.0865 24.9718L19.0994 22.9913H19.0851Z" fill="#FAB106"/>
<path d="M24.5175 19.3142H22.6948C22.3016 19.3142 21.98 19.6597 21.98 20.0819V25.893C21.98 26.3152 22.3016 26.6607 22.6948 26.6607C23.0879 26.6607 23.4096 26.3152 23.4096 25.893V23.7589H24.5175C25.6612 23.7589 26.5904 22.761 26.5904 21.5327C26.5904 20.3045 25.6612 19.3142 24.5175 19.3142ZM24.5175 22.2236H23.4096V20.8495H24.5175C24.8749 20.8495 25.1608 21.1489 25.1608 21.5327C25.1608 21.9166 24.8749 22.2236 24.5175 22.2236Z" fill="#FAB106"/>
<path d="M29.6855 19.3142C28.356 19.3142 27.2695 20.481 27.2695 21.9089V23.9201C27.2695 25.348 28.3489 26.5148 29.6855 26.5148C31.0222 26.5148 32.1016 25.348 32.1016 23.9201V21.9089C32.1016 20.481 31.0151 19.3142 29.6855 19.3142ZM30.672 23.9201C30.672 24.5036 30.2288 24.9795 29.6855 24.9795C29.1423 24.9795 28.6991 24.5036 28.6991 23.9201V21.9089C28.6991 21.3255 29.1423 20.8495 29.6855 20.8495C30.2288 20.8495 30.672 21.3255 30.672 21.9089V23.9201Z" fill="#FAB106"/>
<path d="M37.0265 19.3142H33.4882C33.0951 19.3142 32.7734 19.6597 32.7734 20.0819C32.7734 20.5041 33.0951 20.8495 33.4882 20.8495H34.539V25.893C34.539 26.3152 34.8606 26.6607 35.2538 26.6607C35.6469 26.6607 35.9686 26.3152 35.9686 25.893V20.8495H37.0193C37.4125 20.8495 37.7341 20.5041 37.7341 20.0819C37.7341 19.6597 37.4125 19.3142 37.0193 19.3142H37.0265Z" fill="#FAB106"/>
<path d="M37.7341 10.4248H37.2909C37.3052 10.348 37.3338 10.2712 37.3338 10.1945C37.3338 9.42682 36.8263 8.77431 36.1115 8.63613L34.1315 8.27533L33.2023 6.36387C32.945 5.84186 32.4518 5.51945 31.9085 5.51945C31.3653 5.51945 30.8649 5.84186 30.6076 6.36387L29.6783 8.27533L27.6984 8.63613C26.9907 8.77431 26.4832 9.42682 26.4832 10.1868C26.4832 10.2636 26.5118 10.3403 26.5261 10.4171H24.6819L24.5175 9.21187L26.3331 7.21597C26.6548 6.86285 26.8406 6.37155 26.8406 5.87257C26.8406 4.92835 26.2116 4.13767 25.3538 3.97646L22.7877 3.50051L21.5797 1.02866C21.2723 0.399181 20.6648 0 20 0C19.3352 0 18.7277 0.391505 18.4132 1.02866L17.2051 3.50051L14.6462 3.97646C13.7813 4.12999 13.1594 4.92835 13.1594 5.87257C13.1594 6.37155 13.3452 6.86285 13.6669 7.21597L15.4825 9.21187L15.3181 10.4171H13.4739C13.4882 10.3403 13.5168 10.2636 13.5168 10.1868C13.5168 9.41914 13.0093 8.76663 12.2945 8.62845L10.3145 8.26766L9.38528 6.35619C9.12795 5.83419 8.63474 5.51177 8.09149 5.51177C7.54825 5.51177 7.05504 5.83419 6.79057 6.35619L5.86133 8.26766L3.88134 8.62845C3.1737 8.76663 2.66619 9.41914 2.66619 10.1791C2.66619 10.2559 2.69478 10.3327 2.70908 10.4094H2.2659C1.01501 10.4094 0 11.4995 0 12.8352V27.5742C0 28.9099 1.01501 30 2.2659 30H37.7341C38.985 30 40 28.9099 40 27.5742V12.8506C40 11.5148 38.985 10.4248 37.7341 10.4248ZM30.2573 9.73388C30.4789 9.6955 30.6648 9.54197 30.772 9.3347L31.9014 7.07011C31.9014 7.07011 31.93 7.07779 31.9371 7.09314L33.0307 9.3347C33.1308 9.54964 33.3238 9.6955 33.5454 9.73388L35.8899 10.2329L34.2387 12.0445C34.0815 12.2134 34.01 12.4591 34.0457 12.6894L34.3317 15.238L32.2159 14.1172C32.1158 14.0635 32.0086 14.0404 31.9014 14.0404C31.7941 14.0404 31.6869 14.0635 31.5868 14.1172L29.4139 15.1996L29.757 12.6894C29.7856 12.4514 29.7141 12.2134 29.564 12.0445L27.9342 10.1638L30.2573 9.74155V9.73388ZM14.6676 6.1566C14.6033 6.08751 14.5675 5.98772 14.5675 5.88792C14.5675 5.70369 14.6962 5.54248 14.8678 5.51177L17.7841 4.97441C18.0057 4.93603 18.1916 4.7825 18.2988 4.57523L19.6712 1.76561C19.7927 1.51996 20.1858 1.51996 20.3074 1.76561L21.6798 4.57523C21.7798 4.79017 21.9728 4.93603 22.1944 4.97441L25.1108 5.51177C25.2823 5.54248 25.411 5.70369 25.411 5.88792C25.411 5.98772 25.3753 6.08751 25.3109 6.1566L23.2452 8.42119C23.0879 8.59007 23.0164 8.83572 23.0522 9.06602L23.4811 12.2671C23.4811 12.4821 23.3167 12.651 23.1237 12.651C23.0665 12.651 23.0093 12.6356 22.9664 12.6126L20.3145 11.2001C20.2144 11.1464 20.1072 11.1233 20 11.1233C19.8928 11.1233 19.7856 11.1464 19.6855 11.2001L17.0407 12.6049C16.8263 12.7201 16.5189 12.5512 16.5189 12.2057L16.9478 9.06602C16.9836 8.82804 16.9049 8.59007 16.7548 8.42119L14.6891 6.1566H14.6676ZM6.41887 9.73388C6.64046 9.6955 6.8263 9.54197 6.93352 9.3347L8.0629 7.07011C8.0629 7.07011 8.09149 7.07779 8.09864 7.09314L9.19228 9.34237C9.29235 9.55732 9.48535 9.70317 9.70693 9.74155L12.0515 10.2405L10.4003 12.0522C10.243 12.2211 10.1716 12.4667 10.2073 12.697L10.4932 15.2456L8.37741 14.1249C8.27734 14.0711 8.17012 14.0481 8.0629 14.0481C7.95568 14.0481 7.84846 14.0711 7.74839 14.1249L5.57541 15.2073L5.91851 12.697C5.9471 12.4591 5.87563 12.2211 5.72552 12.0522L4.09578 10.1714L6.41887 9.74923V9.73388ZM38.5633 27.5896C38.5633 28.0885 38.1987 28.48 37.7269 28.48H2.23731C1.76555 28.48 1.401 28.0885 1.401 27.5896V12.8506C1.401 12.3516 1.76555 11.9601 2.23731 11.9601H3.65976L4.46033 12.8429L4.17441 14.9539C4.16011 15.0384 4.15297 15.1151 4.15297 15.1996C4.15297 16.067 4.81058 16.7733 5.6183 16.7733C5.83274 16.7733 6.06147 16.7196 6.26876 16.6121L8.07005 15.6602L9.87849 16.6198C10.0786 16.7272 10.3002 16.781 10.5218 16.781C11.3295 16.781 11.9871 16.0747 11.9871 15.2073C11.9871 15.1305 11.9871 15.0614 11.9728 14.977L11.6798 12.8429L12.4803 11.9601H15.0965V11.9985C15.0822 12.0906 15.0751 12.175 15.0751 12.2595C15.0751 13.3188 15.8756 14.1786 16.862 14.1786C17.1337 14.1786 17.4053 14.1095 17.6555 13.9867L19.9857 12.7431L22.3231 13.9867C22.5661 14.1095 22.8377 14.1786 23.1094 14.1786C24.0958 14.1786 24.8964 13.3188 24.8964 12.2595C24.8964 12.175 24.8964 12.0906 24.8749 11.9754V11.9601H27.4911L28.2916 12.8429L27.9986 14.9846C27.9914 15.0614 27.9843 15.1305 27.9843 15.2073C27.9843 16.0747 28.6419 16.781 29.4496 16.781C29.6712 16.781 29.8928 16.7272 30.1001 16.6198L31.9014 15.6679L33.7098 16.6274C33.9099 16.7349 34.1315 16.7886 34.3531 16.7886C35.1608 16.7886 35.8184 16.0824 35.8184 15.2149C35.8184 15.1305 35.8184 15.0537 35.8041 14.9923L35.5111 12.8582L36.3117 11.9754H37.7341C38.2059 11.9754 38.5704 12.3669 38.5704 12.8659V27.6049L38.5633 27.5896Z" fill="#FAB106"/>
</svg>
