<svg width="31" height="30" viewBox="0 0 31 30" fill="none" xmlns="http://www.w3.org/2000/svg">
<path d="M9.82847 0C6.72559 0 4.19336 2.63597 4.19336 5.86597C4.19336 9.05544 5.42524 12.6095 7.11862 15.5058C7.96532 16.954 8.92737 18.2388 9.98513 19.2033C11.0429 20.1678 12.2185 20.8698 13.5567 20.8698H17.0719C18.4784 20.8698 19.6476 20.0508 20.6997 18.9918C21.7517 17.9328 22.7064 16.5463 23.5491 15.0344C25.2327 12.0135 26.476 8.56832 26.4352 5.85578C26.4301 2.63016 23.8998 0 20.8001 0H9.82847ZM15.4048 3.94208C15.5985 3.946 15.7886 3.99684 15.9602 4.09058C16.1318 4.18432 16.2802 4.31841 16.3938 4.4823L17.7108 6.33229L19.931 7.20633C20.1097 7.27704 20.2705 7.38956 20.401 7.53526C20.5316 7.68095 20.6284 7.85596 20.6842 8.04686C20.74 8.23776 20.7532 8.43947 20.7228 8.63654C20.6923 8.83361 20.6191 9.02079 20.5088 9.18374L19.2211 11.0771L19.1086 13.5412C19.0999 13.7421 19.0469 13.9383 18.9538 14.1144C18.8606 14.2905 18.7298 14.4417 18.5716 14.5564C18.4134 14.6711 18.2319 14.746 18.0415 14.7755C17.851 14.8049 17.6566 14.788 17.4734 14.7261L15.3731 14.0304L13.0843 14.6879C12.8996 14.7411 12.7057 14.7494 12.5175 14.712C12.3293 14.6746 12.1518 14.5925 11.9988 14.4721C11.8457 14.3517 11.7212 14.1962 11.6348 14.0176C11.5484 13.8389 11.5025 13.6419 11.5005 13.4418L11.4833 11.1255L10.1883 9.05633C10.0842 8.88924 10.0181 8.69948 9.99495 8.50156C9.97183 8.30364 9.99236 8.1028 10.055 7.91442C10.1176 7.72604 10.2206 7.55512 10.3561 7.41472C10.4917 7.27432 10.6562 7.16817 10.837 7.1044L12.9251 6.36032L14.4159 4.43388C14.5916 4.20355 14.8366 4.04193 15.1111 3.9752C15.2074 3.95207 15.306 3.94096 15.4048 3.94208Z" fill="#FF7878"/>
<path d="M9.46661 22.17C7.86815 22.17 6.54297 23.5591 6.54297 25.2231V26.9566C6.54297 28.6206 7.86815 30.0001 9.46661 30.0001H21.1611C22.7595 30.0001 24.0847 28.6206 24.0847 26.9566V25.2231C24.0847 23.5591 22.7595 22.17 21.1611 22.17H9.46661Z" fill="#FF7878"/>
<path d="M1.62173 3.90882C1.29018 3.90953 0.972408 4.04695 0.737967 4.29099C0.503527 4.53503 0.371518 4.86583 0.370838 5.21096C0.370838 8.52228 0.223962 10.9265 1.26923 12.8963C1.79182 13.8812 2.68725 14.6601 3.79548 15.0827C4.40297 15.3144 5.07978 15.4571 5.8346 15.5439C4.1048 12.4118 2.87262 8.68967 2.87262 5.32308C2.87262 4.83661 2.9319 4.36563 3.02929 3.90882H1.62173ZM27.5966 3.90882C27.6932 4.36248 27.7527 4.8299 27.7533 5.31288C27.799 8.34658 26.4096 12.1982 24.5269 15.5771C25.429 15.4981 26.2256 15.3498 26.9259 15.0827C28.0341 14.6601 28.927 13.8812 29.4497 12.8963C30.4949 10.9265 30.3579 8.52228 30.3579 5.21096C30.3575 5.03941 30.3247 4.86962 30.2612 4.7113C30.1978 4.55298 30.105 4.40924 29.9881 4.28829C29.8713 4.16735 29.7326 4.07158 29.5802 4.00646C29.4277 3.94135 29.2644 3.90817 29.0996 3.90882H27.5966Z" fill="#FF7878"/>
</svg>
