<svg width="31" height="30" viewBox="0 0 31 30" fill="none" xmlns="http://www.w3.org/2000/svg">
<path d="M28.1891 3.10714H24.5705V2.14286H24.8614C25.5182 2.14286 26.0491 1.66286 26.0491 1.07143C26.0491 0.48 25.5182 0 24.8614 0H5.22196C4.56521 0 4.03435 0.48 4.03435 1.07143C4.03435 1.66286 4.56521 2.14286 5.22196 2.14286H5.51292V3.10714H1.89547C0.861058 3.10714 0.019043 3.86679 0.019043 4.8V5.43214C0.019043 8.7225 2.46077 11.4868 5.91315 12.3021C6.71478 14.7461 8.68503 16.7657 11.356 17.7707V21.2914H18.5956V17.8146C21.2939 16.8332 23.3294 14.7718 24.1596 12.3043C27.6191 11.4932 30.0667 8.72678 30.0667 5.43107V4.8C30.0655 3.86679 29.2235 3.10714 28.1891 3.10714ZM2.39426 5.25H5.51411V9.84107C5.51411 9.86464 5.52005 9.88714 5.52005 9.91179C3.64719 9.10071 2.39426 7.40143 2.39426 5.43214V5.25ZM24.5705 9.84107V5.25H27.6903V5.43214C27.6903 7.4025 26.4362 9.10071 24.5645 9.91071C24.5657 9.88714 24.5705 9.86464 24.5705 9.84107ZM15.0423 13.8589C14.439 13.8589 13.8832 13.5632 13.5922 13.0854L12.9367 12.0096C12.6635 11.5596 12.255 11.1921 11.7562 10.9479L10.5603 10.3607C10.0282 10.0993 9.69687 9.59678 9.69687 9.04928C9.69687 8.50286 10.027 8.00036 10.5603 7.73893L11.755 7.15178C12.255 6.90643 12.6635 6.53893 12.9379 6.08893L13.591 5.01428C13.8832 4.53643 14.439 4.24071 15.0423 4.24071C15.6456 4.24071 16.2014 4.53643 16.4924 5.01428L17.1479 6.09C17.4211 6.53893 17.8296 6.90643 18.3296 7.15286L19.5243 7.73893C20.0564 8.00036 20.3877 8.50286 20.3877 9.04928C20.3877 9.59678 20.0576 10.0982 19.5243 10.3607L18.3296 10.9479C17.8296 11.1932 17.4211 11.5596 17.1479 12.0107L16.4936 13.0854C16.2014 13.5632 15.6456 13.8589 15.0423 13.8589Z" fill="#17A5B7"/>
<path d="M11.356 21.2914H10.9914C9.6815 21.2914 8.61621 22.2525 8.61621 23.4342V24.5742H21.4685V23.4342C21.4685 22.2525 20.4032 21.2914 19.0933 21.2914H18.5945H11.356Z" fill="#17A5B7"/>
<path d="M8.61568 24.5742H8.50998C7.20005 24.5742 6.13477 25.5353 6.13477 26.7171V28.9285C6.13477 29.5199 6.66563 29.9999 7.32237 29.9999H22.7613C23.418 29.9999 23.9489 29.5199 23.9489 28.9285V26.7171C23.9489 25.5353 22.8836 24.5742 21.5737 24.5742H21.468H8.61568Z" fill="#17A5B7"/>
<path d="M16.4933 13.084L17.1476 12.0094C17.4208 11.5594 17.8293 11.1919 18.3293 10.9465L19.524 10.3594C20.0561 10.098 20.3874 9.59548 20.3874 9.04798C20.3874 8.50155 20.0573 7.99905 19.524 7.73762L18.3293 7.15155C17.8293 6.90619 17.4208 6.53869 17.1476 6.08869L16.4921 5.01405C16.2011 4.53619 15.6453 4.24048 15.042 4.24048C14.4387 4.24048 13.8829 4.53619 13.5907 5.01512L12.9376 6.08976C12.6632 6.53976 12.2547 6.90726 11.7547 7.15262L10.56 7.73976C10.0279 8.00012 9.69775 8.50262 9.69775 9.04905C9.69775 9.59655 10.0279 10.098 10.5611 10.3605L11.7571 10.9476C12.2559 11.193 12.6644 11.5594 12.9376 12.0094L13.5931 13.0851C13.8841 13.5619 14.4399 13.8587 15.0432 13.8587C15.6465 13.8587 16.2011 13.563 16.4933 13.084Z" fill="#17A5B7"/>
</svg>
