<svg width="33" height="30" viewBox="0 0 33 30" fill="none" xmlns="http://www.w3.org/2000/svg">
<path d="M4.14924 9.85591H24.2869C24.5911 9.85591 24.8401 10.245 24.8401 10.7205C24.8401 11.0663 24.9231 11.4121 25.0891 11.6715C25.255 11.9308 25.4487 12.0605 25.6976 12.0605C26.0019 12.0605 26.2508 12.4496 26.2508 12.9251V23.6455C26.2508 24.121 26.0019 24.5101 25.6976 24.5101C25.4763 24.5101 25.255 24.6398 25.0891 24.8991C24.9231 25.1585 24.8401 25.4611 24.8401 25.8501C24.8401 26.3257 24.5911 26.7147 24.2869 26.7147H4.14924C3.84496 26.7147 3.59601 26.3257 3.59601 25.8501C3.59601 25.5043 3.51302 25.1585 3.34705 24.8991C3.18108 24.683 2.95979 24.5101 2.7385 24.5101C2.43422 24.5101 2.18527 24.121 2.18527 23.6455V12.9251C2.18527 12.4496 2.43422 12.0605 2.7385 12.0605C2.95979 12.0605 3.18108 11.9308 3.34705 11.6715C3.51302 11.4121 3.59601 11.1095 3.59601 10.7205C3.59601 10.245 3.84496 9.85591 4.14924 9.85591ZM13.6648 17.3343V15.2594C13.5818 15.3026 13.4712 15.3891 13.3882 15.4755C13.1393 15.7349 13.0286 16.0375 13.0286 16.4697C13.0286 16.6427 13.0563 16.8156 13.1116 16.9452C13.1669 17.0749 13.2499 17.1614 13.3882 17.2478C13.4989 17.2911 13.5818 17.3343 13.6648 17.3343ZM14.7713 18.9769V21.3112C14.8819 21.268 15.0202 21.1816 15.1032 21.0951C15.3522 20.879 15.4628 20.5331 15.4628 20.1441C15.4628 19.7118 15.3522 19.4092 15.1309 19.2363C15.0479 19.1499 14.9373 19.0634 14.7713 18.9769ZM13.6648 12.9251C13.6648 12.4496 13.9138 12.0605 14.2181 12.0605C14.5223 12.0605 14.7713 12.4496 14.7713 12.9251V13.8329C15.2139 13.8761 15.5735 14.049 15.8777 14.2651C16.099 14.438 16.2097 14.6542 16.2097 14.8703C16.2097 15.3458 16.0714 15.562 15.7948 15.562C15.7394 15.562 15.5458 15.4755 15.2139 15.3026C15.0756 15.2161 14.9096 15.1729 14.7713 15.1297V17.5937C15.2139 17.7233 15.6011 17.9395 15.8777 18.2421C16.2374 18.6311 16.4033 19.1931 16.4033 20.0144C16.4033 20.879 16.2097 21.5274 15.7948 22.0461C15.5181 22.3919 15.1862 22.6081 14.7713 22.6945V23.6455C14.7713 24.121 14.5223 24.5101 14.2181 24.5101C13.9138 24.5101 13.6648 24.121 13.6648 23.6455V22.7378C13.3329 22.6945 13.0286 22.5648 12.7243 22.4352C12.2541 22.219 12.0328 21.9164 12.0328 21.6571C12.0328 21.1383 12.1711 20.8357 12.4754 20.8357C12.5307 20.8357 12.7797 20.9222 13.1669 21.1383C13.3329 21.2248 13.5265 21.3112 13.6925 21.3545V18.6744C13.6648 18.6744 13.6095 18.6311 13.5818 18.6311C13.4435 18.5879 13.2499 18.5014 13.0563 18.3718C12.8626 18.2421 12.6967 18.1124 12.5584 17.9827C12.4477 17.853 12.3371 17.6369 12.2541 17.3775C12.1711 17.1182 12.1158 16.8156 12.1158 16.513C12.1158 15.7349 12.3371 15.0865 12.7797 14.5677C13.0563 14.2651 13.3605 14.0058 13.6925 13.9193V12.9251H13.6648ZM17.2055 13.6167C16.431 12.4063 15.3798 11.6715 14.2181 11.6715C13.0563 11.6715 11.9775 12.4063 11.2306 13.6167C10.4561 14.8271 9.98583 16.4697 9.98583 18.2853C9.98583 20.1009 10.4561 21.7867 11.2306 22.9539C12.0051 24.1643 13.0563 24.8991 14.2181 24.8991C15.3798 24.8991 16.4586 24.1643 17.2055 22.9539C17.98 21.7435 18.4503 20.1009 18.4503 18.2853C18.4503 16.4697 17.98 14.7839 17.2055 13.6167ZM10.9816 24.9424C10.788 24.7262 10.5944 24.4669 10.4284 24.1643C9.46026 22.6513 8.85171 20.5764 8.85171 18.2421C8.85171 15.951 9.46026 13.8329 10.4284 12.3199C10.5944 12.0605 10.788 11.8012 10.9816 11.5418H4.61948C4.5365 12.0173 4.34287 12.4928 4.12158 12.8386C3.90028 13.1844 3.59601 13.4438 3.29173 13.6167V22.8242C3.59601 22.9539 3.90028 23.2565 4.12158 23.6023C4.34287 23.9481 4.50884 24.4236 4.61948 24.8991H10.9816V24.9424ZM17.4545 11.6282C17.6481 11.8444 17.8417 12.1037 18.0077 12.4063C18.9758 13.9193 19.5844 15.9942 19.5844 18.3285C19.5844 20.6196 18.9758 22.7378 18.0077 24.2507C17.8417 24.5101 17.6481 24.7695 17.4545 25.0288H23.8166C23.8996 24.5533 24.0932 24.0778 24.3145 23.732C24.5358 23.3862 24.8401 23.1268 25.1444 22.9539V13.6599C24.8401 13.5303 24.5358 13.2277 24.3145 12.8818C24.0932 12.536 23.9273 12.0605 23.8166 11.585H17.4545V11.6282ZM27.4126 5.05764H8.21549C8.13251 5.53314 7.93887 6.00865 7.71758 6.35447C7.66226 6.44092 7.60694 6.52738 7.55161 6.61383H25.8636H25.8912H25.9189H25.9466H25.9742H26.0019H26.0295H26.0572H26.0849H26.1125H26.1402C26.7211 6.74352 27.2467 7.13257 27.6339 7.78098L27.6616 7.82421V7.86744L27.6892 7.91066V7.95389L27.7169 7.99712L27.7446 8.04035V8.08357L27.7722 8.1268L27.7999 8.17003L27.8276 8.21326L27.8552 8.29971V8.34294V8.38617V8.4294V8.47262V8.51585V8.55908V8.60231V8.64553V8.68876V8.73199V8.77522V8.81845V8.86167V8.9049V8.94813V8.99135V9.03458V9.07781V9.12104V9.16427V9.20749V9.25072V9.29395V9.33718V9.3804V9.42363V9.46686V9.51009V9.55332V9.59654V9.63977V9.683V9.72623V9.76945V15.6916C27.9382 15.6052 28.0488 15.562 28.1318 15.5187V7.08934C27.8276 6.95966 27.5233 6.65706 27.302 6.31124C27.6892 5.96542 27.4956 5.53314 27.4126 5.05764ZM27.3296 10.5908V10.5476V10.5043V10.4611V10.4179V10.3746V10.3314V10.2882V10.245V10.2017V10.1585V10.1153V10.072V10.0288V9.98559V9.94236V9.89914V9.85591V9.81268V9.76945V9.72623V9.683V9.63977V9.59654V9.55332V9.51009V9.46686V9.42363V9.3804V9.33718V9.29395V9.25072V9.20749V9.16427V9.12104V9.07781V9.03458V8.99135V8.94813V8.9049V8.86167V8.81845V8.77522V8.73199V8.68876V8.64553V8.60231V8.55908L27.302 8.51585L27.2743 8.47262C27.053 8.1268 26.7488 7.86744 26.4168 7.82421H26.3892H26.3615H26.3338H26.3062H26.2785H26.2508H26.2232H26.1955H6.3345H4.14924H2.57253C2.1576 7.82421 1.798 8.08358 1.54905 8.47262C1.27243 8.9049 1.13412 9.46686 1.13412 10.072V25.4611C1.13412 26.0663 1.30009 26.6715 1.57671 27.0605C1.85333 27.4928 2.21293 27.7089 2.60019 27.7089H25.8912C26.2785 27.7089 26.6658 27.4496 26.9147 27.0173C27.1913 26.585 27.3573 26.0231 27.3573 25.4179V22.0029V18.7176V10.5908H27.3296ZM7.74524 3.2853H27.8829C28.1872 3.2853 28.4361 3.67435 28.4361 4.14986C28.4361 4.49568 28.5191 4.8415 28.6851 5.10086C28.851 5.36023 29.0447 5.48991 29.2936 5.48991C29.5979 5.48991 29.8468 5.87896 29.8468 6.35447V17.0749C29.8468 17.5504 29.5979 17.9395 29.2936 17.9395C29.0723 17.9395 28.851 18.0692 28.6851 18.3285C28.5191 18.5879 28.4361 18.8905 28.4361 19.2795V21.7003H29.4596C29.8468 21.7003 30.2341 21.4409 30.4831 21.0086C30.7597 20.5764 30.9256 20.0144 30.9256 19.4092V4.02017C30.9256 3.41499 30.7597 2.85303 30.5107 2.46398L30.4831 2.42075C30.2064 1.98847 29.8468 1.72911 29.4596 1.72911H6.16853C5.75361 1.72911 5.39401 1.98847 5.14505 2.37752C4.86844 2.8098 4.73013 3.37176 4.73013 3.97695V6.52738H5.78127V6.35447C5.78127 5.87896 6.03022 5.48991 6.3345 5.48991C6.5558 5.48991 6.77709 5.36023 6.94306 5.10086C7.10903 4.8415 7.19201 4.53891 7.19201 4.14986C7.19201 3.67435 7.44097 3.2853 7.74524 3.2853ZM2.57253 6.57061H3.59601V4.02017C3.59601 2.89625 3.87262 1.90202 4.34287 1.16715C4.81312 0.432277 5.44933 0 6.16853 0H29.4596C30.1788 0 30.815 0.432277 31.2852 1.16715L31.3129 1.21037C31.7555 1.94524 32.0321 2.93948 32.0321 4.02017V19.4092C32.0321 20.5331 31.7555 21.5274 31.2852 22.2623C30.815 22.9971 30.1788 23.4294 29.4596 23.4294H28.4361V25.9798C28.4361 27.1038 28.1595 28.098 27.6892 28.8329C27.219 29.5677 26.5828 30 25.8636 30H2.57253C1.85333 30 1.21711 29.5677 0.746863 28.8329C0.276616 28.098 0 27.1038 0 25.9798V10.5908C0 9.46686 0.276616 8.47262 0.746863 7.73775C1.21711 7.00288 1.85333 6.57061 2.57253 6.57061Z" fill="#858B0D"/>
<path fill-rule="evenodd" clip-rule="evenodd" d="M17.4551 11.6284C20.2766 15.0002 20.2766 21.614 17.4551 24.9858H23.8172C24.0109 23.9915 24.5088 23.2135 25.145 22.9109V13.6601C24.5088 13.3575 24.0109 12.5794 23.8172 11.5852H17.4551V11.6284Z" fill="#C0D863"/>
<path fill-rule="evenodd" clip-rule="evenodd" d="M10.9814 24.9426C8.15994 21.5708 8.15994 14.957 10.9814 11.5852H4.61926C4.42563 12.5794 3.92772 13.3575 3.2915 13.6601V22.8676C3.92772 23.1702 4.42563 23.9483 4.61926 24.9426H10.9814Z" fill="#C0D863"/>
<path fill-rule="evenodd" clip-rule="evenodd" d="M25.8636 8.29956H2.57251C1.77032 8.29956 1.10645 9.33702 1.10645 10.5906V25.9797C1.10645 26.5849 1.27241 27.1901 1.54903 27.5791C1.82565 28.0114 2.15759 28.2275 2.57251 28.2275H25.8636C26.6657 28.2275 27.3296 27.1901 27.3296 25.9364V10.5906C27.3296 9.46671 26.7764 8.42924 26.0295 8.34279L25.8636 8.29956ZM24.2869 26.7145H4.14922C3.84494 26.7145 3.59599 26.3255 3.59599 25.85C3.59599 25.1151 3.20873 24.5099 2.73848 24.5099C2.4342 24.5099 2.18525 24.1209 2.18525 23.6454V12.9249C2.18525 12.4494 2.4342 12.0604 2.73848 12.0604C3.20873 12.0604 3.59599 11.4552 3.59599 10.7203C3.59599 10.2448 3.84494 9.85576 4.14922 9.85576H24.2869C24.5911 9.85576 24.8401 10.2448 24.8401 10.7203C24.8401 11.4552 25.2273 12.0604 25.6976 12.0604C26.0019 12.0604 26.2508 12.4494 26.2508 12.9249V23.6454C26.2508 24.1209 26.0019 24.5099 25.6976 24.5099C25.2273 24.5099 24.8401 25.1151 24.8401 25.85C24.8401 26.3255 24.5911 26.7145 24.2869 26.7145Z" fill="#C0D863"/>
<path fill-rule="evenodd" clip-rule="evenodd" d="M11.2311 22.9537C12.8908 25.5474 15.574 25.5474 17.2337 22.9537C18.8934 20.36 18.8934 16.167 17.2337 13.5733C15.574 10.9796 12.8908 10.9796 11.2311 13.5733C9.5714 16.167 9.5714 20.4033 11.2311 22.9537ZM12.4482 20.8355L13.6653 21.3543V18.6742C13.3334 18.5877 12.8078 18.3716 12.5312 18.0257C12.2546 17.6799 12.0886 17.118 12.0886 16.556C12.0886 15.1727 12.8631 14.2217 13.6653 13.9623V13.0113C13.6653 11.8442 14.7718 11.8442 14.7718 13.0113V13.9191C15.1867 13.9623 16.2102 14.2649 16.2102 14.9566C16.2102 15.4321 16.0719 15.6482 15.7953 15.6482L14.7718 15.2159V17.6799C15.6846 17.9825 16.4038 18.5013 16.4038 20.1007C16.4038 21.6569 15.6846 22.5214 14.7718 22.7808V23.6453C14.7718 24.8125 13.6653 24.8125 13.6653 23.6453V22.7376C13.2504 22.6511 12.0333 22.3053 12.0333 21.6136C12.0056 21.0949 12.1716 20.8355 12.4482 20.8355Z" fill="#FFE64C"/>
<path fill-rule="evenodd" clip-rule="evenodd" d="M13.0288 16.4699C13.0288 17.0751 13.2778 17.2048 13.665 17.3777V15.3027C13.3054 15.4756 13.0288 15.8647 13.0288 16.4699Z" fill="#FFE64C"/>
<path fill-rule="evenodd" clip-rule="evenodd" d="M14.771 18.9769V21.3112C15.6838 20.8789 15.6008 19.5821 15.1583 19.2363C15.0476 19.1498 14.937 19.0634 14.771 18.9769Z" fill="#FFE64C"/>
<path fill-rule="evenodd" clip-rule="evenodd" d="M7.74492 3.2852H27.8826C28.1868 3.2852 28.4358 3.67425 28.4358 4.14975C28.4358 4.88462 28.823 5.48981 29.2933 5.48981C29.5976 5.48981 29.8465 5.87886 29.8465 6.35436V17.0748C29.8465 17.5503 29.5976 17.9394 29.2933 17.9394C28.823 17.9394 28.4358 18.5446 28.4358 19.2794V21.7002H29.4593C30.2615 21.7002 30.9253 20.6627 30.9253 19.4091V4.02007C30.9253 2.76647 30.2615 1.729 29.4593 1.729H6.16821C5.36603 1.729 4.70215 2.76647 4.70215 4.02007V6.5705H5.78095V6.35436C5.78095 5.87886 6.0299 5.48981 6.33418 5.48981C6.80443 5.48981 7.19169 4.88462 7.19169 4.14975C7.19169 3.67425 7.44064 3.2852 7.74492 3.2852Z" fill="#99AF3E"/>
<path fill-rule="evenodd" clip-rule="evenodd" d="M27.4123 5.05774H8.21515C8.1045 5.66293 7.85555 6.18166 7.55127 6.57071H25.8632C26.5824 6.57071 27.274 7.04621 27.7719 7.86754L28.2698 9.16437L28.4358 10.5909V16.5131C28.5187 16.4266 28.6294 16.3834 28.7124 16.3402V7.08944C28.1038 6.83007 27.6059 6.00875 27.4123 5.05774Z" fill="#99AF3E"/>
</svg>
