<svg width="34" height="30" viewBox="0 0 34 30" fill="none" xmlns="http://www.w3.org/2000/svg">
<path fill-rule="evenodd" clip-rule="evenodd" d="M23.9718 18.808C23.1384 17.8807 21.9861 17.3075 20.7136 17.3075C19.4411 17.3075 18.2893 17.8807 17.4549 18.808C16.6211 19.7351 16.1054 21.016 16.1054 22.4306C16.1054 23.8457 16.6211 25.1266 17.4549 26.0537C18.2892 26.9808 19.4411 27.5542 20.7136 27.5542C21.9861 27.5542 23.1384 26.9808 23.9718 26.0537C24.806 25.1266 25.3215 23.8457 25.3215 22.4306C25.3215 21.016 24.806 19.735 23.9718 18.808ZM20.7136 16.2284C22.2538 16.2284 23.6488 16.9222 24.6583 18.0453C25.6678 19.1672 26.2921 20.7181 26.2921 22.4306C26.2921 24.1436 25.6677 25.6941 24.6583 26.8164C23.6488 27.9392 22.2538 28.6338 20.7136 28.6338C19.1734 28.6338 17.7784 27.9392 16.769 26.8164C15.7595 25.694 15.1349 24.1436 15.1349 22.4306C15.1349 20.7181 15.7595 19.1672 16.769 18.0453C17.7784 16.9224 19.1734 16.2284 20.7136 16.2284ZM25.5276 17.0783C26.759 18.4481 27.5214 20.3405 27.5214 22.4305C27.5214 24.5209 26.759 26.4132 25.5276 27.7828C24.2957 29.1524 22.5935 29.9995 20.7137 29.9995C18.8338 29.9995 17.1316 29.1524 15.8998 27.7828C14.6679 26.4132 13.906 24.5209 13.906 22.4305C13.906 20.3405 14.6679 18.4481 15.8998 17.0783C17.1316 15.7092 18.8338 14.8615 20.7137 14.8615C22.5935 14.8615 24.2957 15.7092 25.5276 17.0783ZM10.9449 19.471C10.9449 19.769 10.7277 20.0105 10.4597 20.0105C10.1915 20.0105 9.97428 19.7691 9.97428 19.471C9.97428 19.1014 9.77952 18.7566 9.46552 18.497C9.10999 18.2041 8.60966 18.0223 8.04924 18.0223C7.48881 18.0223 6.98842 18.2041 6.63275 18.497C6.31875 18.7566 6.12399 19.1014 6.12399 19.471C6.12399 20.5355 7.12852 20.7318 8.13265 20.9278C9.53881 21.2025 10.9449 21.4774 10.9449 23.4473C10.9449 24.176 10.5999 24.8253 10.0417 25.2853C9.63601 25.62 9.1138 25.8548 8.53468 25.9402V27.054C8.53468 27.3522 8.31748 27.5935 8.04924 27.5935C7.78133 27.5935 7.56407 27.3523 7.56407 27.054V25.9402C6.98495 25.8548 6.46273 25.62 6.05656 25.2848C5.49838 24.8253 5.15338 24.1759 5.15338 23.4472C5.15338 23.1492 5.37057 22.9077 5.63855 22.9077C5.90673 22.9077 6.12399 23.1492 6.12399 23.4472C6.12399 23.8168 6.31875 24.1617 6.63275 24.4212C6.98835 24.7142 7.48881 24.8962 8.04924 24.8962C8.60966 24.8962 9.10999 24.7147 9.46552 24.4212C9.77952 24.1617 9.97428 23.8168 9.97428 23.4472C9.97428 22.3828 8.97016 22.1859 7.96542 21.9899C6.55947 21.7152 5.15338 21.4403 5.15338 19.471C5.15338 18.7417 5.49838 18.093 6.05656 17.6329C6.46273 17.2977 6.98495 17.0632 7.56407 16.9786V15.8642C7.56407 15.566 7.78126 15.3245 8.04924 15.3245C8.31742 15.3245 8.53468 15.5659 8.53468 15.8642V16.9786C9.1138 17.0632 9.63601 17.2978 10.0417 17.6329C10.5999 18.093 10.9449 18.7424 10.9449 19.471ZM14.3902 17.3942C14.2676 17.1757 14.1384 16.9629 14.0035 16.7579C13.8107 16.4636 13.5953 16.1698 13.3588 15.8768L10.9652 12.9191H5.16181L2.76818 15.8768H2.76777L2.76037 15.8855C1.26822 17.6462 0.427173 19.8492 0.380471 22.01C0.336624 24.0339 0.99385 26.0254 2.47125 27.5783C4.00684 29.1924 6.03426 29.9996 8.06331 29.9996C10.0926 29.9996 12.1201 29.1924 13.6556 27.5783L13.6563 27.5801C13.7821 27.4474 13.9032 27.3099 14.0202 27.1685C14.0557 27.1248 14.0917 27.0798 14.1278 27.0334C13.3726 25.7002 12.9355 24.1224 12.9355 22.4306C12.9353 20.5517 13.4744 18.8125 14.3902 17.3942ZM21.1989 26.6068C21.1989 26.905 20.9817 27.1468 20.7136 27.1468C20.4456 27.1468 20.2282 26.9051 20.2282 26.6068V25.8933C19.8178 25.8141 19.4474 25.6388 19.1531 25.3961C18.7059 25.0274 18.429 24.504 18.429 23.915C18.429 23.6169 18.6464 23.3751 18.9142 23.3751C19.1824 23.3751 19.3996 23.6168 19.3996 23.915C19.3996 24.1453 19.5259 24.3643 19.7296 24.5322C19.9745 24.7343 20.3219 24.8594 20.7137 24.8594C21.1052 24.8594 21.453 24.7343 21.6978 24.5322C21.9016 24.3643 22.0276 24.1453 22.0276 23.915C22.0276 23.2352 21.3288 23.0986 20.6304 22.9618C19.5298 22.747 18.429 22.5318 18.429 20.9466C18.429 20.3572 18.7058 19.8342 19.1532 19.4651C19.447 19.2228 19.8178 19.047 20.2282 18.9689V18.2548C20.2282 17.9567 20.4456 17.7149 20.7137 17.7149C20.9817 17.7149 21.1989 17.9566 21.1989 18.2548V18.9689C21.6095 19.047 21.9803 19.2228 22.2737 19.4651C22.7215 19.8342 22.9984 20.3572 22.9984 20.9466C22.9984 21.2448 22.7809 21.4864 22.5127 21.4864C22.245 21.4864 22.0275 21.2449 22.0275 20.9466C22.0275 20.7169 21.9015 20.4974 21.6978 20.3295C21.4529 20.1269 21.1052 20.0023 20.7136 20.0023C20.3218 20.0023 19.9744 20.1269 19.7295 20.3295C19.5258 20.4974 19.3996 20.7169 19.3996 20.9466C19.3996 21.6262 20.0983 21.7631 20.797 21.8999C21.8972 22.1147 22.9983 22.3299 22.9983 23.915C22.9983 24.504 22.7214 25.0274 22.2737 25.3961C21.9803 25.6388 21.6094 25.8141 21.1989 25.8933V26.6068Z" fill="#DD2525"/>
<path fill-rule="evenodd" clip-rule="evenodd" d="M25.9771 16.0653H31.5188C31.6013 16.0653 31.6752 16.0282 31.7291 15.9692L31.7279 15.9679C31.7818 15.9083 31.8154 15.8264 31.8154 15.7357V13.9902C31.8154 13.8995 31.7818 13.8169 31.7279 13.7574L31.7138 13.7404C31.6615 13.6909 31.5934 13.6604 31.5188 13.6604H21.2818C21.1995 13.6604 21.1254 13.6971 21.0717 13.7565L21.0724 13.7573C21.063 13.7678 21.054 13.7793 21.0464 13.7905C22.9451 13.88 24.6682 14.726 25.9771 16.0653Z" fill="#DD2525"/>
<path fill-rule="evenodd" clip-rule="evenodd" d="M28.0489 19.5493H29.9559H31.5193C31.6011 19.5493 31.675 19.5126 31.7284 19.4544L31.7307 19.4519C31.7831 19.3925 31.8158 19.3103 31.8158 19.2196V17.4739C31.8158 17.3833 31.7831 17.3008 31.7307 17.2414L31.7284 17.2394C31.675 17.1808 31.6011 17.1443 31.5193 17.1443H26.8689C27.37 17.8644 27.7712 18.6741 28.0489 19.5493Z" fill="#DD2525"/>
<path fill-rule="evenodd" clip-rule="evenodd" d="M28.4727 23.0327H29.9556H29.9597C30.0395 23.0309 30.1125 22.9952 30.1651 22.9375L30.1668 22.9355C30.2194 22.8761 30.2522 22.7937 30.2522 22.7027V20.9573C30.2522 20.8671 30.2185 20.7847 30.1651 20.7248L30.1505 20.7078C30.0992 20.6588 30.0323 20.6288 29.9591 20.6276H29.9557H28.322C28.4326 21.2092 28.4914 21.8126 28.4914 22.4306C28.4914 22.6333 28.4848 22.8336 28.4727 23.0327Z" fill="#DD2525"/>
<path fill-rule="evenodd" clip-rule="evenodd" d="M27.5698 26.5163H31.5188H33.0824C33.1634 26.5163 33.238 26.4794 33.2915 26.42C33.3452 26.36 33.3784 26.2773 33.3784 26.1872V24.4412C33.3784 24.3498 33.3456 24.2674 33.2923 24.208L33.2915 24.2084C33.238 24.149 33.1634 24.1121 33.0823 24.1121H29.9553H28.3438C28.193 24.9649 27.9288 25.7734 27.5698 26.5163Z" fill="#DD2525"/>
<path fill-rule="evenodd" clip-rule="evenodd" d="M24.4788 29.9999H31.5196C31.6014 29.9999 31.6753 29.9637 31.7287 29.9055L31.7309 29.9031C31.7834 29.8436 31.8161 29.7615 31.8161 29.6709V27.9254C31.8161 27.8344 31.7834 27.752 31.7309 27.6926L31.7287 27.6906C31.676 27.6326 31.6036 27.597 31.5234 27.5955H31.5195H26.9529C26.7272 27.9321 26.4799 28.25 26.2135 28.546C25.7009 29.1159 25.1174 29.6064 24.4788 29.9999Z" fill="#DD2525"/>
<path fill-rule="evenodd" clip-rule="evenodd" d="M12.4173 8.78784H3.68099C3.04014 8.78784 2.63043 9.1625 2.44913 9.6457L2.44131 9.6692C2.36987 9.86874 2.3335 10.0893 2.3335 10.3133C2.3335 10.5379 2.36987 10.7586 2.44131 10.9582L2.44036 10.9586L2.44131 10.9607C2.61874 11.4541 3.03117 11.8393 3.68099 11.8393H12.4174C13.067 11.8393 13.4796 11.4532 13.6572 10.9587L13.6579 10.9589C13.7294 10.7594 13.7649 10.5386 13.7649 10.3138C13.7649 10.0881 13.7289 9.86655 13.6572 9.66694C13.48 9.17369 13.0671 8.78784 12.4173 8.78784Z" fill="#DD2525"/>
<path fill-rule="evenodd" clip-rule="evenodd" d="M10.774 7.7089C11.1442 6.82059 11.6168 5.91398 12.0586 5.06664C12.7091 3.81863 13.2891 2.70674 13.2891 2.1918C13.2891 1.58616 13.0686 1.03827 12.7121 0.641615C12.3556 0.24549 11.8629 0 11.3183 0C11.0633 0 10.8214 0.0526806 10.6008 0.148594C10.3704 0.24874 10.1602 0.396352 9.98063 0.58062C9.79308 0.772901 9.50063 0.770406 9.31532 0.570643C9.14959 0.391287 8.95143 0.246019 8.73151 0.147082C8.52193 0.0522271 8.29168 0 8.04886 0C7.80611 0 7.57559 0.0522271 7.3658 0.147082C7.15106 0.243752 6.95697 0.384863 6.79321 0.558928C6.6115 0.768441 6.3109 0.778947 6.11688 0.580696C5.93762 0.396881 5.72743 0.24874 5.49643 0.14867C5.27591 0.0527561 5.03417 7.55404e-05 4.77898 7.55404e-05C4.23514 7.55404e-05 3.74209 0.245566 3.38588 0.64169C3.02919 1.03834 2.80859 1.58624 2.80859 2.19188C2.80859 2.70682 3.38832 3.8187 4.03889 5.06671C4.48075 5.91406 4.95335 6.82067 5.32397 7.70898H10.774V7.7089Z" fill="#DD2525"/>
</svg>
