<svg width="31" height="30" viewBox="0 0 31 30" fill="none" xmlns="http://www.w3.org/2000/svg">
<path d="M0.187988 11.911V12.6228V18.4699V23.4411V30H7.10253H23.3242H30.2357V23.4411V18.4699V11.911H23.3242H7.10253H0.187988ZM1.73665 13.3346H5.90473C6.42949 15.0321 5.1326 16.946 3.28531 17.3577C2.79158 17.4711 2.17356 17.5381 1.73665 17.3383V13.3346ZM24.5068 13.3346H28.687V17.3688C28.4751 17.4046 28.2677 17.4661 28.0518 17.4662C26.0323 17.466 24.3949 15.9374 24.3949 14.013C24.395 13.7819 24.5068 13.3346 24.5068 13.3346ZM14.4042 15.417H16.0164V17.0352H18.406V18.4059H13.6269V20.2715H18.406V24.8758H16.0164V26.494H14.4042V24.8758H12.0207V23.5079H16.7938V21.6395H12.0207V17.0352H14.4042V15.417ZM2.33857 24.4448C4.06486 24.3982 5.65562 25.646 5.95313 27.1974C6.02094 27.6209 6.14187 28.3177 5.80188 28.5764H1.73664V24.5394C1.93657 24.5056 2.13409 24.4468 2.33857 24.4448ZM28.0518 24.4448C28.2677 24.4449 28.4751 24.5064 28.687 24.5422V28.5764H24.5189C24.7691 28.5764 24.395 28.1291 24.3949 27.898C24.3949 25.9736 26.0323 24.445 28.0518 24.4448Z" fill="#B41592"/>
<path d="M15.0966 0L14.4947 0.731233L9.66113 6.57553H12.825V10.5542H17.3954V6.57553H20.7649L15.0966 0Z" fill="#B41592"/>
</svg>
