<svg width="41" height="41" viewBox="0 0 41 41" fill="none" xmlns="http://www.w3.org/2000/svg">
<path d="M20.4993 22.2084C23.3301 22.2084 25.6243 24.5027 25.6243 27.3334C25.6243 28.7855 25.0213 30.0941 24.0527 31.0268L20.7898 34.1667H25.6243V37.5834H15.3743V34.6382L21.6832 28.5651C22.0078 28.2525 22.2077 27.8169 22.2077 27.3334C22.2077 26.3904 21.4423 25.6251 20.4993 25.6251C19.5563 25.6251 18.791 26.3904 18.791 27.3334H15.3743C15.3743 24.5027 17.6686 22.2084 20.4993 22.2084ZM30.7493 22.2084V29.0417H34.166V22.2084H37.5827V37.5834H34.166V32.4584H27.3327V22.2084H30.7493ZM6.83268 20.5001C6.83268 24.817 8.83314 28.6659 11.9577 31.1703V35.2977C6.85147 32.344 3.41602 26.8243 3.41602 20.5001H6.83268ZM20.4993 3.41675C29.3571 3.41675 36.6414 10.1595 37.4973 18.7917H34.0601C33.2196 12.0507 27.4693 6.83341 20.4993 6.83341C16.29 6.83341 12.5248 8.7365 10.0187 11.7278L13.666 15.3751H3.41602V5.12508L7.59631 9.30366C10.7277 5.69908 15.347 3.41675 20.4993 3.41675Z" fill="#0000EC"/>
</svg>
