<svg width="50" height="43" viewBox="0 0 50 43" fill="none" xmlns="http://www.w3.org/2000/svg">
<path d="M34.5078 0.587891C35.2363 0.333351 36.0573 0.648902 36.4014 1.33008L36.4629 1.4707L36.4639 1.47168L37.2305 3.49414H40.6523C43.2133 3.49423 45.3262 5.48993 45.3262 7.99512V9.52148C47.6564 9.76118 49.5 11.656 49.5 13.9961V36.999C49.5 40.0573 46.9203 42.5 43.7822 42.5H6.21777C3.07974 42.5 0.5 40.0573 0.5 36.999V7.99512C0.5 5.4899 2.61288 3.49418 5.17383 3.49414H26.1396L34.5078 0.588867V0.587891ZM3.58691 36.999C3.58691 38.3602 4.74561 39.5 6.21777 39.5H43.7822C45.2553 39.5 46.4131 38.3603 46.4131 36.999V30.498H42.7393C40.1784 30.498 38.0657 28.5031 38.0654 25.998C38.0654 23.4928 40.1783 21.4971 42.7393 21.4971H46.4131V13.9961C46.4131 13.1879 45.7222 12.4952 44.8262 12.4951H5.17383C4.61203 12.4951 4.07956 12.3922 3.58691 12.2148V36.999ZM42.2393 24.5732C41.5987 24.7737 41.1523 25.3484 41.1523 25.998C41.1525 26.6475 41.599 27.2204 42.2393 27.4209V24.5732ZM5.17383 6.49512C4.27781 6.49516 3.58691 7.1869 3.58691 7.99512C3.58697 8.80329 4.27785 9.49507 5.17383 9.49512H8.85645L17.4961 6.49512H5.17383ZM39.5059 9.49512H42.2393V7.99512C42.2393 7.18692 41.5483 6.49521 40.6523 6.49512H38.3682L39.5059 9.49512ZM32.4336 4.46484L32.4346 4.4668L26.6807 6.4668L26.6006 6.49512H26.5889L17.9512 9.49512H36.2402L35.0488 6.35254L34.1123 3.88281L32.4336 4.46484ZM46.4131 24.4971H45.3262V27.498H46.4131V24.4971Z" fill="#CD3BAE" stroke="#CD3BAE"/>
</svg>
