<svg width="41" height="41" viewBox="0 0 41 41" fill="none" xmlns="http://www.w3.org/2000/svg">
<path fill-rule="evenodd" clip-rule="evenodd" d="M19.2415 19.2188H19.2363C17.1159 19.2188 15.3926 20.9408 15.3926 23.0625C15.3926 25.1842 17.1159 26.9062 19.2363 26.9062H21.7988C22.5061 26.9062 23.0801 27.4803 23.0801 28.1875C23.0801 28.8947 22.5061 29.4688 21.7988 29.4688H17.9551C17.2491 29.4688 16.6738 30.0428 16.6738 30.75C16.6738 31.4572 17.2491 32.0312 17.9551 32.0312H19.2415V33.3125C19.2415 34.0198 19.8155 34.5938 20.5227 34.5938C21.23 34.5938 21.804 34.0198 21.804 33.3125V32.0312C23.9231 32.0287 25.6426 30.308 25.6426 28.1875C25.6426 26.0658 23.9206 24.3438 21.7988 24.3438H19.2363C18.5304 24.3438 17.9551 23.7698 17.9551 23.0625C17.9551 22.3552 18.5304 21.7812 19.2363 21.7812H23.0801C23.7873 21.7812 24.3613 21.2073 24.3613 20.5C24.3613 19.7928 23.7873 19.2188 23.0801 19.2188H21.804V17.9375C21.804 17.2303 21.23 16.6562 20.5227 16.6562C19.8155 16.6562 19.2415 17.2303 19.2415 17.9375V19.2188Z" fill="#0BBB00"/>
<path fill-rule="evenodd" clip-rule="evenodd" d="M17.2732 11.5389H15.4141C14.7068 11.5389 14.1328 12.1129 14.1328 12.8202C14.1328 13.5274 14.7068 14.1014 15.4141 14.1014H16.0508C14.1072 15.981 11.7177 18.2143 9.8355 20.7165C7.85981 23.3444 6.44531 26.2643 6.44531 29.3688C6.44531 31.9903 7.06672 33.9583 8.10837 35.4419C10.4505 38.7745 15.1066 39.7034 20.5391 39.7034C25.9716 39.7034 30.6276 38.7745 32.9685 35.4419C34.0101 33.9583 34.6328 31.9903 34.6328 29.3688C34.6328 26.2631 33.2157 23.3405 31.2388 20.7114C29.3592 18.2104 26.9709 15.9797 25.0286 14.1014H25.6641C26.3713 14.1014 26.9453 13.5274 26.9453 12.8202C26.9453 12.1129 26.3713 11.5389 25.6641 11.5389H23.796L26.1804 6.87391C26.789 5.68234 26.7339 4.26016 26.0356 3.11856C25.3373 1.97697 24.0958 1.28125 22.7569 1.28125H18.3097C16.9721 1.28125 15.7305 1.97697 15.031 3.11856C14.3327 4.26016 14.2789 5.68363 14.8875 6.87519L17.2732 11.5389ZM21.409 14.1014C23.0785 15.8593 25.6102 18.049 27.823 20.5743C30.0972 23.1714 32.0703 26.1234 32.0703 29.3688C32.0703 31.3483 31.6577 32.8487 30.8723 33.9685C29.9716 35.251 28.5943 36.0044 26.9402 36.4682C25.0811 36.9897 22.8863 37.1409 20.5391 37.1409C18.1905 37.1409 15.997 36.9897 14.1379 36.4682C12.4826 36.0044 11.1065 35.251 10.2058 33.9685C9.41909 32.8487 9.00781 31.3483 9.00781 29.3688C9.00781 26.126 10.9771 23.1765 13.2513 20.5807C15.464 18.0528 17.9983 15.8619 19.6691 14.1014H21.409ZM20.9183 11.5389H20.1508L17.1694 5.70797C16.9669 5.31078 16.9849 4.83672 17.2168 4.45619C17.45 4.07566 17.8638 3.84375 18.3097 3.84375H22.7569C23.2041 3.84375 23.6179 4.07566 23.8498 4.45619C24.083 4.83672 24.1009 5.31078 23.8985 5.70797L20.9183 11.5389Z" fill="#0BBB00"/>
</svg>
