<svg width="37" height="37" viewBox="0 0 37 37" fill="none" xmlns="http://www.w3.org/2000/svg">
<path d="M22.1989 1.68761e-06C25.585 -0.00161454 28.8694 1.15771 31.5041 3.28463C34.1389 5.41155 35.9648 8.37749 36.6774 11.6878C37.39 14.9981 36.9461 18.4526 35.4199 21.4752C33.8936 24.4979 31.3772 26.9059 28.2903 28.2977C27.3036 30.4791 25.8025 32.3886 23.9158 33.8625C22.0291 35.3364 19.813 36.3307 17.4576 36.76C15.1022 37.1894 12.6778 37.041 10.3924 36.3277C8.10695 35.6143 6.02863 34.3573 4.33568 32.6643C2.64273 30.9714 1.38568 28.8931 0.67233 26.6076C-0.0410199 24.3222 -0.189377 21.8978 0.239981 19.5424C0.66934 17.187 1.6636 14.9709 3.13749 13.0842C4.61138 11.1975 6.52092 9.69637 8.70234 8.70968C9.87574 6.11341 11.7732 3.91075 14.1671 2.36589C16.561 0.821034 19.3498 -0.000438657 22.1989 1.68761e-06ZM14.7974 11.1022C13.3395 11.1022 11.8958 11.3894 10.5488 11.9473C9.20184 12.5052 7.97794 13.323 6.94701 14.354C5.91607 15.3849 5.09829 16.6088 4.54035 17.9558C3.98241 19.3028 3.69525 20.7464 3.69525 22.2044C3.69525 23.6624 3.98241 25.1061 4.54035 26.453C5.09829 27.8 5.91607 29.0239 6.94701 30.0548C7.97794 31.0858 9.20184 31.9036 10.5488 32.4615C11.8958 33.0194 13.3395 33.3066 14.7974 33.3066C17.7419 33.3066 20.5658 32.1369 22.6479 30.0548C24.73 27.9728 25.8996 25.1489 25.8996 22.2044C25.8996 19.2599 24.73 16.436 22.6479 14.354C20.5658 12.2719 17.7419 11.1022 14.7974 11.1022ZM16.6478 12.9526V14.8029H20.3485V18.5037H12.9471C12.7159 18.5032 12.4929 18.5894 12.3221 18.7452C12.1512 18.9009 12.0449 19.115 12.024 19.3453C12.0031 19.5755 12.0692 19.8052 12.2092 19.9892C12.3492 20.1732 12.5531 20.298 12.7805 20.3392L12.9471 20.354H16.6478C17.8747 20.354 19.0513 20.8414 19.9188 21.7089C20.7864 22.5765 21.2737 23.7531 21.2737 24.98C21.2737 26.2068 20.7864 27.3834 19.9188 28.251C19.0513 29.1185 17.8747 29.6059 16.6478 29.6059V31.4562H12.9471V29.6059H9.24635V25.9051H16.6478C16.879 25.9056 17.102 25.8194 17.2728 25.6636C17.4437 25.5079 17.55 25.2938 17.5709 25.0636C17.5918 24.8333 17.5257 24.6036 17.3857 24.4196C17.2457 24.2356 17.0418 24.1108 16.8143 24.0696L16.6478 24.0548H12.9471C11.7202 24.0548 10.5436 23.5674 9.67606 22.6999C8.80854 21.8323 8.32116 20.6557 8.32116 19.4289C8.32116 18.202 8.80854 17.0254 9.67606 16.1578C10.5436 15.2903 11.7202 14.8029 12.9471 14.8029V12.9526H16.6478ZM22.1989 3.70074C20.6311 3.6989 19.0807 4.02999 17.6504 4.6721C16.2201 5.31422 14.9424 6.25272 13.9019 7.42552C15.9933 7.29856 18.0878 7.61703 20.047 8.35986C22.0061 9.10269 23.7852 10.253 25.2667 11.7346C26.7482 13.2163 27.8983 14.9955 28.6409 16.9548C29.3835 18.914 29.7017 21.0086 29.5745 23.1C31.2569 21.6042 32.4448 19.6323 32.9807 17.4458C33.5166 15.2594 33.3751 12.9617 32.5751 10.8574C31.7751 8.75321 30.3543 6.94191 28.5011 5.66376C26.648 4.3856 24.4501 3.701 22.1989 3.70074Z" fill="#00BBD3"/>
</svg>
