<svg width="42" height="41" viewBox="0 0 42 41" fill="none" xmlns="http://www.w3.org/2000/svg">
<path d="M21 0C9.42048 0 0 9.19629 0 20.5C0 31.8037 9.42048 41 21 41C32.5794 41 42 31.8037 42 20.5C42 9.19629 32.5794 0 21 0ZM40.6446 20.5C40.6446 22.1287 40.435 23.7102 40.0416 25.221L32.3964 23.2213C32.6152 22.3487 32.732 21.4374 32.732 20.4999C32.732 19.5625 32.6153 18.6511 32.3964 17.7785L40.0416 15.7789C40.4349 17.2899 40.6446 18.8713 40.6446 20.5ZM1.3554 20.5C1.3554 18.8713 1.56515 17.2898 1.95844 15.779L9.60346 17.7787C9.38479 18.6514 9.26789 19.5626 9.26789 20.5001C9.26789 21.4377 9.38479 22.349 9.60346 23.2216L1.95844 25.2214C1.56515 23.7102 1.3554 22.1287 1.3554 20.5ZM30.338 17.9477C30.3394 17.9522 30.3406 17.9567 30.342 17.9612C30.3733 18.0711 30.4029 18.1818 30.4302 18.2931C30.6043 19.0018 30.6989 19.7401 30.6989 20.5001C30.6989 21.2603 30.6043 21.9987 30.4301 22.7073C30.4029 22.8185 30.3734 22.9287 30.3422 23.0382C30.3406 23.0435 30.3392 23.0488 30.3376 23.0541C30.2105 23.4964 30.0515 23.9257 29.8626 24.3394C29.7202 24.6514 29.5608 24.955 29.3859 25.2483C29.3854 25.2489 29.385 25.2496 29.3846 25.2504C28.9172 26.0333 28.3381 26.7453 27.6687 27.3654C26.5743 28.379 25.2394 29.1465 23.7562 29.5765C23.559 29.6339 23.359 29.6843 23.1569 29.7295C23.1283 29.7358 23.0999 29.7426 23.0711 29.7489C22.9852 29.7672 22.8989 29.7839 22.8122 29.8002C22.7563 29.8105 22.7001 29.8202 22.6439 29.8297C22.5686 29.8423 22.4934 29.8553 22.4176 29.8663C22.2919 29.8844 22.1654 29.9003 22.0381 29.9135C21.987 29.9189 21.9352 29.9228 21.8837 29.9274C21.7833 29.9363 21.6828 29.944 21.5815 29.9499C21.5344 29.9526 21.4873 29.9555 21.4401 29.9575C21.294 29.964 21.1475 29.9684 21 29.9684C20.8524 29.9684 20.7059 29.964 20.5598 29.9575C20.5126 29.9554 20.4656 29.9526 20.4186 29.9499C20.3174 29.944 20.2166 29.9363 20.1163 29.9274C20.0648 29.9228 20.013 29.9189 19.9618 29.9135C19.8346 29.9003 19.7081 29.8844 19.5823 29.8663C19.5065 29.8553 19.4312 29.8423 19.3559 29.8296C19.2998 29.8202 19.2437 29.8105 19.1879 29.8002C19.1011 29.7841 19.0143 29.7672 18.9284 29.7487C18.9004 29.7427 18.8728 29.7361 18.845 29.7298C18.6421 29.6845 18.441 29.6339 18.243 29.5763C16.7599 29.1463 15.425 28.3786 14.3305 27.3646C13.9961 27.0547 13.6842 26.722 13.3976 26.3691C13.3972 26.3686 13.3968 26.3681 13.3964 26.3675C13.1102 26.0149 12.8492 25.6419 12.6159 25.2511C12.615 25.2496 12.6141 25.248 12.6132 25.2464C12.4391 24.9544 12.2805 24.6523 12.1385 24.3415C12.1381 24.3405 12.1375 24.3394 12.137 24.3385C12.0897 24.2349 12.0443 24.1301 12.0007 24.0246C12.0005 24.0239 12.0003 24.0232 11.9999 24.0225C11.8703 23.7078 11.7575 23.3848 11.6625 23.0544C11.661 23.0489 11.6594 23.0435 11.6578 23.0382C11.6266 22.9287 11.5971 22.8186 11.5699 22.7074C11.3958 21.9988 11.3011 21.2604 11.3011 20.5002C11.3011 19.7401 11.3959 19.0017 11.5699 18.293C11.5971 18.182 11.6265 18.0718 11.6578 17.9623C11.6594 17.9569 11.661 17.9515 11.6625 17.946C11.7574 17.6158 11.87 17.2928 11.9997 16.9783C12 16.9774 12.0004 16.9765 12.0007 16.9757C12.0442 16.8702 12.0896 16.7658 12.1368 16.6623C12.1374 16.6611 12.1379 16.6598 12.1385 16.6585C12.2803 16.348 12.4388 16.0464 12.6128 15.7545C12.6139 15.7526 12.6149 15.7507 12.6161 15.749C12.8491 15.3587 13.1099 14.9861 13.3958 14.6336C13.3964 14.6327 13.3972 14.6318 13.3979 14.6309C13.6845 14.2781 13.9961 13.9456 14.3303 13.6359C15.4256 12.6213 16.7616 11.8532 18.2461 11.4232C18.442 11.3664 18.6408 11.3164 18.8416 11.2715C18.8709 11.265 18.8999 11.2579 18.9292 11.2518C19.0147 11.2335 19.1009 11.2167 19.1872 11.2006C19.2435 11.1901 19.3001 11.1804 19.3567 11.171C19.4317 11.1583 19.5065 11.1454 19.582 11.1345C19.7079 11.1164 19.8345 11.1005 19.9619 11.0872C20.013 11.0817 20.0645 11.078 20.1159 11.0734C20.2165 11.0644 20.3172 11.0567 20.4185 11.0508C20.4655 11.048 20.5125 11.0453 20.5597 11.0432C20.7058 11.0367 20.8523 11.0322 20.9999 11.0322C21.1475 11.0322 21.294 11.0368 21.4401 11.0432C21.4873 11.0453 21.5343 11.048 21.5812 11.0508C21.6826 11.0566 21.7834 11.0644 21.8838 11.0734C21.9352 11.078 21.9868 11.0819 22.0379 11.0872C22.1653 11.1005 22.2919 11.1164 22.4177 11.1345C22.4933 11.1454 22.5681 11.1583 22.6431 11.171C22.6997 11.1804 22.7563 11.1901 22.8125 11.2006C22.899 11.2167 22.985 11.2335 23.0706 11.2518C23.0999 11.2581 23.1289 11.265 23.158 11.2715C23.3588 11.3164 23.5576 11.3666 23.7535 11.4232C25.2378 11.8531 26.5733 12.6209 27.6683 13.6352C28.0032 13.9453 28.3154 14.2784 28.6024 14.6319C28.8891 14.9851 29.1507 15.3588 29.3843 15.75C29.3848 15.751 29.3854 15.752 29.386 15.7528C29.5607 16.0458 29.7199 16.3488 29.8622 16.6606C29.8623 16.6608 29.8624 16.6611 29.8624 16.6613C29.9101 16.7654 29.9557 16.8704 29.9994 16.9765C30.1297 17.2921 30.2428 17.6162 30.338 17.9477ZM29.1079 12.23C27.7642 10.9741 26.1161 10.0269 24.2839 9.50447L26.3325 2.04137C29.5241 2.92114 32.3876 4.57108 34.7003 6.77067L29.1079 12.23ZM17.7161 9.50447C15.8838 10.0268 14.2357 10.9742 12.892 12.2301L7.29962 6.77089C9.61227 4.57119 12.4759 2.92125 15.6676 2.04137L17.7161 9.50447ZM12.8919 28.7698C14.2355 30.0258 15.8837 30.9731 17.716 31.4955L15.6675 38.9586C12.4758 38.0788 9.61216 36.4288 7.29951 34.229L12.8919 28.7698ZM24.2839 31.4955C26.1161 30.9733 27.7642 30.0259 29.1079 28.77L34.7003 34.2292C32.3876 36.4289 29.524 38.0789 26.3323 38.9586L24.2839 31.4955Z" fill="#E59C0B"/>
</svg>
